<svg xmlns="http://www.w3.org/2000/svg" width="24" height="24" fill="none"><path fill="#fff" d="M18.2 8.544h-2.206v13.785H.259v-7.312l1.947-1.752 5.865-9.482 2.42-2.18 1.077.969L18.2 8.544ZM17.481 2.773h-1.3a.361.361 0 0 1-.362-.362v-.339c0-.2.162-.36.362-.36h1.3c.2 0 .362.16.362.36v.34c0 .199-.162.36-.362.36ZM20.115 2.773h1.3c.2 0 .362-.162.362-.362v-.339c0-.2-.162-.36-.361-.36h-1.3c-.2 0-.362.16-.362.36v.34c0 .199.162.36.361.36Z"/><path fill="#fff" d="M13.162 16.805a2.711 2.711 0 1 1-5.422.001 2.711 2.711 0 0 1 5.422 0Z"/><path fill="#47BAB8" fill-opacity=".75" d="M18.2 8.544h-2.206v13.785H1.784v-6.747l1.949-1.753 4.121-7.914 3.714-3.343L18.2 8.544Z"/><path fill="#47BAB8" d="M18.2 8.544h-2.206v13.785h-1.817V7.546c0-.63-.268-1.23-.736-1.651L10.66 3.39l.909-.818L18.2 8.544Z"/><path fill="#fff" d="M8.39 10.949h4.107V6.213H8.39v4.736Z"/><path fill="#27227D" d="M12.498 11.16h-4.09a.212.212 0 0 1-.213-.212v-1.7a.212.212 0 0 1 .424 0v1.489h3.667V6.424H9.439a.212.212 0 0 1 0-.423h3.059c.116 0 .211.095.211.212v4.735a.212.212 0 0 1-.211.212Z"/><path fill="#27227D" d="M10.492 11.16a.211.211 0 0 1-.212-.211V6.213a.212.212 0 0 1 .424 0v4.736a.211.211 0 0 1-.212.211Z"/><mask id="a" width="12" height="8" x="7" y="1" maskUnits="userSpaceOnUse" style="mask-type:luminance"><path fill="#fff" d="M7.808 1.41h10.624v7.422H7.808V1.41Z"/></mask><g mask="url(#a)"><path fill="#27227D" d="M18.161 8.793h-2.207a.212.212 0 0 1 0-.423h1.656l-7.158-6.446-2.28 2.052a.212.212 0 0 1-.283-.314l2.421-2.18a.212.212 0 0 1 .283 0l7.71 6.942a.212.212 0 0 1-.142.369Z"/></g><path fill="#27227D" d="M15.955 21.718a.212.212 0 0 1-.212-.211V8.58a.211.211 0 1 1 .423 0v12.926a.212.212 0 0 1-.211.211Z"/><mask id="b" width="11" height="10" x="0" y="13" maskUnits="userSpaceOnUse" style="mask-type:luminance"><path fill="#fff" d="M.007 13.083h10.981v9.495H.007v-9.495Z"/></mask><g mask="url(#b)"><path fill="#27227D" d="M10.771 22.578H.22a.212.212 0 0 1-.212-.212v-7.31c0-.06.025-.12.07-.16l1.948-1.752a.212.212 0 0 1 .284.315L.43 15.149v7.005h10.341a.212.212 0 0 1 0 .424Z"/></g><mask id="c" width="9" height="12" x="15" y="2" maskUnits="userSpaceOnUse" style="mask-type:luminance"><path fill="#fff" d="M15.737 2.028h8.256v11.86h-8.256V2.028Z"/></mask><g mask="url(#c)"><path fill="#27227D" d="M18.799 13.888c-.728 0-1.41-.333-2.024-.99-.318-.34-.704-.893-1.006-1.443a.212.212 0 0 1 .371-.203c.282.512.653 1.045.945 1.357.53.568 1.108.856 1.714.856 1.158 0 2.184-1.033 3.05-3.07 1.155-2.717 1.641-6.406 1.72-7.483a.426.426 0 0 0-.115-.323.424.424 0 0 0-.313-.136h-1.364a.212.212 0 1 1 0-.423h1.364a.855.855 0 0 1 .85.911c-.086 1.177-.569 4.836-1.752 7.62-.939 2.207-2.096 3.327-3.44 3.327Z"/></g><path fill="#27227D" d="M14.06 5.1a.211.211 0 0 1-.209-.179 25.11 25.11 0 0 1-.243-1.98.852.852 0 0 1 .846-.91h1.366a.212.212 0 0 1 0 .423h-1.366a.423.423 0 0 0-.424.457c.036.506.126 1.232.24 1.944a.212.212 0 0 1-.21.244Z"/><path fill="#FFEA9E" d="M17.481 2.773h-1.3a.361.361 0 0 1-.362-.362v-.339c0-.2.162-.36.362-.36h1.3c.2 0 .362.16.362.36v.34c0 .199-.162.36-.362.36ZM20.115 2.773h1.3c.2 0 .362-.162.362-.362v-.339c0-.2-.162-.36-.361-.36h-1.3c-.2 0-.362.16-.362.36v.34c0 .199.162.36.361.36Z"/><path fill="#27227D" d="M16.181 1.923a.15.15 0 0 0-.15.15v.338c0 .083.068.15.15.15h1.3a.15.15 0 0 0 .15-.15v-.339a.15.15 0 0 0-.15-.15h-1.3Zm1.3 1.061h-1.3a.573.573 0 0 1-.573-.573v-.339c0-.315.257-.572.573-.572h1.3c.317 0 .574.257.574.572v.34a.573.573 0 0 1-.573.572ZM20.115 1.923a.15.15 0 0 0-.15.15v.338c0 .083.067.15.15.15h1.3a.15.15 0 0 0 .15-.15v-.339a.15.15 0 0 0-.15-.15h-1.3Zm1.3 1.061h-1.3a.574.574 0 0 1-.573-.573v-.339c0-.315.257-.572.573-.572h1.3c.317 0 .574.257.574.572v.34a.574.574 0 0 1-.573.572ZM18.799 11.463c-1.144 0-2.223-.351-2.926-.646a.212.212 0 1 1 .164-.39c.667.28 1.688.613 2.762.613a6.902 6.902 0 0 0 3.15-.75.212.212 0 0 1 .191.377 7.324 7.324 0 0 1-3.341.796Z"/><path fill="#FFEA9E" d="M13.162 16.805a2.711 2.711 0 1 1-5.422.001 2.711 2.711 0 0 1 5.422 0Z"/><path fill="#FFD36E" d="M13.163 16.806a2.71 2.71 0 0 1-3.577 2.568 2.71 2.71 0 0 0 0-5.137 2.712 2.712 0 0 1 3.577 2.57Z"/><path fill="#27227D" d="M10.451 14.305a2.502 2.502 0 0 0-2.498 2.5c0 1.379 1.12 2.5 2.498 2.5a2.502 2.502 0 0 0 2.5-2.5c0-1.378-1.122-2.5-2.5-2.5Zm0 5.423a2.926 2.926 0 0 1-2.922-2.923 2.926 2.926 0 0 1 2.922-2.923 2.926 2.926 0 0 1 2.922 2.923 2.926 2.926 0 0 1-2.922 2.923Z"/><path fill="#fff" d="M10.451 18.124a1.32 1.32 0 0 1 0-2.636 1.32 1.32 0 0 1 0 2.636Z"/><path fill="#27227D" d="M10.452 15.699a1.107 1.107 0 0 0 0 2.213 1.108 1.108 0 0 0 0-2.213Zm0 2.636a1.531 1.531 0 0 1-1.53-1.53c0-.843.687-1.53 1.53-1.53s1.53.687 1.53 1.53c0 .844-.687 1.53-1.53 1.53Z"/><mask id="d" width="10" height="10" x="10" y="13" maskUnits="userSpaceOnUse" style="mask-type:luminance"><path fill="#fff" d="M10.24 13.46h8.777v9.118H10.24V13.46Z"/></mask><g mask="url(#d)"><path fill="#27227D" d="M16.362 22.578h-3.608c-1.338 0-2.513-1.266-2.513-2.71v-.351a.212.212 0 0 1 .424 0v.35c0 1.22.976 2.288 2.09 2.288h3.607c1.123 0 2.225-1.152 2.225-2.325v-6.154a.212.212 0 0 1 .423 0v6.154c0 1.412-1.287 2.748-2.648 2.748Z"/></g><path fill="#fff" d="m3.586 10.266.591-2.815H3.091L5.8 3.775 5.207 6.6h1.088l-2.709 3.665Z"/><path fill="#fff" d="M8.72 6.126a4.205 4.205 0 0 0-4.433-4.199c-2.213.118-3.983 2-3.974 4.216a4.19 4.19 0 0 0 1.12 2.843c.457.492.735 1.123.735 1.794v2.6c0 1.293 1.011 2.403 2.304 2.427a2.35 2.35 0 0 0 2.393-2.35V10.68c0-.617.259-1.197.686-1.642a4.192 4.192 0 0 0 1.17-2.91Z"/><path fill="#47BAB8" fill-opacity=".2" d="M8.72 6.127c0 1.13-.446 2.155-1.17 2.91a2.375 2.375 0 0 0-.686 1.642v2.778a2.348 2.348 0 0 1-2.392 2.35 2.233 2.233 0 0 1-.803-.164 2.35 2.35 0 0 0 1.485-2.186v-2.778c0-.616.259-1.197.685-1.641A4.205 4.205 0 0 0 3.66 2.01a4.205 4.205 0 0 1 5.06 4.118Z"/><path fill="#27227D" d="M4.518 2.132c-.073 0-.146.002-.22.006C2.208 2.25.516 4.045.524 6.142a3.983 3.983 0 0 0 1.065 2.7c.51.55.79 1.238.79 1.939v2.599c0 1.2.94 2.194 2.097 2.215a2.125 2.125 0 0 0 1.537-.61c.413-.406.64-.948.64-1.527v-2.779c0-.652.265-1.288.745-1.788a3.975 3.975 0 0 0 1.11-2.764 3.96 3.96 0 0 0-1.247-2.9 3.955 3.955 0 0 0-2.743-1.095ZM4.517 16.02h-.049c-1.385-.026-2.512-1.21-2.512-2.64v-2.598c0-.594-.24-1.18-.678-1.651A4.403 4.403 0 0 1 .101 6.144C.09 3.825 1.965 1.839 4.276 1.716A4.382 4.382 0 0 1 7.552 2.92a4.377 4.377 0 0 1 1.38 3.207c0 1.145-.437 2.23-1.229 3.056a2.167 2.167 0 0 0-.626 1.496v2.779c0 .693-.273 1.342-.768 1.828a2.541 2.541 0 0 1-1.792.733Z"/><path fill="#27227D" d="M6.865 12.359H2.167a.212.212 0 1 1 0-.423h4.698a.212.212 0 0 1 0 .423Z"/><path fill="#47BAB8" fill-opacity=".5" d="m3.586 10.266.591-2.815H3.091L5.8 3.775 5.207 6.6h1.088l-2.709 3.665Z"/><path fill="#27227D" d="M3.51 7.24h.668a.212.212 0 0 1 .207.255L3.994 9.36l1.883-2.547h-.67a.212.212 0 0 1-.206-.255l.393-1.874L3.51 7.24Zm.077 3.237a.211.211 0 0 1-.207-.255l.537-2.56h-.825a.211.211 0 0 1-.17-.336L5.63 3.65a.212.212 0 0 1 .378.168l-.54 2.571h.828a.211.211 0 0 1 .17.338l-2.709 3.665a.211.211 0 0 1-.17.085Z"/></svg>