<svg width="24" height="24" viewBox="0 0 24 24" fill="none" xmlns="http://www.w3.org/2000/svg">
<path d="M22 7.81V12.5H17.92C17.8 12.49 17.54 12.34 17.48 12.23L16.44 10.26C16.03 9.48 15.32 9.04 14.56 9.08C13.8 9.12 13.15 9.63 12.82 10.46L11.44 13.92L11.24 13.4C10.75 12.13 9.35 11.17 7.97 11.17L2 11.2V7.81C2 4.17 4.17 2 7.81 2H16.19C19.83 2 22 4.17 22 7.81Z" fill="#47BAB8"/>
<path d="M22 16.1901V14.0001H17.92C17.25 14.0001 16.46 13.5201 16.15 12.9301L15.11 10.9601C14.83 10.4301 14.43 10.4601 14.21 11.0101L11.91 16.8201C11.66 17.4701 11.24 17.4701 10.98 16.8201L9.84 13.9401C9.57 13.2401 8.73 12.6701 7.98 12.6701L2 12.7001V16.1901C2 19.7701 4.1 21.9301 7.63 21.9901C7.74 22.0001 7.86 22.0001 7.97 22.0001H15.97C16.12 22.0001 16.27 22.0001 16.41 21.9901C19.92 21.9101 22 19.7601 22 16.1901Z" fill="#47BAB8"/>
<path d="M1.99973 12.7002V16.0102C1.97973 15.6902 1.96973 15.3502 1.96973 15.0002V12.7002H1.99973Z" fill="#47BAB8"/>
</svg>
