<svg width="60" height="60" viewBox="0 0 60 60" fill="none" xmlns="http://www.w3.org/2000/svg">
<path d="M17.6419 0C7.95812 0 0 7.9475 0 17.6419V42.3581C0 52.0419 7.9475 60 17.6419 60H42.3581C52.0419 60 60 52.0525 60 42.3581V17.6419C60 7.95812 52.0525 0 42.3581 0H17.6419ZM17.6419 5.45437H42.3581C49.1012 5.45437 54.5456 10.8987 54.5456 17.6419V42.3581C54.5456 49.1012 49.1012 54.5456 42.3581 54.5456H17.6419C10.8987 54.5456 5.45437 49.1012 5.45437 42.3581V17.6419C5.45437 10.8987 10.8987 5.45437 17.6419 5.45437ZM46.1081 11.4206C44.7337 11.4206 43.6362 12.5175 43.6362 13.8919C43.6362 15.2662 44.7337 16.3638 46.1081 16.3638C47.4825 16.3638 48.5794 15.2662 48.5794 13.8919C48.5794 12.5175 47.4825 11.4206 46.1081 11.4206ZM30 13.6362C20.9981 13.6362 13.6362 20.9981 13.6362 30C13.6362 39.0019 20.9981 46.3638 30 46.3638C39.0019 46.3638 46.3638 39.0019 46.3638 30C46.3638 20.9981 39.0019 13.6362 30 13.6362ZM30 19.0906C36.0619 19.0906 40.9094 23.9381 40.9094 30C40.9094 36.0619 36.0619 40.9094 30 40.9094C23.9381 40.9094 19.0906 36.0619 19.0906 30C19.0906 23.9381 23.9381 19.0906 30 19.0906Z" fill="white"/>
</svg>
