<svg width="36" height="43" viewBox="0 0 36 43" fill="none" xmlns="http://www.w3.org/2000/svg">
<path d="M29.3205 4.49071C27.4749 2.82643 25.2951 1.57558 22.9269 0.821869C20.5588 0.0681589 18.0569 -0.17102 15.5889 0.12034C11.6859 0.566766 8.0448 2.30703 5.24601 5.06367C2.44722 7.8203 0.651903 11.4346 0.146302 15.3303C-0.359299 19.2261 0.453922 23.1789 2.45631 26.5587C4.4587 29.9384 7.53497 32.5505 11.1947 33.9784C11.5491 34.1253 11.8515 34.375 12.0629 34.6951C12.2743 35.0153 12.3851 35.3914 12.381 35.7751V37.1376C12.3816 37.6557 12.5876 38.1524 12.954 38.5188C13.3203 38.8851 13.817 39.0912 14.3351 39.0918H20.8489C21.3669 39.0912 21.8637 38.8851 22.23 38.5188C22.5963 38.1524 22.8024 37.6557 22.803 37.1376V35.7732C22.8012 35.387 22.9149 35.0092 23.1294 34.6881C23.344 34.367 23.6496 34.1175 24.0071 33.9714C26.8036 32.8759 29.2729 31.0824 31.1798 28.7619C33.0866 26.4415 34.3675 23.6713 34.9002 20.7155C35.4329 17.7597 35.1998 14.7167 34.2231 11.8766C33.2464 9.03638 31.5586 6.49366 29.3205 4.49071ZM23.5313 32.7584C22.9308 33.0011 22.4165 33.4179 22.0546 33.9551C21.6927 34.4923 21.4996 35.1254 21.5002 35.7732V37.1376C21.5001 37.3103 21.4314 37.4759 21.3093 37.598C21.1871 37.7202 21.0216 37.7888 20.8489 37.789H14.3351C14.1624 37.7888 13.9968 37.7202 13.8747 37.598C13.7526 37.4759 13.6839 37.3103 13.6837 37.1376V35.7751C13.6867 35.1295 13.4964 34.4977 13.1373 33.9612C12.7781 33.4247 12.2666 33.008 11.6686 32.7647C8.28033 31.4427 5.43217 29.0246 3.57808 25.8957C1.72399 22.7667 0.970695 19.1072 1.43828 15.5004C1.90586 11.8936 3.5674 8.54713 6.15805 5.99443C8.7487 3.44174 12.1193 1.82976 15.7326 1.41545C16.3579 1.34595 16.9864 1.31102 17.6155 1.31082C21.6177 1.29908 25.4807 2.77872 28.451 5.4611C30.5234 7.31558 32.0864 9.66995 32.991 12.2998C33.8955 14.9297 34.1114 17.7473 33.6181 20.4843C33.1249 23.2213 31.9388 25.7863 30.1731 27.9349C28.4074 30.0835 26.1208 31.7441 23.5313 32.7584Z" fill="black"/>
<path d="M20.1976 39.7431H14.9866C14.8138 39.7431 14.6481 39.8118 14.526 39.9339C14.4038 40.0561 14.3352 40.2218 14.3352 40.3945C14.3352 40.5673 14.4038 40.7329 14.526 40.8551C14.6481 40.9773 14.8138 41.0459 14.9866 41.0459H20.1976C20.3703 41.0459 20.536 40.9773 20.6582 40.8551C20.7803 40.7329 20.8489 40.5673 20.8489 40.3945C20.8489 40.2218 20.7803 40.0561 20.6582 39.9339C20.536 39.8118 20.3703 39.7431 20.1976 39.7431Z" fill="black"/>
<path d="M18.8948 41.6973H16.2893C16.1166 41.6973 15.9509 41.7659 15.8287 41.888C15.7066 42.0102 15.6379 42.1759 15.6379 42.3486C15.6379 42.5214 15.7066 42.6871 15.8287 42.8092C15.9509 42.9314 16.1166 43 16.2893 43H18.8948C19.0676 43 19.2332 42.9314 19.3554 42.8092C19.4776 42.6871 19.5462 42.5214 19.5462 42.3486C19.5462 42.1759 19.4776 42.0102 19.3554 41.888C19.2332 41.7659 19.0676 41.6973 18.8948 41.6973Z" fill="black"/>
<path d="M29.8703 19.2053C29.8116 19.1114 29.73 19.034 29.6331 18.9804C29.5363 18.9268 29.4273 18.8989 29.3166 18.8992H23.4151C22.6465 18.8998 21.8856 19.0518 21.1756 19.3463C21.3105 18.7704 21.2857 18.1685 21.1038 17.6057L18.2095 8.92247C18.1663 8.79282 18.0834 8.68004 17.9726 8.60013C17.8617 8.52021 17.7285 8.4772 17.5919 8.4772C17.4552 8.4772 17.322 8.52021 17.2111 8.60013C17.1003 8.68004 17.0174 8.79282 16.9742 8.92247L14.0793 17.606C13.8986 18.1666 13.8735 18.7657 14.0067 19.3395C13.2966 19.0477 12.5362 18.8981 11.7686 18.8992H5.86713C5.75578 18.8987 5.64617 18.9268 5.54887 18.981C5.45157 19.0352 5.36986 19.1135 5.3116 19.2084C5.25335 19.3033 5.22053 19.4116 5.21629 19.5228C5.21205 19.6341 5.23655 19.7446 5.28741 19.8437L6.44686 22.1691C6.93094 23.1453 7.67864 23.9666 8.60534 24.5399C9.53204 25.1132 10.6007 25.4156 11.6904 25.4129H23.4933C24.583 25.4156 25.6517 25.1132 26.5784 24.5399C27.5051 23.9666 28.2528 23.1453 28.7369 22.1691L29.8963 19.8437C29.9468 19.7439 29.9709 19.6328 29.9663 19.5211C29.9617 19.4094 29.9287 19.3007 29.8703 19.2053ZM15.3152 18.0179L17.5919 11.1886L19.8685 18.0175C19.9538 18.2746 19.9849 18.5466 19.9598 18.8163C19.9347 19.086 19.854 19.3476 19.7228 19.5846L17.5919 23.4203L15.4609 19.5846C15.3297 19.3477 15.249 19.0861 15.2239 18.8165C15.1988 18.5468 15.23 18.2749 15.3152 18.0179ZM7.61282 21.5894L6.92236 20.2019H11.7686C12.4099 20.2003 13.0441 20.3355 13.6291 20.5984C14.214 20.8613 14.7361 21.2459 15.1607 21.7266L16.4849 24.1102H11.6904C10.8433 24.1121 10.0125 23.8771 9.29189 23.4316C8.57132 22.9862 7.98972 22.348 7.61282 21.5894ZM27.5709 21.5894C27.194 22.348 26.6124 22.9862 25.8918 23.4316C25.1713 23.8771 24.3405 24.1121 23.4933 24.1102H18.6988L20.0208 21.7307C20.446 21.25 20.9685 20.8651 21.5537 20.6015C22.1389 20.338 22.7734 20.2018 23.4151 20.2019H28.2614L27.5709 21.5894Z" fill="black"/>
<path d="M9.13682 17.7243C9.16636 17.8718 9.24604 18.0045 9.36234 18.1C9.47864 18.1954 9.62438 18.2476 9.77482 18.2478C9.81797 18.2478 9.861 18.2435 9.90332 18.2351C10.0727 18.2011 10.2216 18.1013 10.3174 17.9576C10.4132 17.8138 10.448 17.6379 10.4141 17.4686L9.94784 15.1372L12.9255 15.6334C13.0959 15.6617 13.2705 15.6212 13.4111 15.5208C13.5516 15.4203 13.6465 15.2682 13.6748 15.0978C13.7031 14.9274 13.6626 14.7527 13.5622 14.6122C13.4617 14.4717 13.3096 14.3768 13.1392 14.3485L9.23095 13.6971C9.12692 13.6797 9.02022 13.6878 8.92004 13.7208C8.81985 13.7538 8.72918 13.8106 8.65583 13.8864C8.58248 13.9622 8.52865 14.0547 8.49897 14.1559C8.46928 14.2571 8.46464 14.364 8.48543 14.4674L9.13682 17.7243Z" fill="black"/>
<path d="M22.2584 15.6334L25.236 15.1372L24.7698 17.4686C24.7527 17.5525 24.7524 17.6391 24.7688 17.7232C24.7852 17.8073 24.8181 17.8873 24.8655 17.9587C24.9129 18.0301 24.9739 18.0914 25.0451 18.1392C25.1163 18.1869 25.1961 18.2202 25.2802 18.237C25.3642 18.2538 25.4507 18.2539 25.5348 18.2372C25.6188 18.2205 25.6988 18.1874 25.77 18.1398C25.8413 18.0922 25.9024 18.0309 25.9499 17.9596C25.9975 17.8883 26.0305 17.8084 26.0471 17.7243L26.6984 14.4674C26.7192 14.364 26.7146 14.2571 26.6849 14.1559C26.6552 14.0547 26.6014 13.9622 26.528 13.8864C26.4547 13.8106 26.364 13.7538 26.2638 13.7208C26.1636 13.6878 26.0569 13.6797 25.9529 13.6971L22.0447 14.3485C21.8743 14.3768 21.7221 14.4717 21.6217 14.6122C21.5212 14.7527 21.4807 14.9274 21.5091 15.0978C21.5374 15.2682 21.6323 15.4203 21.7728 15.5208C21.9133 15.6212 22.088 15.6617 22.2584 15.6334Z" fill="black"/>
</svg>
