<svg width="58" height="33" viewBox="0 0 58 33" fill="none" xmlns="http://www.w3.org/2000/svg">
<path d="M57.9371 18.0066L51.0193 0.557142C50.8404 0.106372 50.3362 -0.114474 49.8869 0.0592642L42.501 2.92811C42.2826 3.01282 42.1071 3.1818 42.0127 3.3979C41.9187 3.61356 41.9135 3.85817 41.9994 4.07772L42.4506 5.23474L39.0914 6.1453L34.1487 4.47188C31.9183 3.71642 29.5164 3.81047 27.3641 4.68257C26.8964 4.32418 26.332 4.08421 25.669 3.98351C24.6512 3.82835 23.5484 4.05136 22.5653 4.61104L18.3366 7.01572L16.5677 6.1393L17.2236 4.82195C17.3283 4.61104 17.3454 4.36686 17.2708 4.14342C17.1966 3.91954 17.0361 3.73543 16.8262 3.63128L9.72864 0.110694C9.29611 -0.104534 8.77519 0.0722298 8.55679 0.503551L0.095522 17.2615C-0.124173 17.6972 0.0478928 18.2296 0.480417 18.4513L7.62523 22.1128C7.75009 22.1768 7.88654 22.2092 8.02385 22.2092C8.11611 22.2092 8.20879 22.1945 8.29847 22.1651C8.52074 22.0912 8.70439 21.9313 8.80952 21.7208L9.35039 20.6346L11.75 22.1402C11.6619 22.4774 11.6393 22.8314 11.6947 23.1864C11.8007 23.8671 12.1654 24.4643 12.722 24.8693L13.3394 25.3179C13.7934 25.6485 14.3208 25.8076 14.8438 25.8076C14.847 25.8076 14.8501 25.8065 14.8532 25.8065C14.8615 25.9585 14.871 26.1107 14.9031 26.2596C15.0588 26.984 15.4785 27.5977 16.0848 27.9875C16.5297 28.2736 17.0309 28.4098 17.533 28.4098C17.5975 28.4098 17.6607 28.3895 17.7252 28.385C17.7295 28.4443 17.7235 28.5031 17.7316 28.5623C17.8299 29.2793 18.195 29.9103 18.7602 30.3382C19.2347 30.6973 19.7951 30.8702 20.3581 30.8702C20.6495 30.8702 20.9369 30.8073 21.2177 30.7164C21.4084 31.18 21.7205 31.6019 22.1384 31.9182C22.6567 32.3107 23.26 32.5017 23.8423 32.5017C24.5821 32.5017 25.2879 32.1931 25.7415 31.5958L26.2053 30.9849C27.1767 31.7887 28.933 33 30.7104 33C30.9438 33 31.1777 32.9788 31.4098 32.9334C32.4993 32.7196 33.3628 32.0227 33.9819 30.859C34.2299 30.9112 34.4815 30.9484 34.74 30.9484C34.7443 30.9484 34.7486 30.9484 34.7524 30.9484C36.1786 30.9433 37.434 30.0871 38.4943 28.4222C38.7733 28.4861 39.0542 28.5316 39.3377 28.5316C39.4094 28.5316 39.4819 28.5295 39.554 28.5247C40.9818 28.4347 42.1587 27.484 43.0636 25.7187C43.2226 25.7488 43.3816 25.7783 43.5372 25.7842C43.5758 25.786 43.6145 25.7864 43.6526 25.7864C44.4919 25.7864 45.2283 25.4307 45.7869 24.753C46.655 23.7007 47.0472 22.6526 46.9524 21.6378C46.9311 21.4094 46.8846 21.1853 46.8144 20.9669L48.3986 20.4865L48.8575 21.6633C48.9429 21.8829 49.112 22.0588 49.327 22.1521C49.4381 22.2006 49.5565 22.2248 49.6754 22.2248C49.7861 22.2248 49.8972 22.2036 50.0023 22.1612L57.4479 19.1562C57.8981 18.9747 58.1169 18.46 57.9371 18.0066ZM7.63467 20.1317L2.06076 17.2749L9.73035 2.08492L15.2558 4.8254L14.5974 6.14773L14.5963 6.14919L14.5958 6.15086L7.63467 20.1317ZM13.7509 23.434C13.5772 23.3078 13.4639 23.122 13.4308 22.9115C13.3982 22.7028 13.4493 22.4931 13.5746 22.3216C13.7325 22.1046 13.9792 21.9896 14.2298 21.9896C14.3963 21.9896 14.5645 22.0402 14.7091 22.1457L15.3261 22.5938C15.4995 22.72 15.6132 22.9059 15.6462 23.1168C15.6789 23.3255 15.6278 23.5351 15.5025 23.7067C15.2403 24.0672 14.731 24.1463 14.3684 23.883L13.7509 23.434ZM17.0305 26.4956C16.7636 26.3236 16.6602 26.0686 16.6207 25.8849C16.5529 25.5699 16.622 25.222 16.8104 24.9298L17.3081 24.1575C17.6707 23.5969 18.3607 23.3938 18.8456 23.7067C19.1129 23.8783 19.2159 24.1333 19.2558 24.317C19.3236 24.632 19.2545 24.9804 19.0665 25.2717L18.5679 26.0444C18.2066 26.6054 17.5154 26.8072 17.0305 26.4956ZM19.8166 28.9232C19.6286 28.781 19.5064 28.5671 19.4729 28.3212C19.4334 28.0329 19.5145 27.739 19.7012 27.4931L21.3716 25.2924C21.7333 24.8161 22.3753 24.6904 22.8018 25.0141C22.9897 25.1563 23.1116 25.3698 23.1451 25.6157C23.1845 25.9039 23.1034 26.1983 22.9172 26.4442L22.8003 26.5982L22.7988 26.5998L21.4729 28.3462L21.4721 28.3475L21.2463 28.6449C20.8846 29.1216 20.2414 29.2456 19.8166 28.9232ZM23.1944 30.5033C22.9623 30.3274 22.8095 30.084 22.7756 29.8355C22.7602 29.7233 22.7642 29.5602 22.869 29.4219L24.144 27.7422L24.195 27.675C24.3045 27.5311 24.4864 27.4594 24.6906 27.4594C24.9039 27.4594 25.1412 27.5376 25.3459 27.6923C25.578 27.8682 25.7308 28.1116 25.7647 28.3601C25.7801 28.4724 25.7762 28.6358 25.6711 28.7741L24.3452 30.5206C24.1225 30.8144 23.5952 30.8058 23.1944 30.5033ZM44.4349 23.622C44.2002 23.9073 43.9397 24.033 43.6042 24.0153C41.7981 23.9466 38.7048 20.4882 37.1789 18.3243C36.8983 17.9254 36.3491 17.8325 35.9539 18.1147C35.5583 18.3978 35.4647 18.9501 35.7458 19.3486C36.1051 19.8591 38.7331 23.5002 41.4266 25.0665C40.8453 26.142 40.18 26.7113 39.4445 26.7579C37.3836 26.9062 34.6211 23.2309 33.8247 21.9378C33.569 21.5225 33.0283 21.3941 32.6151 21.6512C32.2028 21.9088 32.0753 22.4538 32.3302 22.8691C32.6017 23.3114 34.4775 26.2733 36.8445 27.7281C36.1796 28.6829 35.4768 29.1746 34.7481 29.1782C34.7456 29.1782 34.743 29.1782 34.74 29.1782C32.9798 29.1782 31.0923 26.5773 30.5126 25.5738C30.2688 25.1511 29.7299 25.0063 29.312 25.2531C28.8923 25.4981 28.749 26.0388 28.9923 26.4615C29.1826 26.7925 30.4849 28.9669 32.3468 30.162C32.001 30.749 31.5838 31.0953 31.0755 31.1956C29.8361 31.4383 28.2001 30.3454 27.2496 29.551C27.48 29.1223 27.5752 28.6275 27.5059 28.1189C27.4085 27.4062 27.0065 26.735 26.4023 26.2774C25.9433 25.9299 25.4176 25.7452 24.8985 25.7065C24.8964 25.5957 24.9015 25.4852 24.8863 25.3741C24.7885 24.6575 24.4233 24.027 23.8582 23.5991C22.9645 22.9226 21.7654 22.9076 20.8215 23.4638C20.6111 22.9493 20.2584 22.5144 19.7913 22.2144C18.9768 21.6904 17.9736 21.6709 17.1202 22.0685C16.9389 21.7143 16.6859 21.3997 16.3547 21.1586L15.7376 20.7104C14.8311 20.0502 13.6382 20.0831 12.7661 20.6923L10.1415 19.0455L15.7796 7.72196L17.9771 8.81059C18.0998 8.87109 18.2324 8.90134 18.365 8.90134C18.5143 8.90134 18.6632 8.86288 18.7971 8.78682L23.4295 6.15221C24.0727 5.78658 24.7752 5.63921 25.4068 5.73386L25.4082 5.73429C23.9735 6.74776 22.876 8.12314 22.2809 9.67107C21.1558 12.5987 22.5147 14.1727 23.3986 14.6001C24.3795 15.0617 25.3098 15.1188 26.162 14.77C27.4776 14.2332 28.2272 12.8688 28.625 11.8186C28.752 11.4824 29.006 11.2144 29.339 11.0649C29.7114 10.8972 30.1358 10.905 30.5027 11.0865L35.8466 13.7332C37.9981 14.7989 39.9367 16.2152 41.6097 17.9435C42.4859 18.8485 43.442 19.7332 44.4508 20.5716C44.909 20.9528 45.1622 21.3673 45.2025 21.8034C45.2519 22.3328 44.994 22.9443 44.4349 23.622ZM45.7947 19.4275C45.7181 19.3546 45.6537 19.2765 45.5698 19.2068C44.6095 18.4081 43.7003 17.5675 42.8678 16.7075C41.0549 14.8348 38.9537 13.2997 36.6224 12.1445L31.2781 9.49776C30.4426 9.08373 29.4746 9.06471 28.6228 9.44806C27.8599 9.79078 27.2772 10.4088 26.9824 11.1885C26.7589 11.7788 26.2697 12.8161 25.5025 13.129C25.1133 13.2872 24.6683 13.2439 24.1719 13.0106C24.0629 12.9501 23.1326 12.3588 23.92 10.3103C24.4585 8.90956 25.5308 7.67912 26.9399 6.84544C28.952 5.6539 31.3768 5.40021 33.5883 6.14962L38.7829 7.90861C38.9477 7.96393 39.1249 7.96999 39.2914 7.92461L43.0972 6.89293L47.7539 18.8334L45.7947 19.4275ZM50.1697 20.1866L43.9586 4.25924L49.7093 2.02571L55.9792 17.842L50.1697 20.1866Z" fill="black"/>
</svg>
