<svg width="34" height="34" viewBox="0 0 34 34" fill="none" xmlns="http://www.w3.org/2000/svg">
<path d="M16.9265 27.8705C16.0663 27.8705 15.3378 27.4156 14.6952 27.0143C14.2989 26.7668 13.9246 26.533 13.5853 26.4421C13.2215 26.3445 12.7658 26.3583 12.2834 26.373C11.539 26.3957 10.6951 26.4212 9.97779 26.0048C9.25002 25.5825 8.84929 24.8308 8.49574 24.1676C8.27097 23.746 8.05868 23.3478 7.80027 23.0886C7.54186 22.8294 7.14486 22.6164 6.72445 22.3911C6.06326 22.0364 5.31377 21.6346 4.89272 20.9046C4.47767 20.1851 4.5032 19.3388 4.5257 18.5922C4.5403 18.1082 4.55405 17.6512 4.45687 17.2863C4.36617 16.946 4.13308 16.5706 3.88637 16.1731C3.4862 15.5287 3.03271 14.7981 3.03271 13.9352C3.03271 13.0723 3.4862 12.3417 3.8863 11.6972C4.13308 11.2997 4.3661 10.9242 4.4568 10.584C4.55405 10.219 4.5403 9.76192 4.5257 9.27808C4.5032 8.53144 4.47767 7.68514 4.89272 6.96574C5.31377 6.2358 6.06326 5.83387 6.72452 5.47926C7.14486 5.25382 7.54193 5.0409 7.80034 4.78172C8.05868 4.52253 8.27097 4.12435 8.49574 3.70276C8.84929 3.03959 9.25003 2.28786 9.97786 1.86549C10.6951 1.44913 11.5388 1.47474 12.2833 1.49737C12.7657 1.51202 13.2215 1.52581 13.5852 1.42833C13.9245 1.33736 14.2988 1.10358 14.6951 0.856136C15.3378 0.454842 16.0661 0 16.9265 0C17.7868 0 18.5152 0.454842 19.1578 0.856136C19.5541 1.10365 19.9285 1.33736 20.2677 1.42833C20.6315 1.52581 21.0873 1.51194 21.5697 1.49744C22.3142 1.47495 23.1579 1.44927 23.8751 1.86556C24.6029 2.28786 25.0036 3.03959 25.3572 3.70283C25.582 4.12449 25.7943 4.52268 26.0527 4.78186C26.3111 5.04097 26.7081 5.25389 27.1284 5.47933C27.7896 5.83394 28.5391 6.23587 28.9602 6.96588C29.3753 7.68535 29.3497 8.53158 29.3272 9.27822C29.3126 9.76206 29.2989 10.2192 29.3961 10.584C29.4868 10.9243 29.7199 11.2998 29.9666 11.6972C30.3669 12.3417 30.8204 13.0723 30.8204 13.9352C30.8204 14.798 30.3669 15.5286 29.9668 16.1731C29.72 16.5706 29.487 16.9461 29.3963 17.2863C29.299 17.6513 29.3128 18.1084 29.3274 18.5922C29.3499 19.3389 29.3754 20.1852 28.9604 20.9046C28.5393 21.6346 27.7898 22.0366 27.1286 22.3912C26.7081 22.6167 26.3111 22.8296 26.0527 23.0887C25.7943 23.3478 25.582 23.7461 25.3573 24.1678C25.0037 24.8309 24.603 25.5827 23.8752 26.005C23.1579 26.4213 22.3142 26.3956 21.5698 26.3731C21.0873 26.3584 20.6316 26.3446 20.2678 26.4422C19.9285 26.5331 19.5542 26.7669 19.1579 27.0144C18.5152 27.4157 17.7868 27.8705 16.9265 27.8705ZM12.7874 24.9479C13.1753 24.9479 13.5666 24.9728 13.9495 25.0753C14.4917 25.2208 14.9742 25.522 15.4408 25.8134C15.9698 26.1437 16.4695 26.4558 16.9265 26.4558C17.3836 26.4558 17.8833 26.1437 18.4123 25.8134C18.8788 25.522 19.3613 25.2208 19.9036 25.0753C20.4673 24.9242 21.0495 24.9419 21.6124 24.9589C22.2226 24.9776 22.799 24.9949 23.1688 24.7804C23.5486 24.56 23.823 24.0454 24.1134 23.5006C24.3767 23.0066 24.649 22.4958 25.0553 22.0883C25.4616 21.6808 25.9709 21.4077 26.4634 21.1436C27.0066 20.8523 27.5196 20.5771 27.7394 20.1962C27.9533 19.8253 27.9359 19.2472 27.9175 18.6351C27.9004 18.0705 27.8828 17.4866 28.0336 16.9211C28.1785 16.3773 28.4789 15.8935 28.7694 15.4255C29.0987 14.8949 29.4098 14.3937 29.4098 13.9352C29.4098 13.4768 29.0987 12.9756 28.7693 12.445C28.4788 11.9771 28.1784 11.4932 28.0335 10.9493C27.8828 10.3838 27.9004 9.79998 27.9174 9.23542C27.9359 8.62333 27.9533 8.04512 27.7394 7.67432C27.5196 7.29332 27.0066 7.01815 26.4634 6.72693C25.9709 6.46279 25.4616 6.18968 25.0553 5.78216C24.649 5.37464 24.3767 4.86384 24.1134 4.36981C23.823 3.82506 23.5487 3.31045 23.1688 3.0901C22.7991 2.87555 22.2226 2.89309 21.6124 2.91149C21.0493 2.9286 20.4673 2.94622 19.9035 2.79505C19.3613 2.64969 18.8789 2.34849 18.4123 2.05705C17.8833 1.7267 17.3836 1.41468 16.9265 1.41468C16.4695 1.41468 15.9698 1.7267 15.4407 2.05705C14.9742 2.34842 14.4917 2.64969 13.9495 2.79505C13.3857 2.94615 12.8036 2.92846 12.2407 2.91149C11.6305 2.89288 11.054 2.87541 10.6843 3.09003C10.3044 3.31045 10.0301 3.82499 9.73969 4.36981C9.47635 4.86377 9.20404 5.37464 8.79781 5.78209C8.3915 6.18961 7.88222 6.46272 7.38966 6.72693C6.84653 7.01823 6.33345 7.29332 6.11376 7.67424C5.89985 8.04512 5.91727 8.62326 5.93568 9.23535C5.95275 9.79998 5.97031 10.3838 5.81959 10.9493C5.67466 11.4932 5.37435 11.977 5.08378 12.445C4.75435 12.9755 4.44326 13.4767 4.44326 13.9352C4.44326 14.3936 4.75435 14.8948 5.08371 15.4254C5.37421 15.8933 5.67459 16.3772 5.81952 16.9211C5.97024 17.4865 5.9526 18.0704 5.93561 18.635C5.91713 19.2471 5.89971 19.8253 6.11362 20.1961C6.33338 20.5771 6.84639 20.8522 7.38952 21.1435C7.88208 21.4075 8.39143 21.6807 8.79766 22.0882C9.2039 22.4957 9.47628 23.0065 9.73962 23.5005C10.0301 24.0452 10.3043 24.5599 10.6842 24.7803C11.054 24.9949 11.6305 24.9775 12.2407 24.9588C12.4214 24.9534 12.604 24.9479 12.7874 24.9479Z" fill="black"/>
<path d="M15.4304 19.5941C15.2499 19.5941 15.0694 19.525 14.9317 19.3869L10.9422 15.3854C10.6667 15.1092 10.6667 14.6613 10.9422 14.3851L12.9369 12.3843C13.0692 12.2516 13.2486 12.1771 13.4356 12.1771C13.6227 12.1771 13.8021 12.2516 13.9343 12.3843L15.4304 13.8848L19.9188 9.38308C20.1942 9.10685 20.6407 9.10685 20.9162 9.38308L22.9109 11.3838C23.1863 11.66 23.1863 12.108 22.9109 12.3843L15.9291 19.3869C15.7914 19.5251 15.6109 19.5941 15.4304 19.5941ZM12.4382 14.8853L15.4303 17.8864L21.4148 11.8841L20.4174 10.8837L15.929 15.3854C15.7968 15.5181 15.6174 15.5926 15.4303 15.5926C15.2433 15.5926 15.0639 15.5181 14.9317 15.3854L13.4356 13.8849L12.4382 14.8853Z" fill="black"/>
<path d="M16.9263 23.131C11.8708 23.131 7.75781 19.0058 7.75781 13.9351C7.75781 8.86453 11.8708 4.73926 16.9263 4.73926C21.9818 4.73926 26.0948 8.86453 26.0948 13.9351C26.0948 19.0058 21.9818 23.131 16.9263 23.131ZM16.9263 6.15401C12.6486 6.15401 9.16835 9.64462 9.16835 13.9351C9.16835 18.2257 12.6486 21.7163 16.9263 21.7163C21.2041 21.7163 24.6843 18.2257 24.6843 13.9351C24.6843 9.64462 21.2041 6.15401 16.9263 6.15401Z" fill="black"/>
<path d="M26.0083 34C25.7752 34 25.547 33.8842 25.4126 33.6723L20.5674 26.0362C20.3583 25.7067 20.4551 25.2694 20.7837 25.0596C21.1123 24.85 21.5482 24.947 21.7574 25.2766L26.2239 32.316L32.1741 28.5185L27.5439 21.221C27.3348 20.8914 27.4316 20.4542 27.7603 20.2444C28.0889 20.0346 28.5247 20.1318 28.7339 20.4614L33.7428 28.3558C33.8432 28.5141 33.8768 28.7059 33.8362 28.8891C33.7956 29.0722 33.6841 29.2317 33.5264 29.3324L26.3862 33.8893C26.2689 33.9643 26.1378 34 26.0083 34Z" fill="black"/>
<path d="M28.3877 32.4812C28.3366 32.4812 28.2853 32.4756 28.2348 32.4643C28.0522 32.4236 27.8931 32.3119 27.7927 32.1536L23.4546 25.3161C23.2455 24.9864 23.3423 24.5492 23.671 24.3395C23.9995 24.1297 24.4355 24.2268 24.6446 24.5564L28.604 30.7971L29.7937 30.0375L25.1825 22.7695C24.9734 22.4399 25.0702 22.0027 25.3989 21.7929C25.7274 21.5831 26.1634 21.6802 26.3725 22.0099L31.3623 29.8745C31.5714 30.2041 31.4746 30.6413 31.1461 30.8511L28.7665 32.3705C28.6524 32.4433 28.5208 32.4812 28.3877 32.4812Z" fill="black"/>
<path d="M7.84476 34C7.7152 34 7.58416 33.9643 7.4668 33.8893L0.326647 29.3324C0.168879 29.2317 0.0573753 29.0722 0.0168223 28.8891C-0.0238013 28.7059 0.00984003 28.5141 0.110271 28.3558L5.1191 20.4614C5.32821 20.1318 5.76414 20.0346 6.09273 20.2444C6.42138 20.4542 6.51821 20.8914 6.3091 21.221L1.67893 28.5185L7.62909 32.316L12.0956 25.2766C12.3047 24.9469 12.7407 24.8498 13.0693 25.0596C13.3979 25.2694 13.4948 25.7067 13.2856 26.0362L8.44043 33.6723C8.306 33.8841 8.07785 34 7.84476 34Z" fill="black"/>
<path d="M5.46528 32.4811C5.33212 32.4811 5.20059 32.4433 5.08655 32.3704L2.70697 30.851C2.37845 30.6412 2.28162 30.2041 2.49073 29.8745L7.48052 22.0098C7.68963 21.6803 8.12556 21.5831 8.45414 21.7929C8.7828 22.0026 8.87963 22.4399 8.67052 22.7695L4.05925 30.0374L5.24897 30.7971L9.20836 24.5564C9.41747 24.2269 9.85333 24.1296 10.182 24.3394C10.5106 24.5492 10.6075 24.9864 10.3984 25.316L6.06025 32.1535C5.95982 32.3118 5.80078 32.4235 5.61818 32.4643C5.56761 32.4756 5.51634 32.4811 5.46528 32.4811Z" fill="black"/>
</svg>
