<svg xmlns="http://www.w3.org/2000/svg" width="442" height="257" fill="none"><g clip-path="url(#a)"><g opacity=".1"><path fill="#2F706E" d="M324.973 253.21c4.718 0 8.542-5.012 8.542-11.195 0-6.182-3.824-11.194-8.542-11.194s-8.542 5.012-8.542 11.194c0 6.183 3.824 11.195 8.542 11.195Z"/><path fill="#2F706E" d="M331.732 194.125a13.498 13.498 0 0 0 1.799-6.842c0-6.195-3.825-11.194-8.543-11.194-4.718 0-8.538 5.011-8.538 11.194a13.494 13.494 0 0 0 1.783 6.842 14.012 14.012 0 0 0 0 13.68 14.023 14.023 0 0 0 0 13.684 13.496 13.496 0 0 0-1.783 6.842c0 6.195 3.824 11.194 8.538 11.194s8.543-5.01 8.543-11.194a13.506 13.506 0 0 0-1.783-6.842 14.022 14.022 0 0 0 0-13.684 14.007 14.007 0 0 0 0-13.68h-.016Z"/><path fill="#2F706E" d="M324.973 184.798c4.718 0 8.542-5.012 8.542-11.194 0-6.183-3.824-11.194-8.542-11.194s-8.542 5.011-8.542 11.194c0 6.182 3.824 11.194 8.542 11.194Z"/><path fill="#2F706E" d="M324.973 171.114c4.718 0 8.542-5.012 8.542-11.194 0-6.183-3.824-11.194-8.542-11.194s-8.542 5.011-8.542 11.194c0 6.182 3.824 11.194 8.542 11.194Z"/><path fill="#47BAB8" d="M356.945 66.286a41.211 41.211 0 0 0 3.179-4.69l-22.429-3.69 24.273.183a41.09 41.09 0 0 0 .774-32.456l-32.568 16.905 30.039-22.093A40.95 40.95 0 0 0 349.094 8.01a40.863 40.863 0 0 0-47.228-.944 40.942 40.942 0 0 0-11.606 11.98 40.997 40.997 0 0 0-5.032 32.288 40.99 40.99 0 0 0 7.409 14.95 41.011 41.011 0 0 0-4.664 7.47l29.13 15.155-31.06-10.454a41.022 41.022 0 0 0-1.581 20.066 41 41 0 0 0 8.155 18.399 41.013 41.013 0 0 0-4.644 43.221 40.94 40.94 0 0 0 15.092 16.824 40.866 40.866 0 0 0 43.413 0 40.94 40.94 0 0 0 15.092-16.824 41.013 41.013 0 0 0-4.644-43.221 40.997 40.997 0 0 0 8.755-25.326 40.995 40.995 0 0 0-8.755-25.325l.019.016Z"/><path fill="#202636" d="M283.882 91.613a40.81 40.81 0 0 0 8.755 25.323 41.004 41.004 0 0 0-4.644 43.221 40.944 40.944 0 0 0 15.091 16.824 40.87 40.87 0 0 0 43.414 0 40.944 40.944 0 0 0 15.091-16.824 40.995 40.995 0 0 0-4.644-43.221c5.484-6.969-73.063-29.923-73.063-25.323Z" opacity=".1"/></g><g opacity=".1"><path fill="#2F706E" d="M85.388 241.237c2.87 0 5.197-3.052 5.197-6.815 0-3.764-2.327-6.815-5.197-6.815s-5.198 3.051-5.198 6.815c0 3.763 2.327 6.815 5.198 6.815Z"/><path fill="#2F706E" d="M89.521 205.269a8.226 8.226 0 0 0 1.087-4.166c0-3.764-2.32-6.815-5.201-6.815s-5.197 3.051-5.197 6.815a8.229 8.229 0 0 0 1.082 4.166 8.553 8.553 0 0 0 0 8.329 8.552 8.552 0 0 0 0 8.329 8.2 8.2 0 0 0-1.082 4.162c0 3.768 2.32 6.819 5.197 6.819 2.877 0 5.2-3.051 5.2-6.819a8.202 8.202 0 0 0-1.086-4.162 8.527 8.527 0 0 0 0-8.329 8.526 8.526 0 0 0 0-8.329Z"/><path fill="#2F706E" d="M85.388 199.589c2.87 0 5.197-3.051 5.197-6.815 0-3.763-2.327-6.815-5.197-6.815s-5.198 3.052-5.198 6.815c0 3.764 2.327 6.815 5.198 6.815Z"/><path fill="#2F706E" d="M85.388 191.26c2.87 0 5.197-3.051 5.197-6.815 0-3.764-2.327-6.815-5.197-6.815s-5.198 3.051-5.198 6.815c0 3.764 2.327 6.815 5.198 6.815Z"/><path fill="#47BAB8" d="M65.933 127.441a24.799 24.799 0 0 1-1.934-2.854l13.662-2.246-14.776.113a25.032 25.032 0 0 1-.475-19.748l19.81 10.304-18.279-13.475a24.925 24.925 0 0 1 6.77-7.563 24.887 24.887 0 0 1 19.36-4.434 24.886 24.886 0 0 1 9.38 3.865 24.924 24.924 0 0 1 7.063 7.29 24.96 24.96 0 0 1-1.439 28.748 24.9 24.9 0 0 1 2.838 4.542l-17.734 9.231 18.909-6.354a24.969 24.969 0 0 1-4.013 23.418 24.959 24.959 0 0 1 2.825 26.31 24.921 24.921 0 0 1-9.186 10.242 24.879 24.879 0 0 1-26.428 0 24.922 24.922 0 0 1-9.187-10.242 24.961 24.961 0 0 1 2.826-26.31 24.964 24.964 0 0 1 0-30.837h.008Z"/><path fill="#202636" d="M110.403 142.859a24.858 24.858 0 0 1-5.329 15.419 24.955 24.955 0 0 1 2.826 26.31 24.926 24.926 0 0 1-9.187 10.242 24.879 24.879 0 0 1-26.428 0 24.922 24.922 0 0 1-9.186-10.242 24.961 24.961 0 0 1 2.825-26.31c-3.337-4.225 44.479-18.218 44.479-15.419Z" opacity=".1"/></g><g opacity=".1"><path fill="#2F706E" d="M202.558 247.169c3.842 0 6.957-4.083 6.957-9.119s-3.115-9.118-6.957-9.118c-3.842 0-6.956 4.082-6.956 9.118 0 5.036 3.114 9.119 6.956 9.119Z"/><path fill="#2F706E" d="M208.065 199.035a11.014 11.014 0 0 0 1.45-5.575c0-5.034-3.094-9.119-6.961-9.119-3.867 0-6.961 4.085-6.961 9.119-.02 1.955.482 3.88 1.454 5.575a11.413 11.413 0 0 0 0 11.148 11.406 11.406 0 0 0 0 11.144 10.982 10.982 0 0 0-1.454 5.575c0 5.034 3.117 9.119 6.961 9.119 3.844 0 6.961-4.085 6.961-9.119a11.014 11.014 0 0 0-1.45-5.575 11.428 11.428 0 0 0 0-11.144 11.432 11.432 0 0 0 0-11.148Z"/><path fill="#2F706E" d="M202.558 191.435c3.842 0 6.957-4.083 6.957-9.119s-3.115-9.119-6.957-9.119c-3.842 0-6.956 4.083-6.956 9.119s3.114 9.119 6.956 9.119Z"/><path fill="#2F706E" d="M202.558 180.287c3.842 0 6.957-4.083 6.957-9.119s-3.115-9.119-6.957-9.119c-3.842 0-6.956 4.083-6.956 9.119s3.114 9.119 6.956 9.119Z"/><path fill="#47BAB8" d="M176.529 94.889a33.208 33.208 0 0 1-2.591-3.818l18.28-3.005-19.769.147a33.49 33.49 0 0 1-.638-26.442l26.528 13.777-24.467-18.005a33.37 33.37 0 0 1 9.049-10.172 33.313 33.313 0 0 1 25.957-5.99 33.304 33.304 0 0 1 12.582 5.18 33.347 33.347 0 0 1 9.467 9.784 33.4 33.4 0 0 1-2.023 38.544 33.436 33.436 0 0 1 3.797 6.087l-23.728 12.344 25.302-8.519a33.419 33.419 0 0 1-5.371 31.337 33.395 33.395 0 0 1 3.781 35.208 33.35 33.35 0 0 1-12.293 13.705 33.292 33.292 0 0 1-35.366 0 33.36 33.36 0 0 1-12.294-13.705 33.407 33.407 0 0 1 3.782-35.208 33.406 33.406 0 0 1-7.131-20.633 33.404 33.404 0 0 1 7.131-20.632l.015.016Z"/><path fill="#202636" d="M236.035 115.523a33.253 33.253 0 0 1-7.131 20.63 33.402 33.402 0 0 1 3.781 35.209 33.35 33.35 0 0 1-12.293 13.705 33.3 33.3 0 0 1-35.366 0 33.36 33.36 0 0 1-12.294-13.705 33.41 33.41 0 0 1 3.782-35.209c-4.467-5.676 59.521-24.378 59.521-20.63Z" opacity=".1"/></g><path fill="#2F706E" d="M442 246.348c0 2.66-19.42 5.092-51.528 6.97-5.839.337-12.096.658-18.732.96-5.734.258-11.743.502-18.028.732-6.089.217-12.412.418-18.968.604-20.704.592-43.593 1.018-67.908 1.231-5.902.054-11.881.096-17.94.124-6.311.028-12.694.041-19.149.039-117.225 0-212.249-4.767-212.249-10.648 0-5.882 95.024-10.649 212.249-10.649 50.468 0 96.815.887 133.242 2.358l3.983.163h.023c45.886 1.948 75.005 4.879 75.005 8.116Z"/><path fill="#202636" d="M442 246.348c0 2.66-19.42 5.092-51.528 6.97-5.839.337-12.096.658-18.732.96-5.734.258-11.743.502-18.028.732-6.089.217-12.412.418-18.968.604-20.704.592-43.593 1.018-67.908 1.231-5.902.054-11.881.096-17.94.124-6.311.028-12.694.041-19.149.039-117.225 0-212.249-4.767-212.249-10.648 0-5.882 95.024-10.649 212.249-10.649 50.468 0 96.815.887 133.242 2.358l3.983.163h.023c45.886 1.948 75.005 4.879 75.005 8.116Z" opacity=".15"/><path fill="#2F706E" d="M424.502 244.474c0 2.223-19.42 4.259-51.528 5.808-5.836.283-12.096.55-18.728.802-5.736.216-11.746.42-18.028.611-6.09.181-12.412.35-18.968.508-20.708.495-43.597.851-67.913 1.03a5122.173 5122.173 0 0 1-37.084.135C95.028 253.368 0 249.384 0 244.462c0-4.921 95.028-8.905 212.253-8.905 50.464 0 96.811.739 133.238 1.971l3.983.135h.027c45.901 1.653 75.001 4.089 75.001 6.811ZM54.819 163.575l-5.329-16.336 127.612-1.398 5.228 16.173-127.511 1.561Z"/><path fill="#202636" d="m54.819 163.575-5.329-16.336 127.612-1.398 5.228 16.173-127.511 1.561Z" opacity=".15"/><path fill="#2F706E" d="m46.311 163.575-5.329-16.336 127.612-1.398 5.228 16.173-127.51 1.561ZM264.16 138.473c-13.195 0-23.593-5.244-31.196-15.732-7.602-10.489-11.403-23.194-11.403-38.117 0-15.024 3.676-27.703 11.028-38.04 7.353-10.335 17.724-15.498 31.114-15.487 14.2 0 24.899 5.445 32.097 16.336 7.197 10.89 10.798 23.495 10.8 37.814 0 14.216-3.725 26.643-11.176 37.281-7.45 10.637-17.872 15.952-31.264 15.945Zm.386-11.798c8.68 0 15.168-3.789 19.463-11.365 4.295-7.576 6.442-17.127 6.442-28.653 0-12.83-2.197-23.334-6.593-31.515-4.395-8.18-11.137-12.272-20.224-12.274-17.273 0-25.909 13.738-25.909 41.214 0 28.398 8.938 42.595 26.814 42.593h.007Zm4.347 112.982h-19.084L374.745 33.199h18.724L268.893 239.657Zm110.527 2.118c-13.393 0-23.834-5.292-31.323-15.875-7.489-10.584-11.249-23.291-11.28-38.121 0-14.922 3.65-27.552 10.951-37.888 7.301-10.335 17.698-15.498 31.192-15.488 14.099 0 24.723 5.446 31.872 16.336 7.148 10.891 10.724 23.495 10.727 37.811 0 14.123-3.701 26.526-11.102 37.21-7.402 10.685-17.75 16.023-31.045 16.015h.008Zm.224-12.1c8.639 0 15.092-3.724 19.358-11.171 4.267-7.447 6.4-16.959 6.4-28.537 0-12.39-2.159-22.782-6.477-31.174-4.318-8.392-11.045-12.594-20.182-12.607-17.373 0-26.06 13.738-26.06 41.214-.005 28.186 8.98 42.278 26.953 42.275h.008Z"/><path fill="#2F706E" d="M264.16 138.473c-13.195 0-23.593-5.244-31.196-15.732-7.602-10.489-11.403-23.194-11.403-38.117 0-15.024 3.676-27.703 11.028-38.04 7.353-10.335 17.724-15.498 31.114-15.487 14.2 0 24.899 5.445 32.097 16.336 7.197 10.89 10.798 23.495 10.8 37.814 0 14.216-3.725 26.643-11.176 37.281-7.45 10.637-17.872 15.952-31.264 15.945Zm.386-11.798c8.68 0 15.168-3.789 19.463-11.365 4.295-7.576 6.442-17.127 6.442-28.653 0-12.83-2.197-23.334-6.593-31.515-4.395-8.18-11.137-12.272-20.224-12.274-17.273 0-25.909 13.738-25.909 41.214 0 28.398 8.938 42.595 26.814 42.593h.007Zm4.347 112.982h-19.084L374.745 33.199h18.724L268.893 239.657Zm110.527 2.118c-13.393 0-23.834-5.292-31.323-15.875-7.489-10.584-11.249-23.291-11.28-38.121 0-14.922 3.65-27.552 10.951-37.888 7.301-10.335 17.698-15.498 31.192-15.488 14.099 0 24.723 5.446 31.872 16.336 7.148 10.891 10.724 23.495 10.727 37.811 0 14.123-3.701 26.526-11.102 37.21-7.402 10.685-17.75 16.023-31.045 16.015h.008Zm.224-12.1c8.639 0 15.092-3.724 19.358-11.171 4.267-7.447 6.4-16.959 6.4-28.537 0-12.39-2.159-22.782-6.477-31.174-4.318-8.392-11.045-12.594-20.182-12.607-17.373 0-26.06 13.738-26.06 41.214-.005 28.186 8.98 42.278 26.953 42.275h.008Z"/><path fill="#202636" d="M264.16 138.473c-13.195 0-23.593-5.244-31.196-15.732-7.602-10.489-11.403-23.194-11.403-38.117 0-15.024 3.676-27.703 11.028-38.04 7.353-10.335 17.724-15.498 31.114-15.487 14.2 0 24.899 5.445 32.097 16.336 7.197 10.89 10.798 23.495 10.8 37.814 0 14.216-3.725 26.643-11.176 37.281-7.45 10.637-17.872 15.952-31.264 15.945Zm.386-11.798c8.68 0 15.168-3.789 19.463-11.365 4.295-7.576 6.442-17.127 6.442-28.653 0-12.83-2.197-23.334-6.593-31.515-4.395-8.18-11.137-12.272-20.224-12.274-17.273 0-25.909 13.738-25.909 41.214 0 28.398 8.938 42.595 26.814 42.593h.007Zm4.347 112.982h-19.084L374.745 33.199h18.724L268.893 239.657Zm110.527 2.118c-13.393 0-23.834-5.292-31.323-15.875-7.489-10.584-11.249-23.291-11.28-38.121 0-14.922 3.65-27.552 10.951-37.888 7.301-10.335 17.698-15.498 31.192-15.488 14.099 0 24.723 5.446 31.872 16.336 7.148 10.891 10.724 23.495 10.727 37.811 0 14.123-3.701 26.526-11.102 37.21-7.402 10.685-17.75 16.023-31.045 16.015h.008Zm.224-12.1c8.639 0 15.092-3.724 19.358-11.171 4.267-7.447 6.4-16.959 6.4-28.537 0-12.39-2.159-22.782-6.477-31.174-4.318-8.392-11.045-12.594-20.182-12.607-17.373 0-26.06 13.738-26.06 41.214-.005 28.186 8.98 42.278 26.953 42.275h.008Z" opacity=".15"/><path fill="#2F706E" d="M252.172 138.473c-13.194 0-23.592-5.244-31.195-15.732-7.602-10.489-11.404-23.194-11.404-38.117 0-15.024 3.676-27.703 11.029-38.04 7.352-10.335 17.724-15.498 31.114-15.487 14.2 0 24.898 5.445 32.096 16.336 7.198 10.89 10.798 23.495 10.801 37.814 0 14.216-3.725 26.643-11.176 37.281-7.45 10.637-17.872 15.952-31.265 15.945Zm.387-11.798c8.68 0 15.168-3.789 19.463-11.365 4.295-7.576 6.442-17.127 6.442-28.653 0-12.83-2.198-23.334-6.593-31.515-4.396-8.18-11.137-12.272-20.225-12.274-17.272 0-25.909 13.738-25.909 41.214 0 28.398 8.938 42.595 26.814 42.593h.008Zm4.347 112.982h-19.084L362.757 33.199h18.724L256.906 239.657Zm110.527 2.118c-13.393 0-23.834-5.292-31.323-15.875-7.489-10.584-11.249-23.291-11.28-38.121 0-14.922 3.65-27.552 10.951-37.888 7.301-10.335 17.698-15.498 31.191-15.488 14.1 0 24.724 5.446 31.872 16.336 7.149 10.891 10.725 23.495 10.727 37.811 0 14.123-3.7 26.526-11.102 37.21-7.401 10.685-17.749 16.023-31.044 16.015h.008Zm.224-12.1c8.639 0 15.092-3.724 19.358-11.171 4.267-7.447 6.4-16.959 6.4-28.537 0-12.39-2.159-22.782-6.477-31.174-4.318-8.392-11.048-12.594-20.19-12.607-17.373 0-26.06 13.738-26.06 41.214 0 28.186 8.987 42.278 26.961 42.275h.008Z"/><path stroke="#2F706E" stroke-miterlimit="10" stroke-width="4" d="M293.921 244.838c1.593-2.958-.217-6.583-2.298-9.223-2.08-2.641-4.617-5.383-4.563-8.747.078-4.829 5.198-7.682 9.281-10.246a45.259 45.259 0 0 0 8.345-6.714 12.25 12.25 0 0 0 2.564-3.438c.847-1.89.82-4.039.774-6.107a439.504 439.504 0 0 0-1.021-20.661"/><path fill="#47BAB8" d="M314.782 179.323a7.527 7.527 0 0 0-3.754-6.172l-1.686 3.337.05-4.042a7.522 7.522 0 0 0-9.206 4.674 7.536 7.536 0 0 0 2.013 8.126 7.517 7.517 0 0 0 11.512-1.682 7.542 7.542 0 0 0 1.071-4.241ZM301.364 230.333a7.523 7.523 0 0 1-3.662 3.449 7.51 7.51 0 0 1-5.014.368 7.526 7.526 0 0 1-5.519-7.714 7.53 7.53 0 0 1 6.4-6.998 7.508 7.508 0 0 1 4.934.965 7.531 7.531 0 0 1 3.225 3.862l-4.703 3.83 5.182-1.208a7.517 7.517 0 0 1-.843 3.446ZM297.648 215.693a7.516 7.516 0 0 1-5.419-1.955 7.544 7.544 0 0 1 .146-11.278 7.514 7.514 0 0 1 2.872-1.554l-.043 3.097 1.705-3.376a7.52 7.52 0 0 1 5.419 1.955 7.543 7.543 0 0 1 .498 10.646 7.523 7.523 0 0 1-5.213 2.453l.035.012ZM315.916 203.523a7.52 7.52 0 0 1-7.297-4.282 7.538 7.538 0 0 1-.273-5.831 7.531 7.531 0 0 1 6.866-4.946 7.448 7.448 0 0 1 4.029.957l-1.33 3.647 2.738-2.629a7.518 7.518 0 0 1 2.247 7.276 7.549 7.549 0 0 1-2.518 4.075 7.524 7.524 0 0 1-4.462 1.733Z"/><path fill="#202636" d="M313.77 181.332c-1.737.19-3.423.732-5.167.84-1.744.109-3.658-.309-4.76-1.668-.596-.728-.89-1.654-1.392-2.451a5.332 5.332 0 0 0-1.895-1.785 7.547 7.547 0 0 0 1.498 8.836 7.523 7.523 0 0 0 8.878 1.15 7.53 7.53 0 0 0 3.692-4.988c-.286.016-.568.035-.854.066ZM315.916 203.523a7.526 7.526 0 0 1-6.61-3.35 7.544 7.544 0 0 1-.548-7.399c.596.405 1.11.92 1.512 1.518.538.81.862 1.747 1.493 2.49 1.16 1.382 3.175 1.831 4.988 1.75 1.814-.081 3.569-.6 5.379-.774.252-.023.507-.039.774-.047a7.54 7.54 0 0 1-2.52 4.08 7.525 7.525 0 0 1-4.468 1.732ZM297.648 215.693a7.535 7.535 0 0 1-5.419-1.955 7.548 7.548 0 0 1-2.45-5.22 7.464 7.464 0 0 1 .649-3.435c.621.414 1.16.939 1.59 1.549.584.825.951 1.778 1.635 2.54 1.269 1.414 3.403 1.913 5.325 1.867 1.922-.047 3.659-.496 5.511-.639a7.536 7.536 0 0 1-6.841 5.293ZM301.364 230.333a7.526 7.526 0 0 1-4.2 3.688 7.515 7.515 0 0 1-5.581-.227 7.533 7.533 0 0 1-3.888-4.017 7.543 7.543 0 0 1-.051-5.592 7.578 7.578 0 0 1 1.651 1.475c.715.875 1.187 1.866 2.015 2.679 1.547 1.51 4.021 2.134 6.233 2.192 1.277.01 2.552-.056 3.821-.198Z" opacity=".1"/><path stroke="#2F706E" stroke-miterlimit="10" stroke-width="4" d="M410.318 244.451c1.593-2.959-.217-6.583-2.297-9.224-2.08-2.64-4.617-5.382-4.563-8.747.077-4.828 5.197-7.682 9.281-10.245a45.334 45.334 0 0 0 8.345-6.714 12.274 12.274 0 0 0 2.564-3.439c.846-1.889.819-4.038.773-6.106a438.156 438.156 0 0 0-1.021-20.661"/><path fill="#47BAB8" d="M431.18 178.936a7.528 7.528 0 0 0-3.755-6.172l-1.686 3.337.05-4.042a7.511 7.511 0 0 0-6.595 1.166 7.535 7.535 0 0 0-2.835 7.877 7.527 7.527 0 0 0 10.505 5.005 7.538 7.538 0 0 0 4.316-7.171ZM417.762 229.946a7.523 7.523 0 0 1-8.677 3.817 7.538 7.538 0 0 1-3.558-12.35 7.517 7.517 0 0 1 12.598 2.465l-4.702 3.83 5.182-1.208a7.53 7.53 0 0 1-.843 3.446ZM414.046 215.306a7.51 7.51 0 0 1-5.419-1.956 7.525 7.525 0 0 1-2.451-5.219 7.462 7.462 0 0 1 .65-3.435 7.55 7.55 0 0 1 4.818-4.178l-.042 3.098 1.705-3.376h.019a7.518 7.518 0 0 1 7.163 4.321 7.55 7.55 0 0 1-1.246 8.279 7.534 7.534 0 0 1-5.213 2.454l.016.012ZM432.313 203.136a7.53 7.53 0 0 1-8.02-7.17 7.55 7.55 0 0 1 4.418-7.222 7.52 7.52 0 0 1 2.898-.667 7.449 7.449 0 0 1 4.03.957l-1.331 3.647 2.738-2.629a7.512 7.512 0 0 1 2.247 7.276 7.537 7.537 0 0 1-6.98 5.808Z"/><path fill="#202636" d="M430.167 180.945c-1.736.19-3.422.732-5.166.84-1.744.109-3.659-.31-4.761-1.669-.595-.728-.889-1.653-1.392-2.451a5.35 5.35 0 0 0-1.895-1.785 7.543 7.543 0 0 0 4.197 10.506 7.507 7.507 0 0 0 6.179-.519 7.545 7.545 0 0 0 3.693-4.988 16.31 16.31 0 0 0-.855.066ZM432.313 203.136a7.53 7.53 0 0 1-7.855-6.978 7.541 7.541 0 0 1 .698-3.771c.596.405 1.109.92 1.512 1.518.537.809.862 1.746 1.492 2.49 1.16 1.382 3.175 1.831 4.989 1.75 1.813-.081 3.569-.6 5.379-.774a11.8 11.8 0 0 1 .773-.047 7.54 7.54 0 0 1-2.52 4.08 7.525 7.525 0 0 1-4.468 1.732ZM414.046 215.306a7.51 7.51 0 0 1-5.419-1.956 7.525 7.525 0 0 1-2.451-5.219 7.462 7.462 0 0 1 .65-3.435c.62.414 1.159.939 1.589 1.549.584.825.951 1.777 1.636 2.54 1.268 1.413 3.403 1.913 5.325 1.867 1.864-.039 3.658-.496 5.51-.639a7.536 7.536 0 0 1-6.84 5.293ZM417.761 229.946a7.524 7.524 0 0 1-9.781 3.46 7.532 7.532 0 0 1-3.887-4.016 7.546 7.546 0 0 1-.052-5.593c.62.408 1.176.905 1.651 1.475.716.875 1.188 1.866 2.015 2.68 1.547 1.51 4.022 2.133 6.234 2.191a31.862 31.862 0 0 0 3.82-.197Z" opacity=".1"/><path stroke="#2F706E" stroke-miterlimit="10" stroke-width="4" d="M42.51 239.417c-1.593-2.958.217-6.583 2.297-9.223 2.08-2.641 4.618-5.382 4.563-8.747-.077-4.829-5.197-7.682-9.28-10.246a45.238 45.238 0 0 1-8.345-6.714 12.26 12.26 0 0 1-2.564-3.438c-.847-1.89-.82-4.039-.774-6.106a438.4 438.4 0 0 1 1.021-20.662"/><path fill="#47BAB8" d="M21.648 173.902a7.53 7.53 0 0 1 3.755-6.172l1.686 3.338-.05-4.043a7.52 7.52 0 0 1 9.206 4.674 7.545 7.545 0 0 1-2.014 8.126 7.517 7.517 0 0 1-11.512-1.682 7.544 7.544 0 0 1-1.071-4.241ZM35.066 224.912a7.527 7.527 0 0 0 3.662 3.449 7.51 7.51 0 0 0 9.14-2.509 7.54 7.54 0 0 0-.568-9.473 7.516 7.516 0 0 0-12.598 2.466l4.703 3.829-5.182-1.208c.002 1.2.29 2.381.843 3.446ZM38.783 210.272a7.518 7.518 0 0 0 7.163-4.321c.42-.895.66-1.865.706-2.854a7.458 7.458 0 0 0-.65-3.434 7.533 7.533 0 0 0-4.818-4.178l.043 3.097-1.706-3.376a7.52 7.52 0 0 0-5.419 1.956 7.538 7.538 0 0 0 4.715 13.099l-.034.011ZM20.514 198.102a7.528 7.528 0 0 0 8.02-7.17 7.547 7.547 0 0 0-2.004-5.482 7.52 7.52 0 0 0-5.312-2.406 7.445 7.445 0 0 0-4.01.956l1.33 3.648-2.757-2.618a7.515 7.515 0 0 0-2.44 5.189c-.034.697.03 1.396.193 2.075a7.537 7.537 0 0 0 6.98 5.808Z"/><path fill="#202636" d="M22.66 175.911c1.737.19 3.423.732 5.167.841 1.744.108 3.658-.31 4.76-1.669.595-.728.89-1.654 1.392-2.451a5.33 5.33 0 0 1 1.895-1.785 7.54 7.54 0 0 1-4.197 10.505 7.524 7.524 0 0 1-6.179-.519 7.528 7.528 0 0 1-3.692-4.987c.286.015.568.034.854.065ZM20.514 198.102a7.516 7.516 0 0 0 3.745-.805 7.54 7.54 0 0 0 4.11-6.172 7.546 7.546 0 0 0-.697-3.771 5.63 5.63 0 0 0-1.512 1.517c-.538.81-.862 1.747-1.493 2.49-1.16 1.382-3.175 1.832-4.988 1.75-1.814-.081-3.57-.6-5.38-.774a12.581 12.581 0 0 0-.773-.047 7.538 7.538 0 0 0 6.988 5.812ZM38.782 210.272a7.513 7.513 0 0 0 5.419-1.955 7.54 7.54 0 0 0 2.45-5.22 7.456 7.456 0 0 0-.65-3.434c-.62.414-1.158.939-1.588 1.548-.584.825-.952 1.778-1.636 2.54-1.269 1.414-3.403 1.913-5.325 1.867-1.864-.039-3.658-.496-5.51-.639a7.525 7.525 0 0 0 6.84 5.293ZM35.066 224.912a7.516 7.516 0 0 0 9.781 3.461 7.533 7.533 0 0 0 3.888-4.016 7.545 7.545 0 0 0 .052-5.593 7.575 7.575 0 0 0-1.652 1.475c-.715.875-1.187 1.866-2.014 2.679-1.547 1.51-4.022 2.134-6.234 2.192a32.083 32.083 0 0 1-3.82-.198Z" opacity=".1"/><path fill="url(#b)" d="M260.444 203.132a6.022 6.022 0 0 0-2.39-4.848c-.093-3.551-2.622-6.451-5.874-6.9a7.022 7.022 0 0 0-4.671-5.235 5.94 5.94 0 0 0-.87-.205h-.085l-.151-.02h-.797c-3.318 0-6.079 2.54-6.647 5.89-2.146-.496-4.115.147-4.467 1.506-.091.36-.07.739.058 1.088.364 1.053 1.547 2.06 3.152 2.559l.209.062c.104.031.209.055.313.078h.07a5.427 5.427 0 0 0 2.362 7.09 1.21 1.21 0 0 0-.139.089 1.936 1.936 0 0 0-.464.65 9.424 9.424 0 0 0-.897 2.165c-.155.646-.182 1.324-.387 1.963-.352 1.161-1.257 2.18-1.361 3.415-.046.55.043 1.196-.348 1.572-.097.084-.201.16-.309.228a2.4 2.4 0 0 0-.681.713 2.294 2.294 0 0 1-.452.627c-.352.267-.932.24-1.106.651-.174.41.274.894.17 1.343-.085.364-.484.531-.774.775a2.743 2.743 0 0 0-.657 1.25 3.99 3.99 0 0 1-3.299-.84c.156.399.27.813.341 1.235-.46-.491-1.218-.635-1.779-.89a5.68 5.68 0 0 1-1.895-1.41l1.013-.139-4.485-6.815-1.323-.271 1.187 2.281a.709.709 0 0 0-.387.488 2.1 2.1 0 0 0-.046.774c.063.611.165 1.218.306 1.816l.344 1.603c.029.15.066.299.112.445a4.517 4.517 0 0 0-1.33.151 11.678 11.678 0 0 0-2.758-.654 1.391 1.391 0 0 0-.622.031c-.23.106-.43.269-.58.472a18.61 18.61 0 0 0-2.05 2.889c-2.409 4.197-5.626 7.86-8.639 11.655-2.08.848-4.176 1.653-6.276 2.451l-4.513 1.723c-.901.344-1.836.697-2.795.635-.434-.027-.959-.093-1.203.275a2.32 2.32 0 0 0-.275.588c-.158 0-.317.039-.464.047h-.027c-.286-.713-.533-1.476-1.083-1.994a.676.676 0 0 0-.51.387c-.108.201-.174.422-.298.608-.243.356-.665.53-.967.832-.301.302-.491.775-.815 1.069a3.236 3.236 0 0 1-1.547.6 9.759 9.759 0 0 0-2.402.914 4.095 4.095 0 0 1-.889.41 3.33 3.33 0 0 1-1.04.035l-2.39-.174a1.848 1.848 0 0 0-.638.027 1.189 1.189 0 0 0-.774 1.227 1.917 1.917 0 0 0 .754 1.317c.415.305.874.543 1.362.709a39.555 39.555 0 0 0 6.4 1.878v.484a10.85 10.85 0 0 0 4.876 1.161.72.72 0 0 0 .363-.066.803.803 0 0 0 .306-.48 19.75 19.75 0 0 0 .955-4.689c.299-.019.591-.094.862-.221.824-.224 1.64.341 2.487.434 1.044.112 2.015-.496 3.001-.871a9.06 9.06 0 0 1 .429-.147 4.805 4.805 0 0 1-.986.956c-.41.294-.87.511-1.272.817a8.545 8.545 0 0 1-1.072.833c-.267.124-.542.23-.823.317a5.537 5.537 0 0 0-1.16.585 2.412 2.412 0 0 0-.805.774 1.058 1.058 0 0 0 .72 1.65c.323.057.652.066.978.027 1.291-.097 2.579-.217 3.867-.333a10.79 10.79 0 0 0 1.62-.233c.282-.069.561-.162.843-.236a6.802 6.802 0 0 1 1.474-.22 1.22 1.22 0 0 1 .429.042c.301.097.514.387.82.465a1.28 1.28 0 0 0 .584-.081 13.363 13.363 0 0 1 2.869-.306c.421-.024.916-.105 1.114-.496.239-.484-.163-1.026-.321-1.549a4.682 4.682 0 0 1-.132-1.014 6.328 6.328 0 0 0-.711-2.413 6.502 6.502 0 0 1-.53-1.099 27.888 27.888 0 0 0 5.274-2.68c.952-.592 1.934-1.231 3.009-1.448 1.253-.252 2.544.081 3.778.438a84.65 84.65 0 0 1 8.658 3.024c1.354.553 2.707 1.142 4.092 1.549a6.373 6.373 0 0 0 1.45 1.417c.928.6 2.061.774 3.151.859 1.473.135 2.953.191 4.432.167 1.129-.02 2.293-.097 3.302-.612.247-.127.479-.28.693-.457.773.14 1.566-.275 2.173-.805a5.272 5.272 0 0 0 1.663-2.614c.355-1.398.081-3.028.939-4.17.228-.306.526-.554.751-.864.276-.414.411-.907.386-1.405l.039-.058a5.27 5.27 0 0 0 .387-1.41c.101-.379.231-.75.386-1.111a33.43 33.43 0 0 0 1.137-3.303c.224-.743.399-1.499.526-2.265.093-.612.147-1.227.197-1.843.062-.964.25-1.915.557-2.83a23.161 23.161 0 0 0 1.28-6.784v-.136a4.534 4.534 0 0 0 4.041-4.584 4.867 4.867 0 0 0-.417-1.979 6.147 6.147 0 0 0 .804-3.078Zm-21.868 26.605c.066.236.143.472.22.708-.355-.352-.707-.716-1.067-1.065.143.043.286.089.425.14.149.059.291.131.426.217h-.004Zm-1.733-1.162c-2.111-1.835-4.555-3.26-6.717-5.034 1.161.585 2.321 1.263 3.481 1.913a98.39 98.39 0 0 0 4.099 2.223 3.356 3.356 0 0 1-.851.883l-.012.015Zm.902-4.623.1-.105v.724c-.189-.062-.387-.124-.568-.193.167-.137.324-.284.471-.442l-.003.016Zm-18.589 4.971a17.543 17.543 0 0 0 2.254-3.217c.836 1.467 2.197 2.524 3.357 3.752-1.864-.263-3.732-.469-5.607-.55l-.004.015Z"/><path fill="#2F2E41" d="m222.172 211.074 1.334.271 4.544 6.722-2.007.271-3.871-7.264Z"/><path fill="#FBBEBE" d="M189.862 238.356c.36 1.191.803 2.356 1.327 3.485a32.31 32.31 0 0 0 4.431-1.266 11.974 11.974 0 0 0-.92-1.251 4.348 4.348 0 0 0-1.253-.964c-.46-.201-1.029-.05-1.52-.023-.688.025-1.376.032-2.065.019Z"/><path fill="#2F2E41" d="M193.456 240.153c-.75-.237-1.211-.996-1.516-1.727-.306-.732-.553-1.53-1.133-2.068a.676.676 0 0 0-.511.387c-.112.194-.178.414-.305.6-.24.349-.665.519-.971.817-.305.298-.495.751-.823 1.05a3.28 3.28 0 0 1-1.547.596 9.786 9.786 0 0 0-2.421.898 4.142 4.142 0 0 1-.897.387 3.382 3.382 0 0 1-1.048.035l-2.409-.174a1.872 1.872 0 0 0-.642.031 1.159 1.159 0 0 0-.774 1.208 1.878 1.878 0 0 0 .774 1.297c.419.3.88.535 1.369.697a41.136 41.136 0 0 0 6.458 1.847v.476a11.161 11.161 0 0 0 4.915 1.162.766.766 0 0 0 .386-.066.805.805 0 0 0 .31-.472 19.054 19.054 0 0 0 1.001-5.243 3.916 3.916 0 0 0-.1-1.347c-.132-.434.317-.252-.101-.422"/><path fill="#2F2E41" d="M239.643 231.061c-7.142.434-14.196-1.665-21.35-1.889a10.621 10.621 0 0 0-2.652.17c-.911.244-1.793.587-2.63 1.022-3.832 1.785-7.8 3.264-11.764 4.743l-4.547 1.696c-.913.337-1.852.682-2.823.624-.433-.027-.963-.093-1.21.271-.739 1.096-.387 2.71.1 3.942.159.387.426.832.851.879a2.52 2.52 0 0 0 .87-.221c.827-.221 1.655.337 2.506.426 1.055.112 2.034-.488 3.028-.856 1.647-.608 3.449-.588 5.181-.879 2.908-.484 5.6-1.835 8.121-3.376.959-.585 1.934-1.212 3.032-1.425 1.264-.248 2.568.077 3.809.43a87.514 87.514 0 0 1 8.728 2.977 40.007 40.007 0 0 0 4.563 1.665 16.47 16.47 0 0 0 10.224-.596c1.16-.453 2.382-1.251 2.448-2.486.039-.705-.506-1.324-.87-1.936-.236-.387-.468-.774-.723-1.142-1.23-1.797-2.722-4.171-4.892-4.039Z"/><path fill="#202636" d="M239.643 231.061c-7.142.434-14.196-1.665-21.35-1.889a10.621 10.621 0 0 0-2.652.17c-.911.244-1.793.587-2.63 1.022-3.832 1.785-7.8 3.264-11.764 4.743l-4.547 1.696c-.913.337-1.852.682-2.823.624-.433-.027-.963-.093-1.21.271-.739 1.096-.387 2.71.1 3.942.159.387.426.832.851.879a2.52 2.52 0 0 0 .87-.221c.827-.221 1.655.337 2.506.426 1.055.112 2.034-.488 3.028-.856 1.647-.608 3.449-.588 5.181-.879 2.908-.484 5.6-1.835 8.121-3.376.959-.585 1.934-1.212 3.032-1.425 1.264-.248 2.568.077 3.809.43a87.514 87.514 0 0 1 8.728 2.977 40.007 40.007 0 0 0 4.563 1.665 16.47 16.47 0 0 0 10.224-.596c1.16-.453 2.382-1.251 2.448-2.486.039-.705-.506-1.324-.87-1.936-.236-.387-.468-.774-.723-1.142-1.23-1.797-2.722-4.171-4.892-4.039Z" opacity=".1"/><path fill="#FBBEBE" d="M203.571 238.705c1.119.379 2.246.73 3.38 1.053.638-1.049 1.829-1.777 2.1-2.974a.287.287 0 0 0 0-.159.294.294 0 0 0-.128-.116 6.324 6.324 0 0 0-2.649-.774c-.734-.047-1.067.72-1.4 1.258-.116.217-1.005 1.812-1.303 1.712Z"/><path fill="#2F2E41" d="M205.145 237.938a2.434 2.434 0 0 1-1.643-1.081c-.159-.274-.325-.646-.642-.627-.317.02-.425.368-.491.658a18.872 18.872 0 0 1-.924 3.179 5.967 5.967 0 0 1-1.976 2.599c-.414.286-.874.503-1.28.805a8.54 8.54 0 0 1-1.083.821 6.11 6.11 0 0 1-.832.31 5.663 5.663 0 0 0-1.187.577 2.412 2.412 0 0 0-.808.774 1.157 1.157 0 0 0-.07 1.084 1.151 1.151 0 0 0 .774.546c.326.054.658.062.986.023 1.303-.096 2.602-.213 3.902-.329.55-.034 1.097-.109 1.635-.224.287-.07.565-.163.847-.237a7.144 7.144 0 0 1 1.489-.216c.146-.011.292.003.433.042.302.097.515.387.824.457a1.28 1.28 0 0 0 .588-.077c.951-.202 1.92-.303 2.892-.302.426-.024.928-.105 1.122-.488.243-.477-.159-1.011-.321-1.522a4.805 4.805 0 0 1-.136-.999 6.083 6.083 0 0 0-.715-2.374c-.333-.611-.773-1.285-.553-1.936.119-.203.194-.428.22-.662-.054-1.049-2.463-.662-3.051-.801Z"/><path fill="#FBBEBE" d="M228.935 219.592a5.604 5.604 0 0 1-2.846-2.831c-.116-.271-.217-.553-.329-.828a6.326 6.326 0 0 0-1.702-2.362.81.81 0 0 0-.63-.267.677.677 0 0 0-.464.495 2.046 2.046 0 0 0-.05.775c.066.601.169 1.197.309 1.785l.348 1.579c.044.243.117.48.217.705.149.265.345.5.58.693.317.295.638.577.963.852.179.162.375.305.584.426.343.163.71.27 1.086.318 1.419.263 2.862.642 4.057 1.548 0 0 0-1.057-.027-1.161a1.553 1.553 0 0 0-.302-.848c-.448-.484-1.222-.627-1.794-.879Z"/><path fill="#202636" d="M228.935 219.592a5.604 5.604 0 0 1-2.846-2.831c-.116-.271-.217-.553-.329-.828a6.326 6.326 0 0 0-1.702-2.362.81.81 0 0 0-.63-.267.677.677 0 0 0-.464.495 2.046 2.046 0 0 0-.05.775c.066.601.169 1.197.309 1.785l.348 1.579c.044.243.117.48.217.705.149.265.345.5.58.693.317.295.638.577.963.852.179.162.375.305.584.426.343.163.71.27 1.086.318 1.419.263 2.862.642 4.057 1.548 0 0 0-1.057-.027-1.161a1.553 1.553 0 0 0-.302-.848c-.448-.484-1.222-.627-1.794-.879Z" opacity=".1"/><path fill="#2F2E41" d="M243.476 207.511c.958 0 1.736-.783 1.736-1.75s-.778-1.75-1.736-1.75c-.959 0-1.737.783-1.737 1.75s.778 1.75 1.737 1.75Z"/><path fill="#2F2E41" d="M242.4 204.704a1.93 1.93 0 0 0-1.372.198 1.835 1.835 0 0 0-.468.642 9.131 9.131 0 0 0-.905 2.13c-.155.639-.182 1.305-.387 1.936-.356 1.162-1.268 2.149-1.373 3.361-.046.542.043 1.181-.352 1.549a2.292 2.292 0 0 1-.313.221 2.355 2.355 0 0 0-.684.704 2.213 2.213 0 0 1-.484.67c-.355.263-.939.236-1.113.643-.174.406.274.879.17 1.32-.085.36-.488.527-.774.775a2.676 2.676 0 0 0-.661 1.235 4.093 4.093 0 0 1-3.322-.833c.484 1.197.495 2.517.515 3.807.055.412-.055.83-.306 1.161 1.385.031 2.73.387 4.08.709a2.805 2.805 0 0 0 1.779 0c.308-.167.585-.387.816-.651.734-.747 1.504-1.549 1.682-2.59.047-.586.057-1.175.031-1.762.071-.725.22-1.44.444-2.133.389-1.439.648-2.91.774-4.395.081-.918.87-1.654 1.287-2.474.774-1.549 1.586-3.156 1.648-4.891.054-.565-.139-1.258-.712-1.332Z"/><path fill="#202636" d="M242.4 204.704a1.93 1.93 0 0 0-1.372.198 1.835 1.835 0 0 0-.468.642 9.131 9.131 0 0 0-.905 2.13c-.155.639-.182 1.305-.387 1.936-.356 1.162-1.268 2.149-1.373 3.361-.046.542.043 1.181-.352 1.549a2.292 2.292 0 0 1-.313.221 2.355 2.355 0 0 0-.684.704 2.213 2.213 0 0 1-.484.67c-.355.263-.939.236-1.113.643-.174.406.274.879.17 1.32-.085.36-.488.527-.774.775a2.676 2.676 0 0 0-.661 1.235 4.093 4.093 0 0 1-3.322-.833c.484 1.197.495 2.517.515 3.807.055.412-.055.83-.306 1.161 1.385.031 2.73.387 4.08.709a2.805 2.805 0 0 0 1.779 0c.308-.167.585-.387.816-.651.734-.747 1.504-1.549 1.682-2.59.047-.586.057-1.175.031-1.762.071-.725.22-1.44.444-2.133.389-1.439.648-2.91.774-4.395.081-.918.87-1.654 1.287-2.474.774-1.549 1.586-3.156 1.648-4.891.054-.565-.139-1.258-.712-1.332Z" opacity=".1"/><path fill="#2F2E41" d="M240.776 232.567c-1.489-.708-2.576-2.029-3.778-3.159-2.297-2.161-5.105-3.687-7.518-5.712-1.597-1.339-3.028-2.9-4.787-4.023a11.891 11.891 0 0 0-5.128-1.8 1.41 1.41 0 0 0-.626.031 1.497 1.497 0 0 0-.584.464 18.22 18.22 0 0 0-2.069 2.846c-3.059 5.197-7.401 9.568-11.002 14.404a.647.647 0 0 0-.042.876l.731 1.436c.41.802 1.067 1.739 1.933 1.58a2.146 2.146 0 0 0 1.025-.655l3.287-3.148 3.445-3.299c2.019-1.936 4.072-3.91 5.391-6.381 1.029 1.785 2.854 2.955 4.107 4.593.475.619.862 1.304 1.288 1.963.684 1.057 1.457 2.048 2.231 3.035l3.956 5.053a7.653 7.653 0 0 0 1.829 1.859c.936.592 2.076.751 3.179.848 1.484.136 2.975.19 4.466.163 1.137-.02 2.32-.093 3.326-.601 1.005-.507 1.86-1.548 1.806-2.683a3.99 3.99 0 0 0-.569-1.676c-1.396-2.595-3.244-4.763-5.897-6.014Z"/><path fill="#E8E8F0" d="M244.542 208.317c.737 0 1.334-.602 1.334-1.344 0-.742-.597-1.344-1.334-1.344-.737 0-1.334.602-1.334 1.344 0 .742.597 1.344 1.334 1.344Z"/><path fill="#FBBEBE" d="M244.248 205.962c.301.601.354 1.297.147 1.936a7.49 7.49 0 0 1-.858 1.782 8.878 8.878 0 0 1-1.118 1.595c2.061.101 4.06-.709 5.878-1.692 1.465-.775 2.927-1.762 3.708-3.237a1.711 1.711 0 0 1-1.365-.252 5.11 5.11 0 0 1-1.048-.976l-1.032-1.161a4.651 4.651 0 0 1-.638-.84 2.33 2.33 0 0 1-.275-1.352c-.411.431-.87.813-1.369 1.139-.738.484-1.547.832-2.293 1.308-.263.171-.847.446-.696.775.151.329.75.604.959.975Z"/><path fill="#202636" d="M244.248 205.962c.301.601.354 1.297.147 1.936a7.49 7.49 0 0 1-.858 1.782 8.878 8.878 0 0 1-1.118 1.595c2.061.101 4.06-.709 5.878-1.692 1.465-.775 2.927-1.762 3.708-3.237a1.711 1.711 0 0 1-1.365-.252 5.11 5.11 0 0 1-1.048-.976l-1.032-1.161a4.651 4.651 0 0 1-.638-.84 2.33 2.33 0 0 1-.275-1.352c-.411.431-.87.813-1.369 1.139-.738.484-1.547.832-2.293 1.308-.263.171-.847.446-.696.775.151.329.75.604.959.975Z" opacity=".1"/><path fill="#E8E8F0" d="M244.276 206.164a1.743 1.743 0 0 0 0 2.017c.058.074.278.534.386.538a.352.352 0 0 0 .236-.12c.467-.489.904-1.006 1.307-1.549a2.895 2.895 0 0 1 1.663-1.092c.808-.127 1.586.302 2.293.713.304.151.569.371.774.643.149.269.237.568.259.875.203 1.846.28 3.703.232 5.56a21.509 21.509 0 0 1-.263 4c-.132.681-.329 1.347-.422 2.037a13.762 13.762 0 0 0-.081 1.827v2.556c-.017.468.017.937.101 1.398.159.549.346 1.091.56 1.622.189.632.318 1.28.387 1.936l.348 2.645c.112.836.193 1.746-.313 2.416-.224.306-.526.546-.774.848-.87 1.107-.58 2.714-.966 4.089a5.184 5.184 0 0 1-1.679 2.575c-.614.522-1.411.937-2.208.774-1.071-.201-1.717-1.32-2.011-2.377-.293-1.058-.386-2.211-1.032-3.098-.518-.732-1.319-1.189-2.042-1.712-.723-.522-1.434-1.192-1.593-2.075-.07-.387-.027-.774-.066-1.162a2.763 2.763 0 0 0-1.709-2.245c-.549-.213-1.23-.291-1.547-.775a3.731 3.731 0 0 0 1.609-2.164c.24-.884.37-1.795.387-2.711l.185-3.074c.081-1.375.12-2.738.723-3.973.271-.55.607-1.069.886-1.615.373-.766.691-1.558.951-2.369.437-1.259.878-2.521 1.269-3.795.156-.617.39-1.211.696-1.769.359-.581.835-1.278 1.454-1.394Z"/><path fill="#2F2E41" d="m237.458 226.14.812.027.174-1.228a2.68 2.68 0 0 1 .17-.716c.135-.242.292-.472.468-.685.801-1.131.743-2.633.94-4.008.263-1.831 1.029-3.551 1.787-5.239l1.577-3.52c.141-.289.254-.591.337-.902.069-.343.101-.692.097-1.041 0-.542.177-2.521.189-3.067 0-.201-.441-.089-.534-.267-.197-.387-.468.666-.839.898-.35.268-.605.641-.727 1.065-.34.887-.549 1.82-.866 2.71a5.567 5.567 0 0 1-1.473 2.397c-.321.287-.696.511-1.002.813-.982.972-1.075 2.506-1.11 3.872-.023.848-.181 8.891 0 8.891ZM249.156 204.696c-.773.31-1.222 1.162-1.442 1.99-.221.829-.313 1.704-.739 2.44-.99 1.727-3.515 2.23-4.215 4.097a7.5 7.5 0 0 0-.282 1.936c-.124 1.335-.565 2.629-.696 3.965a17.546 17.546 0 0 0 .073 3.117l.886 10.543a13.963 13.963 0 0 1-.267 4.647 4.451 4.451 0 0 0 2.653-.438c.831-.387 1.589-.898 2.386-1.34 1.373-.774 2.888-1.297 4.087-2.323.218-.17.405-.375.553-.608.193-.443.323-.911.387-1.39.102-.373.231-.738.387-1.092a32.57 32.57 0 0 0 1.16-3.252c.225-.733.402-1.479.529-2.234.097-.601.147-1.209.202-1.813.061-.95.25-1.887.56-2.787a22.376 22.376 0 0 0 1.288-6.68 3.312 3.312 0 0 0-.066-.983 5.216 5.216 0 0 0-.533-1.115c-.368-.694-.588-1.456-.936-2.157-.774-1.588-2.162-2.792-3.612-3.803-.743-.491-1.558-1.026-2.363-.72Z"/><path fill="#FBBEBE" d="M230.694 221.9a6.358 6.358 0 0 1-1.682-1.278c-.22-.26-.386-.55-.626-.806a4.135 4.135 0 0 0-2.115-1.208 10.206 10.206 0 0 0-2.452-.236 4.339 4.339 0 0 0-1.628.198 1.644 1.644 0 0 0-1.083 1.161c-.12.659.31 1.297.824 1.716a3.98 3.98 0 0 0 1.643.801c.492.085.987.143 1.485.174 2.924.306 5.534 1.898 8.094 3.35a109.08 109.08 0 0 0 6.883 3.574 13.72 13.72 0 0 0 .116-2.115c0-.526-.038-1.332-.537-1.641-.58-.364-1.547-.446-2.189-.662a34.772 34.772 0 0 1-6.733-3.028ZM243.475 205.362c2.877 0 5.209-2.349 5.209-5.246 0-2.898-2.332-5.247-5.209-5.247-2.876 0-5.208 2.349-5.208 5.247 0 2.897 2.332 5.246 5.208 5.246Z"/><path fill="#2F2E41" d="M250.644 210.644a8.512 8.512 0 0 0-1.009 1.886c-.646 1.328-1.655 2.466-2.158 3.872-.533 1.459-.514 3.198-1.547 4.348a1.505 1.505 0 0 0-.452.658c-.006.16-.024.319-.054.477-.147.418-.832.437-.959.863-.035.124 0 .259-.062.387-.104.275-.464.314-.708.48-.506.345-.386 1.143-.773 1.638a1.376 1.376 0 0 1-1.299.457 4.824 4.824 0 0 1-1.354-.507 1.213 1.213 0 0 0-.483-.151.978.978 0 0 0-.561.19c-.963.611-1.415 1.827-1.408 2.973a9.685 9.685 0 0 0 .801 3.323c.054.181.145.35.267.495.317.337.874.283 1.299.093a6.05 6.05 0 0 1 1.265-.565c.804-.147 1.593.41 2.409.364a3.401 3.401 0 0 0 1.628-.72 9.017 9.017 0 0 0 2.196-1.878c.356-.469.619-1.003.932-1.503.4-.613.839-1.201 1.315-1.758l3.005-3.682c.301-.349.572-.723.808-1.119a8.196 8.196 0 0 0 .63-1.68c.322-.971.531-1.975.623-2.994a11.976 11.976 0 0 0-.221-2.513 8.763 8.763 0 0 0-.645-2.389c-.669-1.355-2.259-2.478-3.485-1.045Z"/><path fill="#F86D70" d="M261.108 203.809a5.875 5.875 0 0 0-2.413-4.774 6.97 6.97 0 0 0-5.92-6.795 6.774 6.774 0 0 0-6.816-5.433 6.763 6.763 0 0 0-4.312 1.707 6.785 6.785 0 0 0-2.202 4.086c-2.165-.488-4.145.147-4.505 1.483-.387 1.398 1.16 3.032 3.449 3.651a6.336 6.336 0 0 0 2.209.221 6.78 6.78 0 0 0 4.663 2.904 6.946 6.946 0 0 0 5.085 5.254 5.8 5.8 0 0 0 1.57 2.176c0 .163-.027.33-.027.5a4.432 4.432 0 0 0 1.224 3.243 4.413 4.413 0 0 0 4.916 1.006 4.419 4.419 0 0 0 2.677-4.249c0-.668-.144-1.329-.421-1.936a5.943 5.943 0 0 0 .823-3.044Z"/><path fill="#202636" d="M236.41 194.35c.36-1.336 2.321-1.971 4.505-1.483a6.893 6.893 0 0 1 2.293-4.129 6.876 6.876 0 0 1 4.409-1.679h.449a6.604 6.604 0 0 0-1.934-.287 6.873 6.873 0 0 0-4.409 1.68 6.891 6.891 0 0 0-2.292 4.129c-2.166-.488-4.146.147-4.506 1.483-.386 1.397 1.161 3.031 3.45 3.651.426.118.862.193 1.303.224-2.173-.635-3.635-2.222-3.268-3.589ZM253.36 209.06c0-.17 0-.337.027-.503a5.784 5.784 0 0 1-1.57-2.172 6.96 6.96 0 0 1-5.086-5.259 6.766 6.766 0 0 1-4.663-2.904 6.132 6.132 0 0 1-1.299-.034 6.757 6.757 0 0 0 4.493 2.671 6.938 6.938 0 0 0 5.085 5.255 5.816 5.816 0 0 0 1.57 2.176c0 .162-.027.329-.027.499a4.496 4.496 0 0 0 4.385 4.569 4.556 4.556 0 0 1-2.915-4.298Z" opacity=".1"/><path fill="#FBBEBE" d="M245.858 202.038c.354-.269.351-.87-.007-1.341-.358-.472-.935-.636-1.289-.367-.353.269-.35.869.008 1.341s.934.636 1.288.367Z"/><path fill="#47BAB8" d="m121.347 228.145 5.151-3.032a12.404 12.404 0 0 0-2.634-3.155l-9.714 3.024 7.61-4.48a12.357 12.357 0 0 0-12.252.208 12.4 12.4 0 0 0-6.066 10.661c0 6.842 5.542 7.078 12.375 7.078s12.374-.236 12.374-7.078a12.308 12.308 0 0 0-1.063-5.034l-5.781 1.808Z"/><path fill="#202636" d="M122.658 234.797a9.713 9.713 0 0 0-1.826-1.436c-.932-.623-1.902-1.258-3.004-1.468-.967-.185-1.965-.027-2.951-.085a6.885 6.885 0 0 1-4.52-2.075c-.704-.728-1.257-1.623-2.104-2.18a4.598 4.598 0 0 0-3.148-.577 7.62 7.62 0 0 0-.932.19 12.42 12.42 0 0 0-.731 4.205c0 6.842 5.542 7.078 12.375 7.078 3.318 0 6.326-.054 8.55-.895l-.387-.693a9.677 9.677 0 0 0-1.322-2.064Z" opacity=".1"/></g><defs><linearGradient id="b" x1="219.454" x2="219.454" y1="247.672" y2="185.858" gradientUnits="userSpaceOnUse"><stop stop-color="gray" stop-opacity=".25"/><stop offset=".54" stop-color="gray" stop-opacity=".12"/><stop offset="1" stop-color="gray" stop-opacity=".1"/></linearGradient><clipPath id="a"><path fill="#fff" d="M0 0h442v257H0z"/></clipPath></defs></svg>