<svg width="442" height="257" viewBox="0 0 442 257" fill="none" xmlns="http://www.w3.org/2000/svg">
<g clip-path="url(#clip0_284_633)">
<g opacity="0.1">
<path d="M324.973 253.21C329.691 253.21 333.515 248.198 333.515 242.015C333.515 235.833 329.691 230.821 324.973 230.821C320.255 230.821 316.431 235.833 316.431 242.015C316.431 248.198 320.255 253.21 324.973 253.21Z" fill="#2F706E"/>
<path d="M331.732 194.125C332.929 192.046 333.55 189.684 333.531 187.283C333.531 181.088 329.706 176.089 324.988 176.089C320.27 176.089 316.45 181.1 316.45 187.283C316.426 189.682 317.041 192.044 318.233 194.125C317.064 196.215 316.45 198.57 316.45 200.965C316.45 203.361 317.064 205.716 318.233 207.805C317.064 209.896 316.45 212.252 316.45 214.647C316.45 217.043 317.064 219.399 318.233 221.489C317.041 223.571 316.426 225.932 316.45 228.331C316.45 234.526 320.274 239.525 324.988 239.525C329.702 239.525 333.531 234.515 333.531 228.331C333.555 225.932 332.939 223.571 331.748 221.489C332.917 219.399 333.53 217.043 333.53 214.647C333.53 212.252 332.917 209.896 331.748 207.805C332.917 205.716 333.531 203.361 333.531 200.965C333.531 198.57 332.917 196.215 331.748 194.125H331.732Z" fill="#2F706E"/>
<path d="M324.973 184.798C329.691 184.798 333.515 179.786 333.515 173.604C333.515 167.421 329.691 162.41 324.973 162.41C320.255 162.41 316.431 167.421 316.431 173.604C316.431 179.786 320.255 184.798 324.973 184.798Z" fill="#2F706E"/>
<path d="M324.973 171.114C329.691 171.114 333.515 166.102 333.515 159.92C333.515 153.737 329.691 148.726 324.973 148.726C320.255 148.726 316.431 153.737 316.431 159.92C316.431 166.102 320.255 171.114 324.973 171.114Z" fill="#2F706E"/>
<path d="M356.945 66.2858C358.111 64.7977 359.173 63.2309 360.124 61.5968L337.695 57.9067L361.968 58.0887C364.295 53.0158 365.563 47.5212 365.696 41.9407C365.829 36.3602 364.824 30.8112 362.742 25.6331L330.174 42.5385L360.213 20.4445C357.398 15.58 353.613 11.3478 349.094 8.01125C344.574 4.67471 339.418 2.30529 333.945 1.05048C328.471 -0.204336 322.799 -0.317677 317.28 0.717511C311.761 1.7527 306.514 3.91425 301.866 7.06763C297.217 10.221 293.267 14.2987 290.26 19.0469C287.253 23.795 285.255 29.1121 284.389 34.667C283.524 40.2219 283.809 45.8958 285.228 51.3355C286.647 56.7752 289.169 61.8642 292.637 66.2858C290.819 68.6008 289.255 71.105 287.973 73.755L317.103 88.9102L286.043 78.4557C283.858 84.9088 283.314 91.8059 284.462 98.5224C285.61 105.239 288.413 111.562 292.617 116.921C287.871 122.963 284.918 130.22 284.097 137.864C283.276 145.507 284.619 153.227 287.973 160.142C291.327 167.057 296.557 172.887 303.065 176.966C309.572 181.045 317.094 183.208 324.771 183.208C332.449 183.208 339.971 181.045 346.478 176.966C352.986 172.887 358.216 167.057 361.57 160.142C364.924 153.227 366.267 145.507 365.446 137.864C364.625 130.22 361.672 122.963 356.926 116.921C362.598 109.701 365.681 100.781 365.681 91.5955C365.681 82.4096 362.598 73.4903 356.926 66.2703L356.945 66.2858Z" fill="#47BAB8"/>
<path opacity="0.1" d="M283.882 91.613C283.868 100.801 286.953 109.724 292.637 116.936C287.89 122.978 284.938 130.236 284.117 137.879C283.295 145.522 284.639 153.242 287.993 160.157C291.347 167.072 296.577 172.902 303.084 176.981C309.591 181.06 317.114 183.223 324.791 183.223C332.468 183.223 339.991 181.06 346.498 176.981C353.005 172.902 358.235 167.072 361.589 160.157C364.943 153.242 366.287 145.522 365.466 137.879C364.644 130.236 361.692 122.978 356.945 116.936C362.429 109.967 283.882 87.013 283.882 91.613Z" fill="#202636"/>
</g>
<g opacity="0.1">
<path d="M85.3877 241.237C88.2581 241.237 90.585 238.185 90.585 234.422C90.585 230.658 88.2581 227.607 85.3877 227.607C82.5173 227.607 80.1904 230.658 80.1904 234.422C80.1904 238.185 82.5173 241.237 85.3877 241.237Z" fill="#2F706E"/>
<path d="M89.5212 205.269C90.2467 204.002 90.6218 202.564 90.6079 201.103C90.6079 197.339 88.2877 194.288 85.4067 194.288C82.5258 194.288 80.2095 197.339 80.2095 201.103C80.1943 202.563 80.5681 204.001 81.2922 205.269C80.5824 206.542 80.2097 207.976 80.2097 209.434C80.2097 210.892 80.5824 212.325 81.2922 213.598C80.5824 214.871 80.2097 216.305 80.2097 217.762C80.2097 219.22 80.5824 220.654 81.2922 221.927C80.5675 223.193 80.1937 224.63 80.2095 226.089C80.2095 229.857 82.5297 232.908 85.4067 232.908C88.2838 232.908 90.6079 229.857 90.6079 226.089C90.6224 224.63 90.2473 223.193 89.5212 221.927C90.2332 220.655 90.6071 219.221 90.6071 217.762C90.6071 216.304 90.2332 214.87 89.5212 213.598C90.2332 212.326 90.6071 210.892 90.6071 209.434C90.6071 207.975 90.2332 206.541 89.5212 205.269Z" fill="#2F706E"/>
<path d="M85.3877 199.589C88.2581 199.589 90.585 196.538 90.585 192.774C90.585 189.011 88.2581 185.959 85.3877 185.959C82.5173 185.959 80.1904 189.011 80.1904 192.774C80.1904 196.538 82.5173 199.589 85.3877 199.589Z" fill="#2F706E"/>
<path d="M85.3877 191.26C88.2581 191.26 90.585 188.209 90.585 184.445C90.585 180.681 88.2581 177.63 85.3877 177.63C82.5173 177.63 80.1904 180.681 80.1904 184.445C80.1904 188.209 82.5173 191.26 85.3877 191.26Z" fill="#2F706E"/>
<path d="M65.9326 127.441C65.2228 126.536 64.5767 125.582 63.9991 124.587L77.6612 122.341L62.8854 122.454C61.4708 119.367 60.6991 116.024 60.6173 112.629C60.5355 109.234 61.1454 105.858 62.4097 102.706L82.2205 113.01L63.9411 99.5349C65.6556 96.5756 67.9599 94.0011 70.7107 91.9718C73.4615 89.9424 76.5999 88.5016 79.9307 87.7389C83.2615 86.9762 86.7134 86.9079 90.0717 87.5384C93.4299 88.1688 96.6227 89.4845 99.4514 91.4035C102.28 93.3225 104.684 95.8039 106.514 98.6932C108.344 101.582 109.56 104.818 110.088 108.198C110.615 111.578 110.442 115.031 109.58 118.342C108.717 121.652 107.184 124.749 105.075 127.441C106.181 128.848 107.133 130.371 107.913 131.983L90.1788 141.214L109.088 134.86C110.417 138.79 110.745 142.989 110.044 147.078C109.343 151.167 107.635 155.016 105.075 158.278C107.964 161.956 109.761 166.374 110.26 171.027C110.76 175.68 109.942 180.379 107.9 184.588C105.858 188.798 102.675 192.347 98.7136 194.83C94.7523 197.313 90.1731 198.629 85.4997 198.629C80.8263 198.629 76.2471 197.313 72.2858 194.83C68.3245 192.347 65.1409 188.798 63.099 184.588C61.057 180.379 60.2392 175.68 60.7389 171.027C61.2386 166.374 63.0358 161.956 65.9249 158.278C62.4725 153.882 60.5957 148.452 60.5957 142.859C60.5957 137.267 62.4725 131.837 65.9249 127.441H65.9326Z" fill="#47BAB8"/>
<path opacity="0.1" d="M110.403 142.859C110.411 148.453 108.534 153.886 105.074 158.278C107.963 161.956 109.76 166.374 110.26 171.027C110.76 175.68 109.942 180.379 107.9 184.588C105.858 188.798 102.674 192.347 98.7132 194.83C94.7519 197.313 90.1727 198.629 85.4993 198.629C80.8259 198.629 76.2467 197.313 72.2854 194.83C68.3241 192.347 65.1405 188.798 63.0986 184.588C61.0566 180.379 60.2388 175.68 60.7385 171.027C61.2382 166.374 63.0354 161.956 65.9245 158.278C62.5872 154.053 110.403 140.06 110.403 142.859Z" fill="#202636"/>
</g>
<g opacity="0.1">
<path d="M202.558 247.169C206.4 247.169 209.515 243.086 209.515 238.05C209.515 233.014 206.4 228.932 202.558 228.932C198.716 228.932 195.602 233.014 195.602 238.05C195.602 243.086 198.716 247.169 202.558 247.169Z" fill="#2F706E"/>
<path d="M208.065 199.035C209.034 197.339 209.535 195.414 209.515 193.46C209.515 188.426 206.421 184.341 202.554 184.341C198.687 184.341 195.593 188.426 195.593 193.46C195.573 195.415 196.075 197.34 197.047 199.035C196.094 200.738 195.594 202.657 195.594 204.609C195.594 206.561 196.094 208.48 197.047 210.183C196.094 211.885 195.594 213.804 195.594 215.755C195.594 217.706 196.094 219.625 197.047 221.327C196.075 223.022 195.573 224.947 195.593 226.902C195.593 231.936 198.71 236.021 202.554 236.021C206.398 236.021 209.515 231.936 209.515 226.902C209.535 224.948 209.034 223.023 208.065 221.327C209.016 219.624 209.515 217.706 209.515 215.755C209.515 213.804 209.016 211.886 208.065 210.183C209.016 208.48 209.515 206.561 209.515 204.609C209.515 202.658 209.016 200.739 208.065 199.035Z" fill="#2F706E"/>
<path d="M202.558 191.435C206.4 191.435 209.515 187.352 209.515 182.316C209.515 177.28 206.4 173.197 202.558 173.197C198.716 173.197 195.602 177.28 195.602 182.316C195.602 187.352 198.716 191.435 202.558 191.435Z" fill="#2F706E"/>
<path d="M202.558 180.287C206.4 180.287 209.515 176.204 209.515 171.168C209.515 166.132 206.4 162.049 202.558 162.049C198.716 162.049 195.602 166.132 195.602 171.168C195.602 176.204 198.716 180.287 202.558 180.287Z" fill="#2F706E"/>
<path d="M176.529 94.8887C175.578 93.6777 174.712 92.402 173.938 91.0708L192.218 88.0661L172.449 88.2133C170.553 84.0809 169.518 79.6046 169.408 75.058C169.298 70.5114 170.116 65.9902 171.811 61.771L198.339 75.5478L173.872 57.5427C176.158 53.5652 179.239 50.1024 182.921 47.3708C186.604 44.6392 190.81 42.6974 195.276 41.6669C199.742 40.6363 204.372 40.5391 208.878 41.3813C213.383 42.2234 217.666 43.9869 221.46 46.5616C225.254 49.1362 228.477 52.4666 230.927 56.3447C233.377 60.2227 235.003 64.5652 235.701 69.1006C236.4 73.636 236.157 78.267 234.987 82.7041C233.818 87.1412 231.747 91.2892 228.904 94.8887C230.384 96.7753 231.657 98.816 232.701 100.976L208.973 113.32L234.275 104.801C236.053 110.06 236.492 115.679 235.554 121.151C234.617 126.622 232.331 131.773 228.904 136.138C232.77 141.06 235.175 146.972 235.844 153.198C236.512 159.425 235.418 165.714 232.685 171.346C229.953 176.979 225.693 181.728 220.392 185.051C215.091 188.374 208.963 190.136 202.709 190.136C196.455 190.136 190.327 188.374 185.026 185.051C179.725 181.728 175.465 176.979 172.732 171.346C170 165.714 168.905 159.425 169.574 153.198C170.243 146.972 172.647 141.06 176.514 136.138C171.894 130.255 169.383 122.989 169.383 115.505C169.383 108.022 171.894 100.756 176.514 94.8732L176.529 94.8887Z" fill="#47BAB8"/>
<path opacity="0.1" d="M236.035 115.523C236.046 123.008 233.534 130.277 228.904 136.153C232.77 141.076 235.175 146.988 235.844 153.214C236.512 159.44 235.418 165.729 232.685 171.362C229.953 176.995 225.693 181.744 220.392 185.067C215.091 188.389 208.963 190.151 202.709 190.151C196.455 190.151 190.327 188.389 185.026 185.067C179.725 181.744 175.465 176.995 172.732 171.362C170 165.729 168.905 159.44 169.574 153.214C170.243 146.988 172.647 141.076 176.514 136.153C172.047 130.477 236.035 111.775 236.035 115.523Z" fill="#202636"/>
</g>
<path d="M442 246.348C442 249.008 422.58 251.44 390.472 253.318C384.633 253.655 378.376 253.976 371.74 254.278C366.006 254.536 359.997 254.78 353.712 255.01C347.623 255.227 341.3 255.428 334.744 255.614C314.04 256.206 291.151 256.632 266.836 256.845C260.934 256.899 254.955 256.941 248.896 256.969C242.585 256.997 236.202 257.01 229.747 257.008C112.522 257.008 17.498 252.241 17.498 246.36C17.498 240.478 112.522 235.711 229.747 235.711C280.215 235.711 326.562 236.598 362.989 238.069L366.972 238.232H366.995C412.881 240.18 442 243.111 442 246.348Z" fill="#2F706E"/>
<path opacity="0.15" d="M442 246.348C442 249.008 422.58 251.44 390.472 253.318C384.633 253.655 378.376 253.976 371.74 254.278C366.006 254.536 359.997 254.78 353.712 255.01C347.623 255.227 341.3 255.428 334.744 255.614C314.04 256.206 291.151 256.632 266.836 256.845C260.934 256.899 254.955 256.941 248.896 256.969C242.585 256.997 236.202 257.01 229.747 257.008C112.522 257.008 17.498 252.241 17.498 246.36C17.498 240.478 112.522 235.711 229.747 235.711C280.215 235.711 326.562 236.598 362.989 238.069L366.972 238.232H366.995C412.881 240.18 442 243.111 442 246.348Z" fill="#202636"/>
<path d="M424.502 244.474C424.502 246.697 405.082 248.733 372.974 250.282C367.138 250.565 360.878 250.832 354.246 251.084C348.51 251.3 342.5 251.504 336.218 251.695C330.128 251.876 323.806 252.045 317.25 252.203C296.542 252.698 273.653 253.054 249.337 253.233C243.442 253.276 237.462 253.31 231.398 253.333C225.087 253.356 218.706 253.368 212.253 253.368C95.0281 253.368 0 249.384 0 244.462C0 239.541 95.0281 235.557 212.253 235.557C262.717 235.557 309.064 236.296 345.491 237.528L349.474 237.663H349.501C395.402 239.316 424.502 241.752 424.502 244.474Z" fill="#2F706E"/>
<path d="M54.819 163.575L49.4902 147.239L177.102 145.841L182.33 162.014L54.819 163.575Z" fill="#2F706E"/>
<path opacity="0.15" d="M54.819 163.575L49.4902 147.239L177.102 145.841L182.33 162.014L54.819 163.575Z" fill="#202636"/>
<path d="M46.3112 163.575L40.9824 147.239L168.594 145.841L173.822 162.014L46.3112 163.575Z" fill="#2F706E"/>
<path d="M264.16 138.473C250.965 138.473 240.567 133.229 232.964 122.741C225.362 112.252 221.561 99.5469 221.561 84.624C221.561 69.6004 225.237 56.9207 232.589 46.5849C239.942 36.2491 250.313 31.0864 263.703 31.0967C277.903 31.0967 288.602 36.5421 295.8 47.4329C302.997 58.3237 306.598 70.9285 306.6 85.2474C306.6 99.463 302.875 111.89 295.424 122.528C287.974 133.165 277.552 138.48 264.16 138.473ZM264.546 126.675C273.226 126.675 279.714 122.886 284.009 115.31C288.304 107.734 290.451 98.1827 290.451 86.6568C290.451 73.8274 288.254 63.3225 283.858 55.1422C279.463 46.9618 272.721 42.8703 263.634 42.8677C246.361 42.8677 237.725 56.6058 237.725 84.0819C237.725 112.48 246.663 126.677 264.539 126.675H264.546ZM268.893 239.657H249.809L374.745 33.1992H393.469L268.893 239.657ZM379.42 241.775C366.027 241.775 355.586 236.483 348.097 225.9C340.608 215.316 336.848 202.609 336.817 187.779C336.817 172.857 340.467 160.227 347.768 149.891C355.069 139.556 365.466 134.393 378.96 134.403C393.059 134.403 403.683 139.849 410.832 150.739C417.98 161.63 421.556 174.234 421.559 188.55C421.559 202.673 417.858 215.076 410.457 225.76C403.055 236.445 392.707 241.783 379.412 241.775H379.42ZM379.644 229.675C388.283 229.675 394.736 225.951 399.002 218.504C403.269 211.057 405.402 201.545 405.402 189.967C405.402 177.577 403.243 167.185 398.925 158.793C394.607 150.401 387.88 146.199 378.743 146.186C361.37 146.186 352.683 159.924 352.683 187.4C352.678 215.586 361.663 229.678 379.636 229.675H379.644Z" fill="#2F706E"/>
<path d="M264.16 138.473C250.965 138.473 240.567 133.229 232.964 122.741C225.362 112.252 221.561 99.5469 221.561 84.624C221.561 69.6004 225.237 56.9207 232.589 46.5849C239.942 36.2491 250.313 31.0864 263.703 31.0967C277.903 31.0967 288.602 36.5421 295.8 47.4329C302.997 58.3237 306.598 70.9285 306.6 85.2474C306.6 99.463 302.875 111.89 295.424 122.528C287.974 133.165 277.552 138.48 264.16 138.473ZM264.546 126.675C273.226 126.675 279.714 122.886 284.009 115.31C288.304 107.734 290.451 98.1827 290.451 86.6568C290.451 73.8274 288.254 63.3225 283.858 55.1422C279.463 46.9618 272.721 42.8703 263.634 42.8677C246.361 42.8677 237.725 56.6058 237.725 84.0819C237.725 112.48 246.663 126.677 264.539 126.675H264.546ZM268.893 239.657H249.809L374.745 33.1992H393.469L268.893 239.657ZM379.42 241.775C366.027 241.775 355.586 236.483 348.097 225.9C340.608 215.316 336.848 202.609 336.817 187.779C336.817 172.857 340.467 160.227 347.768 149.891C355.069 139.556 365.466 134.393 378.96 134.403C393.059 134.403 403.683 139.849 410.832 150.739C417.98 161.63 421.556 174.234 421.559 188.55C421.559 202.673 417.858 215.076 410.457 225.76C403.055 236.445 392.707 241.783 379.412 241.775H379.42ZM379.644 229.675C388.283 229.675 394.736 225.951 399.002 218.504C403.269 211.057 405.402 201.545 405.402 189.967C405.402 177.577 403.243 167.185 398.925 158.793C394.607 150.401 387.88 146.199 378.743 146.186C361.37 146.186 352.683 159.924 352.683 187.4C352.678 215.586 361.663 229.678 379.636 229.675H379.644Z" fill="#2F706E"/>
<path opacity="0.15" d="M264.16 138.473C250.965 138.473 240.567 133.229 232.964 122.741C225.362 112.252 221.561 99.5469 221.561 84.624C221.561 69.6004 225.237 56.9207 232.589 46.5849C239.942 36.2491 250.313 31.0864 263.703 31.0967C277.903 31.0967 288.602 36.5421 295.8 47.4329C302.997 58.3237 306.598 70.9285 306.6 85.2474C306.6 99.463 302.875 111.89 295.424 122.528C287.974 133.165 277.552 138.48 264.16 138.473ZM264.546 126.675C273.226 126.675 279.714 122.886 284.009 115.31C288.304 107.734 290.451 98.1827 290.451 86.6568C290.451 73.8274 288.254 63.3225 283.858 55.1422C279.463 46.9618 272.721 42.8703 263.634 42.8677C246.361 42.8677 237.725 56.6058 237.725 84.0819C237.725 112.48 246.663 126.677 264.539 126.675H264.546ZM268.893 239.657H249.809L374.745 33.1992H393.469L268.893 239.657ZM379.42 241.775C366.027 241.775 355.586 236.483 348.097 225.9C340.608 215.316 336.848 202.609 336.817 187.779C336.817 172.857 340.467 160.227 347.768 149.891C355.069 139.556 365.466 134.393 378.96 134.403C393.059 134.403 403.683 139.849 410.832 150.739C417.98 161.63 421.556 174.234 421.559 188.55C421.559 202.673 417.858 215.076 410.457 225.76C403.055 236.445 392.707 241.783 379.412 241.775H379.42ZM379.644 229.675C388.283 229.675 394.736 225.951 399.002 218.504C403.269 211.057 405.402 201.545 405.402 189.967C405.402 177.577 403.243 167.185 398.925 158.793C394.607 150.401 387.88 146.199 378.743 146.186C361.37 146.186 352.683 159.924 352.683 187.4C352.678 215.586 361.663 229.678 379.636 229.675H379.644Z" fill="#202636"/>
<path d="M252.172 138.473C238.978 138.473 228.58 133.229 220.977 122.741C213.375 112.252 209.573 99.5469 209.573 84.624C209.573 69.6004 213.249 56.9207 220.602 46.5849C227.954 36.2491 238.326 31.0864 251.716 31.0967C265.916 31.0967 276.614 36.5421 283.812 47.4329C291.01 58.3237 294.61 70.9285 294.613 85.2474C294.613 99.463 290.888 111.89 283.437 122.528C275.987 133.165 265.565 138.48 252.172 138.473ZM252.559 126.675C261.239 126.675 267.727 122.886 272.022 115.31C276.317 107.734 278.464 98.1827 278.464 86.6568C278.464 73.8274 276.266 63.3225 271.871 55.1422C267.475 46.9618 260.734 42.8703 251.646 42.8677C234.374 42.8677 225.737 56.6058 225.737 84.0819C225.737 112.48 234.675 126.677 252.551 126.675H252.559ZM256.906 239.657H237.822L362.757 33.1992H381.481L256.906 239.657ZM367.433 241.775C354.04 241.775 343.599 236.483 336.11 225.9C328.621 215.316 324.861 202.609 324.83 187.779C324.83 172.857 328.48 160.227 335.781 149.891C343.082 139.556 353.479 134.393 366.972 134.403C381.072 134.403 391.696 139.849 398.844 150.739C405.993 161.63 409.569 174.234 409.571 188.55C409.571 202.673 405.871 215.076 398.469 225.76C391.068 236.445 380.72 241.783 367.425 241.775H367.433ZM367.657 229.675C376.296 229.675 382.749 225.951 387.015 218.504C391.282 211.057 393.415 201.545 393.415 189.967C393.415 177.577 391.256 167.185 386.938 158.793C382.62 150.401 375.89 146.199 366.748 146.186C349.375 146.186 340.688 159.924 340.688 187.4C340.688 215.586 349.675 229.678 367.649 229.675H367.657Z" fill="#2F706E"/>
<path d="M293.921 244.838C295.514 241.88 293.704 238.255 291.623 235.615C289.543 232.974 287.006 230.232 287.06 226.868C287.138 222.039 292.258 219.186 296.341 216.622C299.378 214.722 302.18 212.469 304.686 209.908C305.736 208.922 306.604 207.758 307.25 206.47C308.097 204.58 308.07 202.431 308.024 200.363C307.846 193.466 307.505 186.579 307.003 179.702" stroke="#2F706E" stroke-width="4" stroke-miterlimit="10"/>
<path d="M314.782 179.323C314.724 178.061 314.35 176.834 313.694 175.756C313.037 174.677 312.121 173.781 311.028 173.151L309.342 176.488L309.392 172.446C308.588 172.211 307.75 172.11 306.913 172.148C305.426 172.218 303.994 172.727 302.796 173.612C301.599 174.497 300.691 175.718 300.186 177.12C299.681 178.522 299.603 180.042 299.962 181.489C300.32 182.935 301.099 184.243 302.199 185.246C303.299 186.249 304.672 186.903 306.144 187.126C307.616 187.348 309.12 187.128 310.467 186.494C311.814 185.86 312.943 184.84 313.711 183.564C314.479 182.287 314.852 180.811 314.782 179.323Z" fill="#47BAB8"/>
<path d="M301.364 230.333C300.575 231.869 299.282 233.087 297.702 233.782C296.122 234.477 294.352 234.607 292.688 234.15C291.024 233.693 289.567 232.677 288.562 231.273C287.557 229.868 287.065 228.16 287.169 226.436C287.272 224.711 287.964 223.074 289.13 221.8C290.295 220.526 291.863 219.692 293.569 219.438C295.276 219.183 297.018 219.524 298.503 220.403C299.989 221.282 301.127 222.646 301.728 224.265L297.025 228.095L302.207 226.887C302.205 228.086 301.916 229.268 301.364 230.333Z" fill="#47BAB8"/>
<path d="M297.648 215.693C296.661 215.739 295.674 215.591 294.744 215.255C293.815 214.92 292.96 214.404 292.229 213.738C291.498 213.071 290.906 212.268 290.485 211.372C290.065 210.476 289.825 209.507 289.779 208.518C289.72 207.338 289.943 206.161 290.428 205.084C290.878 204.077 291.542 203.181 292.375 202.46C293.207 201.738 294.187 201.207 295.247 200.906L295.204 204.003L296.909 200.627C298.903 200.533 300.852 201.237 302.328 202.582C303.804 203.928 304.686 205.805 304.779 207.802C304.872 209.798 304.17 211.75 302.826 213.228C301.482 214.705 299.607 215.588 297.613 215.681L297.648 215.693Z" fill="#47BAB8"/>
<path d="M315.916 203.523C314.917 203.589 313.915 203.456 312.968 203.129C312.021 202.803 311.149 202.292 310.402 201.624C309.656 200.956 309.049 200.146 308.619 199.241C308.188 198.336 307.943 197.354 307.896 196.353C307.849 195.352 308.002 194.351 308.346 193.41C308.69 192.468 309.218 191.605 309.9 190.87C310.581 190.136 311.402 189.545 312.314 189.132C313.226 188.719 314.211 188.492 315.212 188.464C316.618 188.396 318.015 188.727 319.241 189.421L317.911 193.068L320.649 190.439C322.118 191.78 322.996 193.651 323.089 195.639C323.123 196.337 323.058 197.036 322.896 197.715C322.521 199.311 321.637 200.742 320.378 201.79C319.118 202.838 317.552 203.447 315.916 203.523Z" fill="#47BAB8"/>
<path opacity="0.1" d="M313.77 181.332C312.033 181.522 310.347 182.064 308.603 182.172C306.859 182.281 304.945 181.863 303.843 180.504C303.247 179.776 302.953 178.85 302.451 178.053C301.976 177.31 301.325 176.697 300.556 176.268C300.073 177.223 299.799 178.27 299.751 179.339C299.704 180.409 299.885 181.476 300.282 182.47C300.679 183.464 301.284 184.362 302.054 185.104C302.825 185.846 303.745 186.415 304.753 186.773C305.76 187.131 306.833 187.27 307.898 187.181C308.963 187.091 309.998 186.775 310.932 186.254C311.866 185.733 312.678 185.019 313.315 184.159C313.952 183.299 314.398 182.313 314.624 181.266C314.338 181.282 314.056 181.301 313.77 181.332Z" fill="#202636"/>
<path opacity="0.1" d="M315.916 203.523C314.619 203.582 313.329 203.305 312.171 202.718C311.013 202.131 310.026 201.254 309.306 200.173C308.585 199.091 308.157 197.842 308.061 196.546C307.965 195.249 308.205 193.95 308.758 192.774C309.354 193.179 309.868 193.694 310.27 194.292C310.808 195.102 311.132 196.039 311.763 196.782C312.923 198.164 314.938 198.613 316.751 198.532C318.565 198.451 320.32 197.932 322.13 197.758C322.382 197.735 322.637 197.719 322.904 197.711C322.53 199.31 321.645 200.742 320.384 201.791C319.123 202.84 317.554 203.448 315.916 203.523Z" fill="#202636"/>
<path opacity="0.1" d="M297.648 215.693C296.661 215.739 295.674 215.59 294.744 215.255C293.815 214.919 292.96 214.404 292.229 213.738C291.498 213.071 290.906 212.267 290.485 211.372C290.065 210.476 289.825 209.507 289.779 208.518C289.72 207.338 289.943 206.161 290.428 205.083C291.049 205.497 291.588 206.022 292.018 206.632C292.602 207.457 292.969 208.41 293.653 209.172C294.922 210.586 297.056 211.085 298.978 211.039C300.9 210.992 302.637 210.543 304.489 210.4C304.03 211.879 303.127 213.18 301.903 214.127C300.679 215.075 299.193 215.621 297.648 215.693Z" fill="#202636"/>
<path opacity="0.1" d="M301.364 230.333C300.488 232.057 298.985 233.377 297.164 234.021C295.343 234.665 293.345 234.584 291.583 233.794C289.82 233.004 288.429 231.566 287.695 229.777C286.962 227.989 286.944 225.986 287.644 224.185C288.263 224.593 288.82 225.09 289.295 225.66C290.01 226.535 290.482 227.526 291.31 228.339C292.857 229.849 295.331 230.473 297.543 230.531C298.82 230.541 300.095 230.475 301.364 230.333Z" fill="#202636"/>
<path d="M410.318 244.451C411.911 241.492 410.101 237.868 408.021 235.227C405.941 232.587 403.404 229.845 403.458 226.48C403.535 221.652 408.655 218.798 412.739 216.235C415.776 214.335 418.577 212.081 421.084 209.521C422.134 208.534 423.001 207.371 423.648 206.082C424.494 204.193 424.467 202.044 424.421 199.976C424.243 193.079 423.903 186.192 423.4 179.315" stroke="#2F706E" stroke-width="4" stroke-miterlimit="10"/>
<path d="M431.18 178.936C431.122 177.674 430.747 176.447 430.091 175.369C429.435 174.29 428.518 173.394 427.425 172.764L425.739 176.101L425.789 172.059C424.985 171.824 424.148 171.723 423.311 171.761C421.824 171.83 420.391 172.34 419.194 173.225C417.996 174.11 417.088 175.331 416.583 176.733C416.079 178.135 416.001 179.655 416.359 181.102C416.717 182.548 417.496 183.855 418.596 184.859C419.697 185.862 421.07 186.516 422.541 186.738C424.013 186.96 425.518 186.741 426.864 186.107C428.211 185.473 429.34 184.453 430.108 183.176C430.877 181.9 431.249 180.424 431.18 178.936Z" fill="#47BAB8"/>
<path d="M417.762 229.946C416.972 231.482 415.679 232.7 414.099 233.395C412.52 234.089 410.749 234.219 409.085 233.763C407.421 233.306 405.965 232.29 404.96 230.885C403.955 229.481 403.463 227.773 403.566 226.048C403.67 224.324 404.362 222.687 405.527 221.413C406.693 220.139 408.26 219.305 409.967 219.05C411.673 218.796 413.415 219.137 414.901 220.016C416.386 220.895 417.525 222.259 418.125 223.878L413.423 227.708L418.605 226.5C418.603 227.699 418.313 228.881 417.762 229.946Z" fill="#47BAB8"/>
<path d="M414.046 215.306C413.058 215.352 412.072 215.203 411.142 214.868C410.212 214.532 409.357 214.017 408.627 213.35C407.896 212.684 407.303 211.88 406.883 210.985C406.462 210.089 406.222 209.119 406.176 208.131C406.118 206.951 406.34 205.773 406.826 204.696C407.275 203.69 407.94 202.794 408.772 202.072C409.605 201.351 410.585 200.82 411.644 200.518L411.602 203.616L413.307 200.24H413.326C414.313 200.193 415.3 200.342 416.23 200.678C417.16 201.013 418.014 201.529 418.745 202.195C419.476 202.861 420.068 203.665 420.489 204.561C420.909 205.456 421.149 206.426 421.196 207.415C421.242 208.403 421.093 209.391 420.758 210.322C420.423 211.253 419.908 212.109 419.243 212.84C418.577 213.572 417.774 214.165 416.88 214.586C415.986 215.007 415.017 215.248 414.03 215.294L414.046 215.306Z" fill="#47BAB8"/>
<path d="M432.313 203.136C431.314 203.202 430.312 203.068 429.365 202.742C428.419 202.416 427.546 201.904 426.8 201.237C426.053 200.569 425.447 199.759 425.016 198.854C424.586 197.949 424.34 196.967 424.293 195.966C424.247 194.964 424.4 193.964 424.744 193.022C425.088 192.081 425.616 191.218 426.297 190.483C426.978 189.749 427.799 189.158 428.711 188.744C429.623 188.331 430.609 188.104 431.609 188.077C433.016 188.009 434.413 188.34 435.639 189.034L434.308 192.681L437.046 190.052C438.516 191.393 439.393 193.263 439.486 195.252C439.521 195.95 439.456 196.648 439.293 197.328C438.919 198.924 438.035 200.355 436.775 201.403C435.516 202.451 433.949 203.059 432.313 203.136Z" fill="#47BAB8"/>
<path opacity="0.1" d="M430.167 180.945C428.431 181.135 426.745 181.677 425.001 181.785C423.257 181.894 421.342 181.475 420.24 180.116C419.645 179.388 419.351 178.463 418.848 177.665C418.373 176.923 417.722 176.31 416.953 175.88C416.47 176.835 416.196 177.883 416.149 178.952C416.102 180.022 416.283 181.089 416.68 182.083C417.077 183.077 417.681 183.975 418.452 184.717C419.223 185.459 420.143 186.028 421.15 186.386C422.158 186.744 423.23 186.883 424.295 186.793C425.361 186.704 426.395 186.388 427.329 185.867C428.263 185.346 429.076 184.632 429.712 183.772C430.349 182.912 430.795 181.926 431.022 180.879C430.735 180.895 430.453 180.914 430.167 180.945Z" fill="#202636"/>
<path opacity="0.1" d="M432.313 203.136C431.017 203.195 429.727 202.918 428.568 202.331C427.41 201.744 426.423 200.867 425.703 199.786C424.983 198.704 424.554 197.455 424.458 196.158C424.362 194.862 424.602 193.563 425.156 192.387C425.752 192.792 426.265 193.307 426.668 193.905C427.205 194.714 427.53 195.651 428.16 196.395C429.32 197.777 431.335 198.226 433.149 198.145C434.962 198.064 436.718 197.545 438.528 197.371C438.779 197.347 439.034 197.332 439.301 197.324C438.927 198.923 438.042 200.355 436.781 201.404C435.52 202.453 433.951 203.061 432.313 203.136Z" fill="#202636"/>
<path opacity="0.1" d="M414.046 215.306C413.058 215.352 412.072 215.203 411.142 214.868C410.212 214.532 409.357 214.017 408.627 213.35C407.896 212.684 407.303 211.88 406.883 210.985C406.462 210.089 406.222 209.119 406.176 208.131C406.118 206.951 406.34 205.773 406.826 204.696C407.446 205.11 407.985 205.635 408.415 206.245C408.999 207.07 409.366 208.022 410.051 208.785C411.319 210.198 413.454 210.698 415.376 210.652C417.24 210.613 419.034 210.156 420.886 210.013C420.427 211.492 419.524 212.793 418.3 213.74C417.076 214.687 415.591 215.234 414.046 215.306Z" fill="#202636"/>
<path opacity="0.1" d="M417.761 229.946C416.886 231.669 415.382 232.989 413.561 233.633C411.741 234.277 409.743 234.196 407.98 233.406C406.218 232.616 404.826 231.178 404.093 229.39C403.36 227.601 403.341 225.599 404.041 223.797C404.661 224.205 405.217 224.702 405.692 225.272C406.408 226.147 406.88 227.138 407.707 227.952C409.254 229.462 411.729 230.085 413.941 230.143C415.217 230.154 416.493 230.088 417.761 229.946Z" fill="#202636"/>
<path d="M42.5104 239.417C40.9172 236.459 42.727 232.834 44.8075 230.194C46.8879 227.553 49.4247 224.812 49.3705 221.447C49.2932 216.618 44.1733 213.765 40.0897 211.201C37.0526 209.302 34.2514 207.048 31.7447 204.487C30.6949 203.501 29.8271 202.337 29.1808 201.049C28.334 199.159 28.361 197.01 28.4074 194.943C28.5853 188.045 28.9256 181.158 29.4283 174.281" stroke="#2F706E" stroke-width="4" stroke-miterlimit="10"/>
<path d="M21.6479 173.902C21.706 172.64 22.0805 171.414 22.7367 170.335C23.3929 169.256 24.3098 168.36 25.4027 167.73L27.0888 171.068L27.0385 167.025C27.8427 166.79 28.6802 166.689 29.5172 166.727C31.0039 166.797 32.4365 167.306 33.6339 168.191C34.8314 169.076 35.7398 170.297 36.2444 171.699C36.749 173.101 36.827 174.621 36.4687 176.068C36.1104 177.514 35.3318 178.822 34.2314 179.825C33.1309 180.828 31.758 181.483 30.2864 181.705C28.8147 181.927 27.3103 181.707 25.9634 181.073C24.6165 180.439 23.4876 179.419 22.7194 178.143C21.9513 176.866 21.5784 175.391 21.6479 173.902Z" fill="#47BAB8"/>
<path d="M35.0657 224.912C35.8553 226.448 37.1483 227.666 38.7281 228.361C40.3078 229.056 42.0781 229.186 43.7421 228.729C45.4062 228.272 46.8627 227.256 47.8676 225.852C48.8724 224.447 49.3644 222.739 49.2611 221.015C49.1578 219.29 48.4654 217.654 47.3001 216.379C46.1348 215.105 44.5674 214.271 42.8608 214.017C41.1541 213.762 39.412 214.103 37.9266 214.982C36.4411 215.861 35.3027 217.225 34.7022 218.845L39.4045 222.674L34.2227 221.466C34.2248 222.666 34.5139 223.847 35.0657 224.912Z" fill="#47BAB8"/>
<path d="M38.7826 210.272C39.7698 210.319 40.7565 210.17 41.6862 209.834C42.616 209.499 43.4707 208.983 44.2014 208.317C44.9322 207.651 45.5247 206.847 45.9452 205.951C46.3656 205.056 46.6058 204.086 46.652 203.097C46.7105 201.917 46.4878 200.74 46.0023 199.663C45.5528 198.656 44.8884 197.76 44.0559 197.039C43.2235 196.317 42.2432 195.786 41.184 195.485L41.2265 198.582L39.5212 195.206C37.5274 195.113 35.5782 195.816 34.1024 197.162C32.6266 198.507 31.7451 200.385 31.6518 202.381C31.5585 204.377 32.261 206.329 33.6048 207.807C34.9486 209.284 36.8236 210.167 38.8174 210.261L38.7826 210.272Z" fill="#47BAB8"/>
<path d="M20.5142 198.102C21.5131 198.168 22.5152 198.035 23.4619 197.709C24.4086 197.383 25.2808 196.871 26.0276 196.203C26.7744 195.536 27.3807 194.726 27.811 193.82C28.2414 192.915 28.4871 191.933 28.5339 190.932C28.5807 189.931 28.4276 188.93 28.0836 187.989C27.7395 187.047 27.2114 186.184 26.5302 185.45C25.849 184.715 25.0283 184.124 24.1162 183.711C23.204 183.298 22.2188 183.071 21.218 183.044C19.8181 182.979 18.4283 183.31 17.2079 184L18.5382 187.648L15.781 185.03C14.3143 186.368 13.4369 188.234 13.3409 190.219C13.3066 190.916 13.3718 191.615 13.5342 192.294C13.9085 193.891 14.7924 195.321 16.052 196.369C17.3116 197.418 18.8782 198.026 20.5142 198.102Z" fill="#47BAB8"/>
<path opacity="0.1" d="M22.6603 175.911C24.3966 176.101 26.0826 176.643 27.8266 176.752C29.5706 176.86 31.4848 176.442 32.5869 175.083C33.1824 174.355 33.4763 173.429 33.979 172.632C34.4538 171.889 35.1048 171.276 35.8739 170.847C36.3569 171.802 36.6312 172.849 36.6783 173.919C36.7255 174.988 36.5445 176.055 36.1474 177.049C35.7503 178.043 35.1462 178.941 34.3754 179.683C33.6046 180.425 32.6847 180.994 31.6771 181.352C30.6695 181.71 29.5972 181.849 28.5318 181.76C27.4663 181.67 26.4321 181.354 25.4981 180.833C24.5641 180.312 23.7517 179.598 23.115 178.738C22.4783 177.878 22.0319 176.892 21.8057 175.846C22.0918 175.861 22.3741 175.88 22.6603 175.911Z" fill="#202636"/>
<path opacity="0.1" d="M20.5141 198.102C21.8108 198.162 23.1009 197.884 24.2591 197.297C25.4172 196.71 26.4043 195.833 27.1244 194.752C27.8446 193.67 28.2734 192.421 28.3693 191.125C28.4653 189.828 28.225 188.529 27.6719 187.354C27.0757 187.758 26.5625 188.273 26.1599 188.871C25.6224 189.681 25.2976 190.618 24.6672 191.361C23.5071 192.743 21.4924 193.193 19.6788 193.111C17.8652 193.03 16.1095 192.511 14.2998 192.337C14.0484 192.314 13.7932 192.298 13.5264 192.29C13.9002 193.889 14.785 195.321 16.0462 196.37C17.3075 197.419 18.8762 198.028 20.5141 198.102Z" fill="#202636"/>
<path opacity="0.1" d="M38.7822 210.272C39.7694 210.318 40.7561 210.17 41.6858 209.834C42.6156 209.499 43.4703 208.983 44.201 208.317C44.9318 207.65 45.5243 206.847 45.9448 205.951C46.3652 205.055 46.6054 204.086 46.6515 203.097C46.7101 201.917 46.4874 200.74 46.0019 199.663C45.3814 200.077 44.8426 200.602 44.4125 201.211C43.8286 202.036 43.4612 202.989 42.7768 203.751C41.5084 205.165 39.3738 205.664 37.4519 205.618C35.588 205.579 33.7937 205.122 31.9414 204.979C32.4005 206.458 33.3035 207.76 34.5274 208.707C35.7514 209.654 37.237 210.2 38.7822 210.272Z" fill="#202636"/>
<path opacity="0.1" d="M35.0664 224.912C35.9421 226.636 37.4457 227.956 39.2663 228.6C41.0869 229.244 43.0851 229.163 44.8475 228.373C46.6099 227.583 48.0017 226.145 48.7349 224.357C49.4681 222.568 49.4866 220.566 48.7866 218.764C48.1671 219.172 47.6107 219.669 47.1354 220.239C46.42 221.114 45.9482 222.105 45.1206 222.918C43.5738 224.428 41.099 225.052 38.887 225.11C37.6107 225.12 36.3349 225.054 35.0664 224.912Z" fill="#202636"/>
<path d="M260.444 203.132C260.451 202.193 260.239 201.266 259.824 200.424C259.409 199.582 258.803 198.849 258.054 198.284C257.961 194.733 255.432 191.833 252.18 191.384C251.929 190.178 251.365 189.059 250.545 188.14C249.725 187.221 248.678 186.534 247.509 186.149C247.224 186.059 246.933 185.99 246.639 185.944H246.554L246.403 185.924H246.275H246.148H245.981H245.881H245.606C242.288 185.924 239.527 188.464 238.959 191.814C236.813 191.318 234.844 191.961 234.492 193.32C234.401 193.68 234.422 194.059 234.55 194.408C234.914 195.461 236.097 196.468 237.702 196.967L237.911 197.029C238.015 197.06 238.12 197.084 238.224 197.107H238.294C237.704 198.366 237.62 199.805 238.06 201.125C238.5 202.444 239.429 203.544 240.656 204.197C240.608 204.223 240.562 204.253 240.517 204.286C240.319 204.468 240.161 204.689 240.053 204.936C239.665 205.617 239.364 206.345 239.156 207.101C239.001 207.747 238.974 208.425 238.769 209.064C238.417 210.225 237.512 211.244 237.408 212.479C237.362 213.029 237.451 213.675 237.06 214.051C236.963 214.135 236.859 214.211 236.751 214.279C236.477 214.467 236.245 214.71 236.07 214.992C235.956 215.225 235.803 215.437 235.618 215.619C235.266 215.886 234.686 215.859 234.512 216.27C234.338 216.68 234.786 217.164 234.682 217.613C234.597 217.977 234.198 218.144 233.908 218.388C233.584 218.74 233.357 219.171 233.251 219.638C232.673 219.75 232.078 219.732 231.508 219.587C230.938 219.442 230.407 219.173 229.952 218.798C230.108 219.197 230.222 219.611 230.293 220.033C229.833 219.542 229.075 219.398 228.514 219.143C227.791 218.811 227.145 218.331 226.619 217.733L227.632 217.594L223.147 210.779L221.824 210.508L223.011 212.789C222.914 212.835 222.829 212.904 222.762 212.988C222.695 213.073 222.648 213.171 222.624 213.277C222.561 213.529 222.545 213.792 222.578 214.051C222.641 214.662 222.743 215.269 222.884 215.867L223.228 217.47C223.257 217.62 223.294 217.769 223.34 217.915C222.891 217.899 222.443 217.95 222.01 218.066C221.12 217.737 220.195 217.517 219.252 217.412C219.045 217.375 218.832 217.386 218.63 217.443C218.4 217.549 218.2 217.712 218.05 217.915C217.276 218.811 216.59 219.778 216 220.804C213.591 225.001 210.374 228.664 207.361 232.459C205.281 233.307 203.185 234.112 201.085 234.91L196.572 236.633C195.671 236.977 194.736 237.33 193.777 237.268C193.343 237.241 192.818 237.175 192.574 237.543C192.455 237.725 192.363 237.923 192.299 238.131C192.141 238.131 191.982 238.17 191.835 238.178H191.808C191.522 237.465 191.275 236.702 190.725 236.184C190.615 236.201 190.51 236.245 190.421 236.312C190.332 236.38 190.261 236.469 190.215 236.571C190.107 236.772 190.041 236.993 189.917 237.179C189.674 237.535 189.252 237.709 188.95 238.011C188.649 238.313 188.459 238.786 188.135 239.08C187.68 239.411 187.147 239.618 186.588 239.68C185.751 239.877 184.943 240.185 184.186 240.594C183.907 240.766 183.609 240.903 183.297 241.004C182.954 241.07 182.603 241.082 182.257 241.039L179.867 240.865C179.654 240.837 179.438 240.846 179.229 240.892C178.983 240.982 178.773 241.152 178.633 241.374C178.493 241.596 178.431 241.858 178.455 242.119C178.485 242.379 178.566 242.63 178.696 242.856C178.826 243.082 179.001 243.28 179.209 243.436C179.624 243.741 180.083 243.979 180.571 244.145C182.647 244.95 184.788 245.578 186.971 246.023V246.507C188.483 247.269 190.153 247.667 191.847 247.668C191.972 247.678 192.097 247.655 192.21 247.602C192.367 247.485 192.476 247.314 192.516 247.122C193.023 245.604 193.344 244.029 193.471 242.433C193.77 242.414 194.062 242.339 194.333 242.212C195.157 241.988 195.973 242.553 196.82 242.646C197.864 242.758 198.835 242.15 199.821 241.775C199.964 241.721 200.107 241.674 200.25 241.628C199.969 241.992 199.637 242.314 199.264 242.584C198.854 242.878 198.394 243.095 197.992 243.401C197.657 243.707 197.299 243.985 196.92 244.234C196.653 244.358 196.378 244.464 196.097 244.551C195.689 244.7 195.299 244.896 194.937 245.136C194.612 245.327 194.336 245.593 194.132 245.91C194.03 246.058 193.966 246.23 193.949 246.41C193.931 246.59 193.96 246.771 194.032 246.936C194.104 247.101 194.217 247.246 194.361 247.355C194.504 247.464 194.673 247.534 194.852 247.56C195.175 247.617 195.504 247.626 195.83 247.587C197.121 247.49 198.409 247.37 199.697 247.254C200.242 247.217 200.784 247.14 201.317 247.021C201.599 246.952 201.878 246.859 202.16 246.785C202.642 246.658 203.136 246.584 203.634 246.565C203.778 246.553 203.923 246.568 204.063 246.607C204.364 246.704 204.577 246.994 204.883 247.072C205.081 247.091 205.281 247.063 205.467 246.991C206.409 246.786 207.371 246.683 208.336 246.685C208.757 246.661 209.252 246.58 209.45 246.189C209.689 245.705 209.287 245.163 209.129 244.64C209.048 244.308 209.004 243.968 208.997 243.626C208.924 242.782 208.682 241.962 208.286 241.213C208.075 240.864 207.898 240.496 207.756 240.114C209.604 239.41 211.372 238.512 213.03 237.434C213.982 236.842 214.964 236.203 216.039 235.986C217.292 235.734 218.583 236.067 219.817 236.424C222.755 237.275 225.646 238.284 228.475 239.448C229.829 240.001 231.182 240.59 232.567 240.997C232.971 241.543 233.461 242.022 234.017 242.414C234.945 243.014 236.078 243.188 237.168 243.273C238.641 243.408 240.121 243.464 241.6 243.44C242.729 243.42 243.893 243.343 244.902 242.828C245.149 242.701 245.381 242.548 245.595 242.371C246.368 242.511 247.161 242.096 247.768 241.566C248.571 240.881 249.151 239.971 249.431 238.952C249.786 237.554 249.512 235.924 250.37 234.782C250.598 234.476 250.896 234.228 251.121 233.918C251.397 233.504 251.532 233.011 251.507 232.513L251.546 232.455C251.74 232.005 251.87 231.531 251.933 231.045C252.034 230.666 252.164 230.295 252.319 229.934C252.755 228.854 253.135 227.751 253.456 226.631C253.68 225.888 253.855 225.132 253.982 224.366C254.075 223.754 254.129 223.139 254.179 222.523C254.241 221.559 254.429 220.608 254.736 219.693C255.499 217.508 255.931 215.221 256.016 212.909C256.016 212.862 256.016 212.82 256.016 212.773C257.139 212.65 258.175 212.112 258.923 211.264C259.67 210.416 260.075 209.319 260.057 208.189C260.058 207.507 259.916 206.833 259.64 206.21C260.173 205.273 260.451 204.211 260.444 203.132ZM238.576 229.737C238.642 229.973 238.719 230.209 238.796 230.445C238.441 230.093 238.089 229.729 237.729 229.38C237.872 229.423 238.015 229.469 238.154 229.52C238.303 229.579 238.445 229.651 238.58 229.737H238.576ZM236.843 228.575C234.732 226.74 232.288 225.315 230.126 223.541C231.287 224.126 232.447 224.804 233.607 225.454C234.958 226.229 236.324 226.969 237.706 227.677C237.479 228.021 237.191 228.32 236.855 228.56L236.843 228.575ZM237.745 223.952L237.845 223.847C237.845 224.107 237.845 224.351 237.845 224.571C237.656 224.509 237.458 224.447 237.277 224.378C237.444 224.241 237.601 224.094 237.748 223.936L237.745 223.952ZM219.156 228.923C220.025 227.939 220.781 226.86 221.41 225.706C222.246 227.173 223.607 228.23 224.767 229.458C222.903 229.195 221.035 228.989 219.16 228.908L219.156 228.923Z" fill="url(#paint0_linear_284_633)"/>
<path d="M222.172 211.074L223.506 211.345L228.05 218.067L226.043 218.338L222.172 211.074Z" fill="#2F2E41"/>
<path d="M189.862 238.356C190.222 239.547 190.665 240.712 191.189 241.841C192.694 241.525 194.175 241.102 195.62 240.575C195.341 240.138 195.033 239.721 194.7 239.324C194.345 238.929 193.92 238.602 193.447 238.36C192.987 238.159 192.418 238.31 191.927 238.337C191.239 238.362 190.551 238.369 189.862 238.356Z" fill="#FBBEBE"/>
<path d="M193.456 240.153C192.706 239.916 192.245 239.157 191.94 238.426C191.634 237.694 191.387 236.896 190.807 236.358C190.696 236.375 190.592 236.42 190.503 236.487C190.414 236.555 190.343 236.643 190.296 236.745C190.184 236.939 190.118 237.159 189.991 237.345C189.751 237.694 189.326 237.864 189.02 238.162C188.715 238.46 188.525 238.913 188.197 239.212C187.741 239.54 187.208 239.745 186.65 239.808C185.807 239.999 184.993 240.301 184.229 240.706C183.946 240.87 183.645 241 183.332 241.093C182.986 241.159 182.633 241.171 182.284 241.128L179.875 240.954C179.661 240.927 179.443 240.938 179.233 240.985C178.987 241.071 178.778 241.236 178.638 241.455C178.497 241.674 178.435 241.934 178.459 242.193C178.491 242.451 178.577 242.7 178.71 242.923C178.843 243.146 179.021 243.34 179.233 243.49C179.652 243.79 180.113 244.025 180.602 244.187C182.701 244.978 184.86 245.595 187.06 246.034V246.51C188.588 247.268 190.269 247.665 191.975 247.672C192.107 247.684 192.24 247.661 192.361 247.606C192.518 247.491 192.628 247.324 192.671 247.134C193.249 245.442 193.586 243.677 193.672 241.891C193.717 241.439 193.683 240.984 193.572 240.544C193.44 240.11 193.889 240.292 193.471 240.122" fill="#2F2E41"/>
<path d="M239.643 231.061C232.501 231.495 225.447 229.396 218.293 229.172C217.405 229.117 216.514 229.175 215.641 229.342C214.73 229.586 213.848 229.929 213.011 230.364C209.179 232.149 205.211 233.628 201.247 235.107L196.7 236.803C195.787 237.14 194.848 237.485 193.877 237.427C193.444 237.4 192.914 237.334 192.667 237.698C191.928 238.794 192.28 240.408 192.767 241.64C192.926 242.027 193.193 242.472 193.618 242.519C193.919 242.498 194.214 242.423 194.488 242.298C195.315 242.077 196.143 242.635 196.994 242.724C198.049 242.836 199.028 242.236 200.022 241.868C201.669 241.26 203.471 241.28 205.203 240.989C208.111 240.505 210.803 239.154 213.324 237.613C214.283 237.028 215.258 236.401 216.356 236.188C217.62 235.94 218.924 236.265 220.165 236.618C223.124 237.456 226.038 238.45 228.893 239.595C230.379 240.242 231.903 240.798 233.456 241.26C236.841 242.153 240.422 241.944 243.68 240.664C244.84 240.211 246.062 239.413 246.128 238.178C246.167 237.473 245.622 236.854 245.258 236.242C245.022 235.855 244.79 235.468 244.535 235.1C243.305 233.303 241.813 230.929 239.643 231.061Z" fill="#2F2E41"/>
<path opacity="0.1" d="M239.643 231.061C232.501 231.495 225.447 229.396 218.293 229.172C217.405 229.117 216.514 229.175 215.641 229.342C214.73 229.586 213.848 229.929 213.011 230.364C209.179 232.149 205.211 233.628 201.247 235.107L196.7 236.803C195.787 237.14 194.848 237.485 193.877 237.427C193.444 237.4 192.914 237.334 192.667 237.698C191.928 238.794 192.28 240.408 192.767 241.64C192.926 242.027 193.193 242.472 193.618 242.519C193.919 242.498 194.214 242.423 194.488 242.298C195.315 242.077 196.143 242.635 196.994 242.724C198.049 242.836 199.028 242.236 200.022 241.868C201.669 241.26 203.471 241.28 205.203 240.989C208.111 240.505 210.803 239.154 213.324 237.613C214.283 237.028 215.258 236.401 216.356 236.188C217.62 235.94 218.924 236.265 220.165 236.618C223.124 237.456 226.038 238.45 228.893 239.595C230.379 240.242 231.903 240.798 233.456 241.26C236.841 242.153 240.422 241.944 243.68 240.664C244.84 240.211 246.062 239.413 246.128 238.178C246.167 237.473 245.622 236.854 245.258 236.242C245.022 235.855 244.79 235.468 244.535 235.1C243.305 233.303 241.813 230.929 239.643 231.061Z" fill="#202636"/>
<path d="M203.571 238.705C204.69 239.084 205.817 239.435 206.951 239.758C207.589 238.709 208.78 237.981 209.051 236.784C209.066 236.732 209.066 236.677 209.051 236.625C209.021 236.575 208.977 236.534 208.923 236.509C208.108 236.059 207.203 235.795 206.274 235.735C205.54 235.688 205.207 236.455 204.874 236.993C204.758 237.21 203.869 238.805 203.571 238.705Z" fill="#FBBEBE"/>
<path d="M205.145 237.938C204.811 237.882 204.493 237.757 204.21 237.571C203.927 237.385 203.686 237.142 203.502 236.857C203.343 236.583 203.177 236.211 202.86 236.23C202.543 236.25 202.435 236.598 202.369 236.888C202.155 237.973 201.845 239.037 201.445 240.067C201.04 241.101 200.356 242.001 199.469 242.666C199.055 242.952 198.595 243.169 198.189 243.471C197.85 243.773 197.488 244.048 197.106 244.292C196.837 244.415 196.559 244.519 196.274 244.602C195.858 244.747 195.459 244.941 195.087 245.179C194.761 245.37 194.484 245.635 194.279 245.953C194.18 246.114 194.122 246.297 194.11 246.486C194.098 246.675 194.132 246.864 194.209 247.037C194.293 247.177 194.405 247.299 194.538 247.393C194.671 247.487 194.823 247.552 194.983 247.583C195.309 247.637 195.641 247.645 195.969 247.606C197.272 247.51 198.571 247.393 199.871 247.277C200.421 247.243 200.968 247.168 201.506 247.053C201.793 246.983 202.071 246.89 202.353 246.816C202.841 246.692 203.34 246.619 203.842 246.6C203.988 246.589 204.134 246.603 204.275 246.642C204.577 246.739 204.79 247.029 205.099 247.099C205.298 247.12 205.5 247.093 205.687 247.022C206.638 246.82 207.607 246.719 208.579 246.72C209.005 246.696 209.507 246.615 209.701 246.232C209.944 245.755 209.542 245.221 209.38 244.71C209.3 244.383 209.254 244.048 209.244 243.711C209.171 242.879 208.928 242.071 208.529 241.337C208.196 240.726 207.756 240.052 207.976 239.401C208.095 239.198 208.17 238.973 208.196 238.739C208.142 237.69 205.733 238.077 205.145 237.938Z" fill="#2F2E41"/>
<path d="M228.935 219.592C227.67 219.033 226.656 218.024 226.089 216.761C225.973 216.49 225.872 216.208 225.76 215.933C225.384 215.024 224.801 214.215 224.058 213.571C223.979 213.483 223.881 213.414 223.773 213.368C223.664 213.322 223.546 213.3 223.428 213.304C223.314 213.338 223.211 213.402 223.129 213.489C223.048 213.576 222.991 213.683 222.964 213.799C222.898 214.052 222.881 214.315 222.914 214.574C222.98 215.175 223.083 215.771 223.223 216.359L223.571 217.938C223.615 218.181 223.688 218.418 223.788 218.643C223.937 218.908 224.133 219.143 224.368 219.336C224.685 219.631 225.006 219.913 225.331 220.188C225.51 220.35 225.706 220.493 225.915 220.614C226.258 220.777 226.625 220.884 227.001 220.932C228.42 221.195 229.863 221.574 231.058 222.48C231.058 222.48 231.058 221.423 231.031 221.319C231.016 221.012 230.911 220.717 230.729 220.471C230.281 219.987 229.507 219.844 228.935 219.592Z" fill="#FBBEBE"/>
<path opacity="0.1" d="M228.935 219.592C227.67 219.033 226.656 218.024 226.089 216.761C225.973 216.49 225.872 216.208 225.76 215.933C225.384 215.024 224.801 214.215 224.058 213.571C223.979 213.483 223.881 213.414 223.773 213.368C223.664 213.322 223.546 213.3 223.428 213.304C223.314 213.338 223.211 213.402 223.129 213.489C223.048 213.576 222.991 213.683 222.964 213.799C222.898 214.052 222.881 214.315 222.914 214.574C222.98 215.175 223.083 215.771 223.223 216.359L223.571 217.938C223.615 218.181 223.688 218.418 223.788 218.643C223.937 218.908 224.133 219.143 224.368 219.336C224.685 219.631 225.006 219.913 225.331 220.188C225.51 220.35 225.706 220.493 225.915 220.614C226.258 220.777 226.625 220.884 227.001 220.932C228.42 221.195 229.863 221.574 231.058 222.48C231.058 222.48 231.058 221.423 231.031 221.319C231.016 221.012 230.911 220.717 230.729 220.471C230.281 219.987 229.507 219.844 228.935 219.592Z" fill="#202636"/>
<path d="M243.476 207.511C244.434 207.511 245.212 206.728 245.212 205.761C245.212 204.794 244.434 204.011 243.476 204.011C242.517 204.011 241.739 204.794 241.739 205.761C241.739 206.728 242.517 207.511 243.476 207.511Z" fill="#2F2E41"/>
<path d="M242.4 204.704C241.934 204.598 241.445 204.668 241.028 204.902C240.827 205.079 240.667 205.299 240.56 205.544C240.169 206.213 239.865 206.929 239.655 207.674C239.5 208.313 239.473 208.979 239.268 209.61C238.912 210.772 238 211.759 237.895 212.971C237.849 213.513 237.938 214.152 237.543 214.52C237.445 214.602 237.341 214.676 237.23 214.741C236.955 214.925 236.722 215.165 236.546 215.445C236.428 215.697 236.264 215.924 236.062 216.115C235.707 216.378 235.123 216.351 234.949 216.758C234.775 217.164 235.223 217.637 235.119 218.078C235.034 218.438 234.631 218.605 234.345 218.853C234.019 219.198 233.791 219.625 233.684 220.088C233.103 220.197 232.505 220.18 231.932 220.036C231.359 219.892 230.823 219.626 230.362 219.255C230.846 220.452 230.857 221.772 230.877 223.062C230.932 223.474 230.822 223.892 230.571 224.223C231.956 224.254 233.301 224.61 234.651 224.932C235.228 225.125 235.852 225.125 236.43 224.932C236.738 224.765 237.015 224.545 237.246 224.281C237.98 223.534 238.75 222.732 238.928 221.691C238.975 221.105 238.985 220.516 238.959 219.929C239.03 219.204 239.179 218.489 239.403 217.796C239.792 216.357 240.051 214.886 240.177 213.401C240.258 212.483 241.047 211.747 241.464 210.927C242.238 209.378 243.05 207.771 243.112 206.036C243.166 205.471 242.973 204.778 242.4 204.704Z" fill="#2F2E41"/>
<path opacity="0.1" d="M242.4 204.704C241.934 204.598 241.445 204.668 241.028 204.902C240.827 205.079 240.667 205.299 240.56 205.544C240.169 206.213 239.865 206.929 239.655 207.674C239.5 208.313 239.473 208.979 239.268 209.61C238.912 210.772 238 211.759 237.895 212.971C237.849 213.513 237.938 214.152 237.543 214.52C237.445 214.602 237.341 214.676 237.23 214.741C236.955 214.925 236.722 215.165 236.546 215.445C236.428 215.697 236.264 215.924 236.062 216.115C235.707 216.378 235.123 216.351 234.949 216.758C234.775 217.164 235.223 217.637 235.119 218.078C235.034 218.438 234.631 218.605 234.345 218.853C234.019 219.198 233.791 219.625 233.684 220.088C233.103 220.197 232.505 220.18 231.932 220.036C231.359 219.892 230.823 219.626 230.362 219.255C230.846 220.452 230.857 221.772 230.877 223.062C230.932 223.474 230.822 223.892 230.571 224.223C231.956 224.254 233.301 224.61 234.651 224.932C235.228 225.125 235.852 225.125 236.43 224.932C236.738 224.765 237.015 224.545 237.246 224.281C237.98 223.534 238.75 222.732 238.928 221.691C238.975 221.105 238.985 220.516 238.959 219.929C239.03 219.204 239.179 218.489 239.403 217.796C239.792 216.357 240.051 214.886 240.177 213.401C240.258 212.483 241.047 211.747 241.464 210.927C242.238 209.378 243.05 207.771 243.112 206.036C243.166 205.471 242.973 204.778 242.4 204.704Z" fill="#202636"/>
<path d="M240.776 232.567C239.287 231.859 238.2 230.538 236.998 229.408C234.701 227.247 231.893 225.721 229.48 223.696C227.883 222.357 226.452 220.796 224.693 219.673C223.145 218.685 221.39 218.069 219.565 217.873C219.357 217.836 219.143 217.847 218.939 217.904C218.708 218.007 218.507 218.167 218.355 218.368C217.575 219.248 216.882 220.201 216.286 221.214C213.227 226.411 208.885 230.782 205.284 235.618C205.169 235.732 205.1 235.886 205.093 236.048C205.085 236.21 205.138 236.369 205.242 236.494L205.973 237.93C206.383 238.732 207.04 239.669 207.906 239.51C208.304 239.395 208.659 239.168 208.931 238.855L212.218 235.707L215.663 232.408C217.682 230.472 219.735 228.498 221.054 226.027C222.083 227.812 223.908 228.982 225.161 230.62C225.636 231.239 226.023 231.924 226.449 232.583C227.133 233.64 227.906 234.631 228.68 235.618L232.636 240.671C233.135 241.391 233.754 242.02 234.465 242.53C235.401 243.122 236.541 243.281 237.644 243.378C239.128 243.514 240.619 243.568 242.11 243.541C243.247 243.521 244.43 243.448 245.436 242.94C246.441 242.433 247.296 241.392 247.242 240.257C247.18 239.663 246.986 239.09 246.673 238.581C245.277 235.986 243.429 233.818 240.776 232.567Z" fill="#2F2E41"/>
<path d="M244.542 208.317C245.279 208.317 245.876 207.715 245.876 206.973C245.876 206.231 245.279 205.629 244.542 205.629C243.805 205.629 243.208 206.231 243.208 206.973C243.208 207.715 243.805 208.317 244.542 208.317Z" fill="#E8E8F0"/>
<path d="M244.248 205.962C244.549 206.563 244.602 207.259 244.395 207.898C244.189 208.528 243.9 209.127 243.537 209.68C243.224 210.251 242.849 210.786 242.419 211.275C244.48 211.376 246.479 210.566 248.297 209.583C249.762 208.808 251.224 207.821 252.005 206.346C251.773 206.401 251.531 206.408 251.296 206.364C251.061 206.321 250.838 206.229 250.64 206.094C250.247 205.82 249.894 205.491 249.592 205.118L248.56 203.957C248.316 203.702 248.102 203.42 247.922 203.117C247.696 202.704 247.6 202.233 247.647 201.765C247.236 202.196 246.777 202.578 246.278 202.904C245.54 203.388 244.731 203.736 243.985 204.212C243.722 204.383 243.138 204.658 243.289 204.987C243.44 205.316 244.039 205.591 244.248 205.962Z" fill="#FBBEBE"/>
<path opacity="0.1" d="M244.248 205.962C244.549 206.563 244.602 207.259 244.395 207.898C244.189 208.528 243.9 209.127 243.537 209.68C243.224 210.251 242.849 210.786 242.419 211.275C244.48 211.376 246.479 210.566 248.297 209.583C249.762 208.808 251.224 207.821 252.005 206.346C251.773 206.401 251.531 206.408 251.296 206.364C251.061 206.321 250.838 206.229 250.64 206.094C250.247 205.82 249.894 205.491 249.592 205.118L248.56 203.957C248.316 203.702 248.102 203.42 247.922 203.117C247.696 202.704 247.6 202.233 247.647 201.765C247.236 202.196 246.777 202.578 246.278 202.904C245.54 203.388 244.731 203.736 243.985 204.212C243.722 204.383 243.138 204.658 243.289 204.987C243.44 205.316 244.039 205.591 244.248 205.962Z" fill="#202636"/>
<path d="M244.276 206.164C244.067 206.459 243.955 206.811 243.955 207.172C243.955 207.534 244.067 207.886 244.276 208.181C244.334 208.255 244.554 208.715 244.662 208.719C244.754 208.711 244.838 208.668 244.898 208.599C245.365 208.11 245.802 207.593 246.205 207.05C246.613 206.501 247.202 206.114 247.868 205.958C248.676 205.831 249.454 206.26 250.161 206.671C250.465 206.822 250.73 207.042 250.935 207.314C251.084 207.583 251.172 207.882 251.194 208.189C251.397 210.035 251.474 211.892 251.426 213.749C251.463 215.088 251.375 216.427 251.163 217.749C251.031 218.43 250.834 219.096 250.741 219.786C250.674 220.392 250.646 221.003 250.66 221.613V224.169C250.643 224.637 250.677 225.106 250.761 225.567C250.92 226.116 251.107 226.658 251.321 227.189C251.51 227.821 251.639 228.469 251.708 229.125L252.056 231.77C252.168 232.606 252.249 233.516 251.743 234.186C251.519 234.492 251.217 234.732 250.969 235.034C250.099 236.141 250.389 237.748 250.003 239.123C249.717 240.131 249.131 241.029 248.324 241.698C247.71 242.22 246.913 242.635 246.116 242.472C245.045 242.271 244.399 241.152 244.105 240.095C243.812 239.037 243.719 237.884 243.073 236.997C242.555 236.265 241.754 235.808 241.031 235.285C240.308 234.763 239.597 234.093 239.438 233.21C239.368 232.823 239.411 232.436 239.372 232.048C239.315 231.555 239.126 231.086 238.825 230.691C238.524 230.296 238.123 229.989 237.663 229.803C237.114 229.59 236.433 229.512 236.116 229.028C236.903 228.533 237.477 227.761 237.725 226.864C237.965 225.98 238.095 225.069 238.112 224.153L238.297 221.079C238.378 219.704 238.417 218.341 239.02 217.106C239.291 216.556 239.627 216.037 239.906 215.491C240.279 214.725 240.597 213.933 240.857 213.122C241.294 211.863 241.735 210.601 242.126 209.327C242.282 208.71 242.516 208.116 242.822 207.558C243.181 206.977 243.657 206.28 244.276 206.164Z" fill="#E8E8F0"/>
<path d="M237.458 226.14L238.27 226.167L238.444 224.939C238.467 224.694 238.525 224.453 238.614 224.223C238.749 223.981 238.906 223.751 239.082 223.538C239.883 222.407 239.825 220.905 240.022 219.53C240.285 217.699 241.051 215.979 241.809 214.291L243.386 210.771C243.527 210.482 243.64 210.18 243.723 209.869C243.792 209.526 243.824 209.177 243.82 208.828C243.82 208.286 243.997 206.307 244.009 205.761C244.009 205.56 243.568 205.672 243.475 205.494C243.278 205.107 243.007 206.16 242.636 206.392C242.286 206.66 242.031 207.033 241.909 207.457C241.569 208.344 241.36 209.277 241.043 210.167C240.765 211.079 240.258 211.905 239.57 212.564C239.249 212.851 238.874 213.075 238.568 213.377C237.586 214.349 237.493 215.883 237.458 217.249C237.435 218.097 237.277 226.14 237.458 226.14Z" fill="#2F2E41"/>
<path d="M249.156 204.696C248.383 205.006 247.934 205.858 247.714 206.686C247.493 207.515 247.401 208.39 246.975 209.126C245.985 210.853 243.46 211.356 242.76 213.223C242.582 213.853 242.487 214.504 242.478 215.159C242.354 216.494 241.913 217.788 241.782 219.124C241.714 220.163 241.738 221.206 241.855 222.241L242.741 232.784C242.913 234.337 242.822 235.908 242.474 237.431C243.382 237.562 244.309 237.409 245.127 236.993C245.958 236.606 246.716 236.095 247.513 235.653C248.886 234.879 250.401 234.356 251.6 233.33C251.818 233.16 252.005 232.955 252.153 232.722C252.346 232.279 252.476 231.811 252.54 231.332C252.642 230.959 252.771 230.594 252.927 230.24C253.371 229.177 253.758 228.092 254.087 226.988C254.312 226.255 254.489 225.509 254.616 224.754C254.713 224.153 254.763 223.545 254.818 222.941C254.879 221.991 255.068 221.054 255.378 220.154C256.145 218.006 256.58 215.753 256.666 213.474C256.693 213.145 256.671 212.813 256.6 212.491C256.467 212.099 256.288 211.725 256.067 211.376C255.699 210.682 255.479 209.92 255.131 209.219C254.357 207.631 252.969 206.427 251.519 205.416C250.776 204.925 249.961 204.39 249.156 204.696Z" fill="#2F2E41"/>
<path d="M230.694 221.9C230.066 221.571 229.498 221.139 229.012 220.622C228.792 220.362 228.626 220.072 228.386 219.816C227.818 219.21 227.081 218.789 226.271 218.608C225.466 218.431 224.643 218.351 223.819 218.372C223.269 218.334 222.716 218.401 222.191 218.57C221.927 218.656 221.69 218.808 221.5 219.011C221.311 219.214 221.176 219.462 221.108 219.731C220.988 220.39 221.418 221.028 221.932 221.447C222.41 221.838 222.973 222.112 223.575 222.248C224.067 222.333 224.562 222.391 225.06 222.422C227.984 222.728 230.594 224.32 233.154 225.772C235.405 227.044 237.699 228.236 240.037 229.346C240.13 228.645 240.169 227.938 240.153 227.231C240.153 226.705 240.115 225.899 239.616 225.59C239.036 225.226 238.069 225.144 237.427 224.928C235.92 224.435 234.448 223.84 233.022 223.146C232.214 222.755 231.441 222.341 230.694 221.9Z" fill="#FBBEBE"/>
<path d="M243.475 205.362C246.352 205.362 248.684 203.013 248.684 200.116C248.684 197.218 246.352 194.869 243.475 194.869C240.599 194.869 238.267 197.218 238.267 200.116C238.267 203.013 240.599 205.362 243.475 205.362Z" fill="#FBBEBE"/>
<path d="M250.644 210.644C250.23 211.227 249.891 211.861 249.635 212.53C248.989 213.858 247.98 214.996 247.477 216.402C246.944 217.861 246.963 219.6 245.93 220.75C245.723 220.924 245.567 221.152 245.478 221.408C245.472 221.568 245.454 221.727 245.424 221.885C245.277 222.303 244.592 222.322 244.465 222.748C244.43 222.872 244.465 223.007 244.403 223.135C244.299 223.41 243.939 223.449 243.695 223.615C243.189 223.96 243.309 224.758 242.922 225.253C242.765 225.437 242.562 225.576 242.334 225.657C242.105 225.737 241.86 225.755 241.623 225.71C241.149 225.61 240.692 225.439 240.269 225.203C240.12 225.119 239.956 225.068 239.786 225.052C239.584 225.056 239.388 225.122 239.225 225.242C238.262 225.853 237.81 227.069 237.817 228.215C237.885 229.362 238.156 230.486 238.618 231.538C238.672 231.719 238.763 231.888 238.885 232.033C239.202 232.37 239.759 232.316 240.184 232.126C240.583 231.89 241.007 231.7 241.449 231.561C242.253 231.414 243.042 231.971 243.858 231.925C244.455 231.834 245.017 231.585 245.486 231.205C246.314 230.701 247.056 230.067 247.682 229.327C248.038 228.858 248.301 228.324 248.614 227.824C249.014 227.211 249.453 226.623 249.929 226.066L252.934 222.384C253.235 222.035 253.506 221.661 253.742 221.265C254.013 220.73 254.224 220.166 254.372 219.585C254.694 218.614 254.903 217.61 254.995 216.591C255.01 215.748 254.936 214.906 254.774 214.078C254.673 213.255 254.456 212.451 254.129 211.689C253.46 210.334 251.87 209.211 250.644 210.644Z" fill="#2F2E41"/>
<path d="M261.108 203.809C261.112 202.879 260.896 201.961 260.476 201.131C260.057 200.301 259.446 199.583 258.695 199.035C258.672 197.384 258.065 195.794 256.98 194.55C255.896 193.305 254.406 192.486 252.775 192.24C252.46 190.675 251.603 189.273 250.356 188.279C249.109 187.285 247.552 186.764 245.959 186.807C244.366 186.85 242.839 187.454 241.647 188.514C240.456 189.574 239.676 191.021 239.445 192.6C237.28 192.112 235.3 192.747 234.94 194.083C234.553 195.481 236.1 197.115 238.389 197.734C239.107 197.937 239.854 198.012 240.598 197.955C241.13 198.738 241.82 199.4 242.623 199.9C243.426 200.401 244.325 200.727 245.261 200.859C245.536 202.122 246.158 203.283 247.056 204.211C247.955 205.14 249.094 205.798 250.346 206.113C250.693 206.952 251.23 207.697 251.916 208.289C251.916 208.452 251.889 208.619 251.889 208.789C251.864 209.384 251.96 209.978 252.17 210.536C252.381 211.093 252.701 211.602 253.113 212.032C253.525 212.462 254.019 212.804 254.567 213.038C255.114 213.271 255.703 213.392 256.298 213.392C256.893 213.392 257.481 213.271 258.029 213.038C258.576 212.804 259.07 212.462 259.482 212.032C259.894 211.602 260.215 211.093 260.425 210.536C260.635 209.978 260.731 209.384 260.706 208.789C260.706 208.121 260.562 207.46 260.285 206.853C260.828 205.931 261.113 204.88 261.108 203.809Z" fill="#F86D70"/>
<path opacity="0.1" d="M236.41 194.35C236.77 193.014 238.731 192.379 240.915 192.867C241.17 191.263 241.981 189.801 243.208 188.738C244.434 187.676 245.995 187.081 247.617 187.059C247.768 187.059 247.919 187.059 248.066 187.059C247.439 186.868 246.787 186.771 246.132 186.772C244.511 186.794 242.949 187.389 241.723 188.452C240.497 189.515 239.685 190.977 239.431 192.581C237.265 192.093 235.285 192.728 234.925 194.064C234.539 195.461 236.086 197.095 238.375 197.715C238.801 197.833 239.237 197.908 239.678 197.939C237.505 197.304 236.043 195.717 236.41 194.35Z" fill="#202636"/>
<path opacity="0.1" d="M253.36 209.06C253.36 208.89 253.36 208.723 253.387 208.557C252.701 207.966 252.163 207.222 251.817 206.385C250.565 206.067 249.427 205.406 248.529 204.478C247.631 203.549 247.009 202.389 246.731 201.126C245.795 200.995 244.896 200.669 244.093 200.169C243.289 199.669 242.6 199.006 242.068 198.222C241.635 198.257 241.199 198.245 240.769 198.188C241.303 198.909 241.976 199.517 242.747 199.975C243.519 200.434 244.373 200.735 245.262 200.859C245.537 202.122 246.159 203.283 247.057 204.212C247.956 205.14 249.095 205.799 250.347 206.114C250.694 206.952 251.231 207.697 251.917 208.29C251.917 208.452 251.89 208.619 251.89 208.789C251.87 209.976 252.32 211.123 253.142 211.979C253.964 212.835 255.09 213.331 256.275 213.358C255.41 213.024 254.668 212.434 254.147 211.666C253.625 210.898 253.351 209.989 253.36 209.06Z" fill="#202636"/>
<path d="M245.858 202.038C246.212 201.769 246.209 201.168 245.851 200.697C245.493 200.225 244.916 200.061 244.562 200.33C244.209 200.599 244.212 201.199 244.57 201.671C244.928 202.143 245.504 202.307 245.858 202.038Z" fill="#FBBEBE"/>
<path d="M121.347 228.145L126.498 225.113C125.801 223.922 124.911 222.855 123.864 221.958L114.15 224.982L121.76 220.502C119.876 219.469 117.755 218.944 115.607 218.981C113.459 219.017 111.357 219.613 109.508 220.71C107.66 221.807 106.129 223.366 105.065 225.236C104.001 227.105 103.442 229.219 103.442 231.371C103.442 238.213 108.984 238.449 115.817 238.449C122.65 238.449 128.191 238.213 128.191 231.371C128.195 229.636 127.833 227.921 127.128 226.337L121.347 228.145Z" fill="#47BAB8"/>
<path opacity="0.1" d="M122.658 234.797C122.109 234.247 121.496 233.765 120.832 233.361C119.9 232.738 118.93 232.103 117.828 231.893C116.861 231.708 115.863 231.866 114.877 231.808C113.165 231.704 111.553 230.964 110.357 229.733C109.653 229.005 109.1 228.11 108.253 227.553C107.306 226.99 106.19 226.785 105.105 226.976C104.791 227.02 104.48 227.083 104.173 227.166C103.689 228.514 103.441 229.937 103.442 231.371C103.442 238.213 108.984 238.449 115.817 238.449C119.135 238.449 122.143 238.395 124.367 237.554L123.98 236.861C123.629 236.12 123.184 235.426 122.658 234.797Z" fill="#202636"/>
</g>
<defs>
<linearGradient id="paint0_linear_284_633" x1="219.454" y1="247.672" x2="219.454" y2="185.858" gradientUnits="userSpaceOnUse">
<stop stop-color="#808080" stop-opacity="0.25"/>
<stop offset="0.54" stop-color="#808080" stop-opacity="0.12"/>
<stop offset="1" stop-color="#808080" stop-opacity="0.1"/>
</linearGradient>
<clipPath id="clip0_284_633">
<rect width="442" height="257" fill="white"/>
</clipPath>
</defs>
</svg>
