<svg xmlns="http://www.w3.org/2000/svg" xmlns:xlink="http://www.w3.org/1999/xlink" width="500" zoomAndPan="magnify" viewBox="0 0 375 374.999991" height="500" preserveAspectRatio="xMidYMid meet" version="1.0"><defs><clipPath id="7bdcd61aa4"><path d="M 1 18.75 L 374 18.75 L 374 356.25 L 1 356.25 Z M 1 18.75 " clip-rule="nonzero"/></clipPath></defs><g clip-path="url(#7bdcd61aa4)"><path fill="#000000" d="M 344.101562 78.78125 C 343.816406 78.355469 336.960938 67.34375 304.230469 22.769531 C 303.421875 21.667969 302.425781 20.785156 301.238281 20.117188 C 300.050781 19.449219 298.777344 19.058594 297.417969 18.9375 C 296.058594 18.820312 294.734375 18.988281 293.449219 19.441406 C 292.160156 19.894531 291.023438 20.59375 290.039062 21.539062 C 271.628906 39.007812 255.71875 58.511719 242.316406 80.058594 L 240.660156 82.894531 L 169.710938 26.171875 C 169.292969 25.828125 168.847656 25.519531 168.371094 25.25 C 167.898438 24.984375 167.40625 24.757812 166.894531 24.574219 C 166.382812 24.390625 165.859375 24.253906 165.324219 24.160156 C 164.789062 24.066406 164.25 24.019531 163.707031 24.019531 C 163.160156 24.019531 162.621094 24.066406 162.085938 24.160156 C 161.550781 24.253906 161.027344 24.390625 160.515625 24.574219 C 160.003906 24.757812 159.511719 24.984375 159.039062 25.25 C 158.566406 25.519531 158.117188 25.828125 157.699219 26.171875 L 93.988281 80.578125 L 93.988281 59.023438 C 94 57.8125 93.78125 56.648438 93.324219 55.523438 C 92.894531 54.40625 92.386719 53.324219 91.808594 52.273438 C 91.230469 51.222656 90.585938 50.21875 89.871094 49.253906 C 89.160156 48.289062 88.386719 47.378906 87.550781 46.519531 C 86.714844 45.660156 85.828125 44.859375 84.882812 44.117188 C 83.941406 43.378906 82.953125 42.703125 81.921875 42.09375 C 80.890625 41.484375 79.820312 40.949219 78.714844 40.480469 C 77.609375 40.015625 76.480469 39.625 75.324219 39.3125 C 74.167969 38.996094 72.992188 38.761719 71.804688 38.601562 C 70.328125 38.421875 68.84375 38.363281 67.355469 38.425781 C 65.871094 38.488281 64.398438 38.667969 62.9375 38.972656 C 61.480469 39.273438 60.058594 39.691406 58.667969 40.226562 C 57.28125 40.761719 55.941406 41.40625 54.660156 42.160156 C 53.375 42.910156 52.160156 43.765625 51.015625 44.714844 C 49.871094 45.667969 48.8125 46.703125 47.835938 47.828125 C 46.859375 48.953125 45.984375 50.148438 45.203125 51.417969 C 44.425781 52.683594 43.753906 54.007812 43.1875 55.382812 C 42.667969 56.542969 42.417969 57.753906 42.433594 59.023438 L 42.433594 124.160156 L 4.832031 156.066406 C 4.355469 156.464844 3.921875 156.910156 3.535156 157.394531 C 3.148438 157.878906 2.8125 158.398438 2.523438 158.949219 C 2.238281 159.5 2.011719 160.074219 1.839844 160.671875 C 1.664062 161.269531 1.554688 161.878906 1.5 162.496094 C 1.449219 163.113281 1.457031 163.734375 1.523438 164.351562 C 1.59375 164.96875 1.722656 165.570312 1.910156 166.164062 C 2.097656 166.757812 2.34375 167.324219 2.644531 167.867188 C 2.945312 168.410156 3.292969 168.921875 3.695312 169.394531 C 4.09375 169.871094 4.539062 170.300781 5.023438 170.691406 C 5.511719 171.078125 6.027344 171.414062 6.582031 171.699219 C 7.132812 171.984375 7.707031 172.214844 8.304688 172.386719 C 8.902344 172.558594 9.507812 172.671875 10.128906 172.722656 C 10.75 172.777344 11.367188 172.769531 11.984375 172.699219 C 12.601562 172.628906 13.207031 172.5 13.800781 172.3125 C 14.390625 172.125 14.960938 171.882812 15.503906 171.582031 C 16.046875 171.28125 16.558594 170.929688 17.03125 170.53125 L 57.992188 135.835938 C 59.105469 134.957031 59.972656 133.886719 60.601562 132.621094 C 61.230469 131.355469 61.558594 130.015625 61.589844 128.601562 L 61.589844 61.292969 C 62.007812 60.621094 62.511719 60.019531 63.097656 59.488281 C 63.683594 58.953125 64.332031 58.511719 65.042969 58.164062 C 65.753906 57.8125 66.496094 57.566406 67.277344 57.421875 C 68.054688 57.28125 68.839844 57.246094 69.628906 57.320312 C 70.8125 57.507812 71.898438 57.9375 72.890625 58.605469 C 73.886719 59.277344 74.6875 60.125 75.304688 61.148438 L 75.304688 100.996094 C 75.304688 101.902344 75.433594 102.785156 75.6875 103.652344 C 75.941406 104.519531 76.308594 105.335938 76.796875 106.097656 C 77.285156 106.859375 77.871094 107.535156 78.550781 108.128906 C 79.234375 108.722656 79.984375 109.207031 80.808594 109.585938 C 81.628906 109.964844 82.484375 110.21875 83.378906 110.351562 C 84.273438 110.484375 85.171875 110.488281 86.066406 110.363281 C 86.960938 110.238281 87.820312 109.992188 88.644531 109.621094 C 89.46875 109.25 90.226562 108.769531 90.914062 108.183594 L 164.226562 45.976562 L 231.53125 99.769531 C 229.015625 104.929688 226.773438 110.207031 224.816406 115.605469 L 169.996094 71.359375 C 169.574219 71.007812 169.125 70.695312 168.648438 70.425781 C 168.171875 70.152344 167.675781 69.921875 167.160156 69.734375 C 166.644531 69.546875 166.117188 69.40625 165.578125 69.3125 C 165.035156 69.21875 164.492188 69.171875 163.941406 69.171875 C 163.394531 69.171875 162.847656 69.21875 162.308594 69.3125 C 161.765625 69.40625 161.238281 69.546875 160.722656 69.734375 C 160.207031 69.921875 159.710938 70.152344 159.234375 70.425781 C 158.757812 70.695312 158.308594 71.007812 157.886719 71.359375 L 26.160156 183.292969 C 25.109375 184.191406 24.296875 185.269531 23.71875 186.523438 C 23.140625 187.777344 22.851562 189.097656 22.851562 190.476562 L 22.851562 346.9375 C 22.851562 347.558594 22.910156 348.171875 23.03125 348.78125 C 23.152344 349.390625 23.332031 349.980469 23.570312 350.554688 C 23.808594 351.128906 24.101562 351.675781 24.445312 352.191406 C 24.789062 352.707031 25.183594 353.183594 25.621094 353.621094 C 26.0625 354.0625 26.539062 354.453125 27.054688 354.796875 C 27.570312 355.144531 28.117188 355.433594 28.691406 355.671875 C 29.265625 355.910156 29.855469 356.089844 30.464844 356.210938 C 31.074219 356.332031 31.6875 356.390625 32.308594 356.390625 L 119.386719 356.390625 C 120.007812 356.390625 120.625 356.332031 121.230469 356.210938 C 121.839844 356.089844 122.433594 355.910156 123.007812 355.671875 C 123.582031 355.433594 124.125 355.144531 124.640625 354.796875 C 125.160156 354.453125 125.636719 354.0625 126.074219 353.621094 C 126.515625 353.183594 126.90625 352.707031 127.253906 352.191406 C 127.597656 351.675781 127.890625 351.128906 128.125 350.554688 C 128.363281 349.980469 128.542969 349.390625 128.664062 348.78125 C 128.785156 348.171875 128.847656 347.558594 128.847656 346.9375 L 128.847656 264.878906 C 131.476562 262.90625 134.253906 261.160156 137.175781 259.644531 C 140.09375 258.132812 143.121094 256.867188 146.25 255.855469 C 149.382812 254.839844 152.574219 254.09375 155.828125 253.609375 C 159.082031 253.125 162.355469 252.910156 165.644531 252.96875 C 168.65625 253.0625 171.644531 253.390625 174.605469 253.949219 C 177.570312 254.507812 180.472656 255.289062 183.3125 256.296875 C 186.152344 257.300781 188.898438 258.519531 191.550781 259.953125 C 194.203125 261.382812 196.730469 263.011719 199.132812 264.832031 L 199.132812 346.9375 C 199.132812 347.558594 199.191406 348.171875 199.3125 348.78125 C 199.433594 349.390625 199.613281 349.980469 199.851562 350.554688 C 200.089844 351.128906 200.382812 351.675781 200.726562 352.191406 C 201.070312 352.707031 201.464844 353.183594 201.902344 353.621094 C 202.34375 354.0625 202.820312 354.453125 203.335938 354.796875 C 203.851562 355.144531 204.398438 355.433594 204.972656 355.671875 C 205.546875 355.910156 206.136719 356.089844 206.746094 356.210938 C 207.355469 356.332031 207.96875 356.390625 208.589844 356.390625 L 295.761719 356.390625 C 296.382812 356.390625 297 356.332031 297.609375 356.210938 C 298.21875 356.089844 298.808594 355.910156 299.382812 355.671875 C 299.957031 355.433594 300.5 355.144531 301.019531 354.796875 C 301.535156 354.453125 302.011719 354.0625 302.453125 353.621094 C 302.890625 353.183594 303.28125 352.707031 303.628906 352.191406 C 303.972656 351.675781 304.265625 351.128906 304.503906 350.554688 C 304.738281 349.980469 304.917969 349.390625 305.039062 348.78125 C 305.160156 348.171875 305.222656 347.558594 305.222656 346.9375 L 305.222656 238.21875 C 309.074219 237.542969 312.84375 236.550781 316.53125 235.242188 C 320.21875 233.9375 323.773438 232.332031 327.1875 230.429688 C 330.605469 228.527344 333.84375 226.351562 336.894531 223.90625 C 339.949219 221.460938 342.777344 218.78125 345.378906 215.863281 C 363.683594 196.386719 374.941406 166.890625 373.378906 142.453125 C 372.339844 124.441406 362.925781 109.175781 344.101562 78.78125 Z M 218.144531 337.484375 L 218.144531 260.386719 C 218.144531 259.042969 217.867188 257.757812 217.3125 256.527344 C 216.761719 255.300781 215.984375 254.242188 214.976562 253.34375 C 213.238281 251.808594 211.433594 250.351562 209.5625 248.976562 C 207.691406 247.601562 205.761719 246.316406 203.777344 245.117188 C 201.789062 243.917969 199.75 242.808594 197.664062 241.792969 C 195.574219 240.777344 193.445312 239.859375 191.273438 239.039062 C 189.101562 238.214844 186.898438 237.492188 184.664062 236.871094 C 182.425781 236.246094 180.164062 235.726562 177.882812 235.308594 C 175.597656 234.890625 173.300781 234.578125 170.988281 234.367188 C 168.675781 234.15625 166.359375 234.050781 164.035156 234.050781 C 161.714844 234.050781 159.398438 234.15625 157.085938 234.367188 C 154.773438 234.578125 152.476562 234.890625 150.191406 235.308594 C 147.90625 235.726562 145.648438 236.246094 143.410156 236.871094 C 141.171875 237.492188 138.96875 238.214844 136.796875 239.039062 C 134.628906 239.859375 132.496094 240.777344 130.410156 241.792969 C 128.324219 242.808594 126.285156 243.917969 124.296875 245.117188 C 122.308594 246.316406 120.382812 247.601562 118.511719 248.976562 C 116.640625 250.351562 114.835938 251.808594 113.097656 253.34375 C 112.085938 254.246094 111.300781 255.3125 110.75 256.550781 C 110.195312 257.785156 109.921875 259.082031 109.925781 260.4375 L 109.925781 337.484375 L 41.769531 337.484375 L 41.769531 195.0625 L 164.179688 91.070312 L 217.671875 134.132812 C 218.210938 134.570312 218.792969 134.929688 219.421875 135.21875 C 219.421875 136.117188 219.042969 137.0625 218.902344 137.960938 L 218.902344 138.625 C 218.902344 139.949219 218.476562 140.988281 218.382812 142.121094 C 216.015625 165.757812 226.421875 194.683594 244.300781 214.394531 C 246.980469 217.542969 249.910156 220.433594 253.09375 223.070312 C 256.28125 225.707031 259.667969 228.046875 263.261719 230.089844 C 266.855469 232.132812 270.597656 233.847656 274.492188 235.238281 C 278.382812 236.625 282.371094 237.667969 286.445312 238.363281 L 286.445312 337.625 Z M 331.664062 202.910156 C 329.433594 205.5 326.96875 207.839844 324.257812 209.925781 C 321.550781 212.011719 318.660156 213.800781 315.585938 215.292969 C 312.507812 216.785156 309.3125 217.949219 306 218.785156 C 302.683594 219.621094 299.320312 220.113281 295.90625 220.257812 C 292.277344 220.132812 288.699219 219.632812 285.175781 218.75 C 281.65625 217.871094 278.261719 216.632812 275.003906 215.035156 C 271.742188 213.441406 268.683594 211.519531 265.832031 209.277344 C 262.976562 207.035156 260.386719 204.519531 258.066406 201.726562 C 243.875 185.988281 235.125 162.210938 236.972656 144.011719 C 236.972656 143.257812 236.972656 142.59375 237.300781 141.695312 L 237.300781 141.035156 C 239.121094 131.929688 241.785156 123.078125 245.300781 114.484375 C 248.820312 105.890625 253.121094 97.707031 258.207031 89.9375 C 268.792969 72.816406 281.121094 57.0625 295.195312 42.667969 C 321.683594 78.875 327.738281 88.519531 327.785156 88.613281 C 345.378906 116.453125 353.75 130.351562 354.839844 143.632812 C 355.832031 162.871094 346.417969 187.261719 331.664062 202.910156 Z M 331.664062 202.910156 " fill-opacity="1" fill-rule="nonzero"/></g><path fill="#000000" d="M 285.925781 189.011719 C 284.683594 188.851562 283.46875 188.574219 282.285156 188.175781 C 281.097656 187.773438 279.964844 187.261719 278.878906 186.636719 C 277.796875 186.011719 276.785156 185.289062 275.84375 184.460938 C 274.90625 183.636719 274.054688 182.726562 273.296875 181.734375 C 272.039062 179.953125 271.136719 178.011719 270.589844 175.902344 C 270.046875 173.792969 269.890625 171.65625 270.125 169.492188 C 270.195312 168.871094 270.203125 168.25 270.152344 167.628906 C 270.097656 167.003906 269.984375 166.394531 269.808594 165.792969 C 269.636719 165.195312 269.40625 164.617188 269.121094 164.0625 C 268.832031 163.507812 268.492188 162.988281 268.105469 162.5 C 267.714844 162.011719 267.28125 161.566406 266.804688 161.164062 C 266.324219 160.761719 265.8125 160.410156 265.265625 160.109375 C 264.71875 159.808594 264.148438 159.5625 263.554688 159.375 C 262.957031 159.183594 262.351562 159.054688 261.730469 158.984375 C 261.109375 158.914062 260.488281 158.90625 259.867188 158.957031 C 259.242188 159.011719 258.632812 159.125 258.03125 159.296875 C 257.433594 159.46875 256.855469 159.699219 256.300781 159.984375 C 255.742188 160.269531 255.222656 160.609375 254.734375 160.996094 C 254.246094 161.386719 253.800781 161.820312 253.394531 162.296875 C 252.992188 162.773438 252.640625 163.285156 252.335938 163.832031 C 252.035156 164.375 251.789062 164.945312 251.597656 165.542969 C 251.410156 166.136719 251.277344 166.742188 251.207031 167.363281 C 250.96875 169.601562 250.933594 171.84375 251.105469 174.085938 C 251.273438 176.332031 251.648438 178.542969 252.21875 180.71875 C 252.792969 182.898438 253.558594 185.003906 254.519531 187.039062 C 255.476562 189.078125 256.613281 191.011719 257.925781 192.839844 C 259.464844 194.902344 261.199219 196.789062 263.125 198.5 C 265.054688 200.207031 267.132812 201.703125 269.363281 202.988281 C 271.597656 204.273438 273.9375 205.316406 276.382812 206.125 C 278.828125 206.929688 281.332031 207.480469 283.890625 207.777344 L 285.027344 207.777344 C 285.648438 207.816406 286.265625 207.792969 286.882812 207.707031 C 287.5 207.621094 288.101562 207.480469 288.6875 207.277344 C 289.277344 207.074219 289.839844 206.8125 290.378906 206.5 C 290.914062 206.1875 291.414062 205.824219 291.882812 205.410156 C 292.347656 204.996094 292.765625 204.542969 293.144531 204.046875 C 293.519531 203.554688 293.84375 203.027344 294.117188 202.464844 C 294.386719 201.90625 294.601562 201.328125 294.761719 200.726562 C 294.917969 200.125 295.015625 199.511719 295.054688 198.890625 C 295.089844 198.269531 295.066406 197.652344 294.980469 197.035156 C 294.898438 196.421875 294.753906 195.820312 294.550781 195.230469 C 294.347656 194.644531 294.089844 194.082031 293.773438 193.542969 C 293.460938 193.007812 293.097656 192.507812 292.683594 192.039062 C 292.269531 191.574219 291.816406 191.15625 291.320312 190.777344 C 290.824219 190.402344 290.296875 190.078125 289.738281 189.808594 C 289.179688 189.535156 288.597656 189.320312 287.996094 189.164062 C 287.394531 189.003906 286.78125 188.90625 286.160156 188.871094 Z M 285.925781 189.011719 " fill-opacity="1" fill-rule="nonzero"/></svg>