<svg xmlns="http://www.w3.org/2000/svg" xmlns:xlink="http://www.w3.org/1999/xlink" width="500" zoomAndPan="magnify" viewBox="0 0 375 374.999991" height="500" preserveAspectRatio="xMidYMid meet" version="1.0"><path fill="#000000" d="M 100.175781 115.652344 C 100.757812 117.40625 101.925781 118.574219 103.679688 119.449219 L 129.378906 129.378906 L 131.132812 155.375 C 131.132812 157.125 132.007812 158.585938 133.46875 159.753906 C 134.929688 160.628906 136.683594 161.214844 138.140625 160.628906 L 165.011719 154.207031 L 182.828125 174.359375 C 183.996094 175.527344 185.457031 176.402344 187.207031 176.402344 C 188.960938 176.402344 190.421875 175.816406 191.589844 174.359375 L 209.402344 154.207031 L 236.273438 160.628906 C 238.027344 160.921875 239.777344 160.628906 240.945312 159.753906 C 242.40625 158.878906 243.28125 157.125 243.28125 155.375 L 245.035156 129.378906 L 270.734375 119.449219 C 272.488281 118.867188 273.65625 117.40625 274.242188 115.652344 C 274.824219 113.902344 274.53125 112.148438 273.65625 110.6875 L 259.054688 88.492188 L 273.65625 66.296875 C 274.53125 64.835938 274.824219 63.085938 274.242188 61.332031 C 273.65625 59.578125 272.488281 58.410156 270.734375 57.535156 L 245.035156 47.605469 L 243.28125 21.613281 C 243.28125 19.859375 242.40625 18.398438 240.945312 17.230469 C 239.484375 16.355469 237.734375 15.769531 236.273438 16.355469 L 209.402344 22.78125 L 191.589844 2.628906 C 189.253906 0 185.164062 0 182.828125 2.628906 L 165.011719 22.78125 L 138.140625 16.355469 C 136.390625 16.0625 134.636719 16.355469 133.46875 17.230469 C 132.007812 18.109375 131.132812 19.859375 131.132812 21.613281 L 129.378906 47.605469 L 103.679688 57.535156 C 101.925781 58.121094 100.757812 59.578125 100.175781 61.332031 C 99.589844 63.085938 99.882812 64.835938 100.757812 66.296875 L 115.363281 88.492188 L 100.757812 110.6875 C 99.882812 112.148438 99.589844 114.195312 100.175781 115.652344 Z M 127.335938 91.996094 C 128.503906 89.953125 128.503906 87.617188 127.335938 85.574219 L 114.484375 66.296875 L 136.683594 57.828125 C 138.726562 56.949219 140.1875 55.199219 140.480469 52.863281 L 142.230469 30.082031 L 165.886719 35.628906 C 167.933594 36.214844 170.269531 35.339844 171.730469 33.878906 L 187.5 15.769531 L 203.269531 33.585938 C 204.730469 35.339844 206.777344 35.921875 209.113281 35.339844 L 232.769531 29.789062 L 234.519531 52.570312 C 234.8125 54.90625 236.273438 56.660156 238.316406 57.535156 L 260.515625 66.003906 L 247.957031 85.28125 C 246.789062 87.324219 246.789062 89.660156 247.957031 91.707031 L 260.515625 110.980469 L 238.316406 119.449219 C 236.273438 120.328125 234.8125 122.078125 234.519531 124.414062 L 232.769531 147.195312 L 209.113281 141.648438 C 207.066406 141.0625 204.730469 141.9375 203.269531 143.398438 L 187.5 161.800781 L 171.730469 143.984375 C 170.5625 142.816406 169.101562 141.9375 167.347656 141.9375 C 166.765625 141.9375 166.472656 141.9375 165.886719 142.230469 L 142.230469 147.78125 L 140.769531 124.707031 C 140.480469 122.371094 139.019531 120.621094 136.972656 119.742188 L 114.484375 111.273438 Z M 127.335938 91.996094 " fill-opacity="1" fill-rule="nonzero"/><path fill="#000000" d="M 187.5 135.515625 C 213.199219 135.515625 234.230469 114.484375 234.230469 88.785156 C 234.230469 63.085938 213.199219 42.054688 187.5 42.054688 C 161.800781 42.054688 140.769531 63.085938 140.769531 88.785156 C 140.769531 114.484375 161.800781 135.515625 187.5 135.515625 Z M 187.5 53.738281 C 206.777344 53.738281 222.546875 69.507812 222.546875 88.785156 C 222.546875 108.0625 206.777344 123.832031 187.5 123.832031 C 168.222656 123.832031 152.453125 108.0625 152.453125 88.785156 C 152.453125 69.507812 168.222656 53.738281 187.5 53.738281 Z M 187.5 53.738281 " fill-opacity="1" fill-rule="nonzero"/><path fill="#000000" d="M 216.707031 334.113281 L 158.292969 334.113281 C 155.082031 334.113281 152.453125 336.742188 152.453125 339.953125 L 152.453125 369.160156 C 152.453125 372.371094 155.082031 375 158.292969 375 C 161.507812 375 164.136719 372.371094 164.136719 369.160156 L 164.136719 345.792969 L 210.863281 345.792969 L 210.863281 369.160156 C 210.863281 372.371094 213.492188 375 216.707031 375 C 219.917969 375 222.546875 372.371094 222.546875 369.160156 L 222.546875 339.953125 C 222.546875 336.742188 219.917969 334.113281 216.707031 334.113281 Z M 216.707031 334.113281 " fill-opacity="1" fill-rule="nonzero"/><path fill="#000000" d="M 321.847656 310.746094 L 263.433594 310.746094 C 260.222656 310.746094 257.59375 313.375 257.59375 316.589844 L 257.59375 345.792969 C 257.59375 349.007812 260.222656 351.636719 263.433594 351.636719 L 321.847656 351.636719 C 325.058594 351.636719 327.6875 349.007812 327.6875 345.792969 L 327.6875 316.589844 C 327.6875 313.375 325.058594 310.746094 321.847656 310.746094 Z M 316.003906 339.953125 L 269.277344 339.953125 L 269.277344 322.429688 L 316.003906 322.429688 Z M 316.003906 339.953125 " fill-opacity="1" fill-rule="nonzero"/><path fill="#000000" d="M 111.566406 310.746094 L 53.152344 310.746094 C 49.941406 310.746094 47.3125 313.375 47.3125 316.589844 L 47.3125 345.792969 C 47.3125 349.007812 49.941406 351.636719 53.152344 351.636719 L 111.566406 351.636719 C 114.777344 351.636719 117.40625 349.007812 117.40625 345.792969 L 117.40625 316.589844 C 117.40625 313.375 114.777344 310.746094 111.566406 310.746094 Z M 105.722656 339.953125 L 58.996094 339.953125 L 58.996094 322.429688 L 105.722656 322.429688 Z M 105.722656 339.953125 " fill-opacity="1" fill-rule="nonzero"/><path fill="#000000" d="M 373.246094 286.800781 L 344.042969 245.910156 C 342.875 244.449219 341.121094 243.574219 339.371094 243.574219 L 216.121094 243.574219 L 191.878906 216.414062 C 189.542969 214.078125 185.457031 214.078125 183.121094 216.414062 L 158.878906 243.574219 L 35.628906 243.574219 C 33.878906 243.574219 31.835938 244.449219 30.957031 245.910156 L 1.753906 286.800781 C 0.585938 288.550781 0.292969 290.886719 1.167969 292.933594 C 2.042969 294.976562 4.089844 296.144531 6.425781 296.144531 L 23.949219 296.144531 L 23.949219 369.160156 C 23.949219 372.371094 26.578125 375 29.789062 375 C 33.003906 375 35.628906 372.371094 35.628906 369.160156 L 35.628906 296.144531 L 111.859375 296.144531 L 110.105469 298.1875 C 108.644531 299.941406 108.0625 302.277344 109.230469 304.324219 C 110.105469 306.367188 112.148438 307.828125 114.484375 307.828125 L 126.167969 307.828125 L 126.167969 369.160156 C 126.167969 372.371094 128.796875 375 132.007812 375 C 135.222656 375 137.851562 372.371094 137.851562 369.160156 L 137.851562 307.828125 L 237.148438 307.828125 L 237.148438 369.160156 C 237.148438 372.371094 239.777344 375 242.992188 375 C 246.203125 375 248.832031 372.371094 248.832031 369.160156 L 248.832031 307.828125 L 260.515625 307.828125 C 262.851562 307.828125 264.894531 306.367188 265.769531 304.324219 C 266.648438 302.277344 266.355469 299.648438 264.894531 298.1875 L 263.140625 296.144531 L 339.371094 296.144531 L 339.371094 369.160156 C 339.371094 372.371094 341.996094 375 345.210938 375 C 348.421875 375 351.050781 372.371094 351.050781 369.160156 L 351.050781 296.144531 L 368.574219 296.144531 C 370.617188 296.144531 372.664062 294.976562 373.832031 292.933594 C 374.707031 290.886719 374.707031 288.550781 373.246094 286.800781 Z M 122.371094 284.460938 L 17.816406 284.460938 L 38.550781 255.257812 L 148.363281 255.257812 Z M 127.628906 296.144531 L 187.5 228.972656 L 247.371094 296.144531 Z M 252.628906 284.460938 L 226.636719 255.257812 L 336.449219 255.257812 L 357.183594 284.460938 Z M 252.628906 284.460938 " fill-opacity="1" fill-rule="nonzero"/><path fill="#000000" d="M 326.226562 212.324219 C 327.394531 213.785156 328.855469 214.371094 330.609375 214.371094 C 332.359375 214.371094 334.113281 213.492188 334.988281 212.324219 L 349.589844 194.800781 C 351.636719 192.464844 351.34375 188.667969 348.714844 186.625 C 346.378906 184.578125 342.582031 184.871094 340.539062 187.5 L 336.15625 192.757812 L 336.15625 188.085938 C 336.15625 182.535156 333.527344 179.324219 331.777344 177.277344 C 330.609375 175.816406 330.316406 175.234375 330.316406 174.066406 C 330.316406 172.898438 330.609375 172.3125 331.777344 170.851562 C 333.527344 168.808594 336.15625 165.597656 336.15625 160.046875 C 336.15625 154.496094 333.527344 151.285156 331.777344 149.242188 C 330.609375 147.78125 330.316406 147.195312 330.316406 146.027344 C 330.316406 144.566406 330.609375 144.277344 331.777344 142.816406 C 333.527344 140.769531 336.15625 137.558594 336.15625 132.007812 C 336.15625 126.460938 333.527344 123.246094 331.777344 121.203125 C 330.609375 119.742188 330.316406 119.160156 330.316406 117.992188 C 330.316406 116.53125 330.609375 116.238281 331.777344 114.777344 C 333.527344 112.734375 336.15625 109.519531 336.15625 103.972656 C 336.15625 100.757812 333.527344 98.132812 330.316406 98.132812 C 327.101562 98.132812 324.472656 100.757812 324.472656 103.972656 C 324.472656 105.433594 324.183594 105.722656 323.015625 107.183594 C 321.261719 109.230469 318.632812 112.441406 318.632812 117.992188 C 318.632812 123.539062 321.261719 126.753906 323.015625 128.796875 C 324.183594 130.257812 324.472656 130.839844 324.472656 132.007812 C 324.472656 133.46875 324.183594 133.761719 323.015625 135.222656 C 321.261719 137.265625 318.632812 140.480469 318.632812 146.027344 C 318.632812 151.578125 321.261719 154.789062 323.015625 156.835938 C 324.183594 158.292969 324.472656 158.878906 324.472656 160.046875 C 324.472656 161.507812 324.183594 161.800781 323.015625 163.257812 C 321.261719 165.304688 318.632812 168.515625 318.632812 174.066406 C 318.632812 179.613281 321.261719 182.828125 323.015625 184.871094 C 324.183594 186.332031 324.472656 186.914062 324.472656 188.085938 L 324.472656 192.757812 L 320.09375 187.5 C 318.050781 185.164062 314.253906 184.578125 311.914062 186.625 C 309.578125 188.667969 308.996094 192.464844 311.039062 194.800781 Z M 326.226562 212.324219 " fill-opacity="1" fill-rule="nonzero"/><path fill="#000000" d="M 272.195312 148.949219 C 272.195312 150.410156 271.902344 150.699219 270.734375 152.160156 C 268.984375 154.207031 266.355469 157.417969 266.355469 162.96875 C 266.355469 168.515625 268.984375 171.730469 270.734375 173.773438 C 271.902344 175.234375 272.195312 175.816406 272.195312 176.984375 C 272.195312 178.445312 271.902344 178.738281 270.734375 180.199219 C 268.984375 182.242188 266.355469 185.457031 266.355469 191.003906 C 266.355469 196.554688 268.984375 199.765625 270.734375 201.8125 C 271.902344 203.269531 272.195312 203.855469 272.195312 205.023438 L 272.195312 209.695312 L 267.816406 204.4375 C 265.769531 202.101562 261.972656 201.519531 259.636719 203.5625 C 257.300781 205.609375 256.71875 209.402344 258.761719 211.742188 L 273.363281 229.265625 C 274.53125 230.722656 275.992188 231.308594 277.746094 231.308594 C 279.496094 231.308594 281.25 230.433594 282.125 229.265625 L 296.730469 211.742188 C 298.773438 209.402344 298.480469 205.609375 295.851562 203.5625 C 293.515625 201.519531 289.71875 201.8125 287.675781 204.4375 L 283.878906 209.988281 L 283.878906 205.316406 C 283.878906 199.765625 281.25 196.554688 279.496094 194.507812 C 278.328125 192.757812 278.039062 192.464844 278.039062 191.003906 C 278.039062 189.542969 278.328125 189.253906 279.496094 187.792969 C 281.25 185.746094 283.878906 182.535156 283.878906 176.984375 C 283.878906 171.4375 281.25 168.222656 279.496094 166.179688 C 278.328125 164.71875 278.039062 164.425781 278.039062 162.96875 C 278.039062 161.507812 278.328125 161.214844 279.496094 159.753906 C 281.25 157.710938 283.878906 154.496094 283.878906 148.949219 C 283.878906 145.734375 281.25 143.109375 278.039062 143.109375 C 274.824219 143.109375 272.195312 145.734375 272.195312 148.949219 Z M 272.195312 148.949219 " fill-opacity="1" fill-rule="nonzero"/><path fill="#000000" d="M 40.011719 212.324219 C 41.179688 213.785156 42.640625 214.371094 44.390625 214.371094 C 46.144531 214.371094 47.898438 213.492188 48.773438 212.324219 L 63.375 194.800781 C 65.421875 192.464844 65.128906 188.667969 62.5 186.625 C 60.164062 184.578125 56.367188 184.871094 54.324219 187.5 L 50.234375 192.464844 L 50.234375 187.792969 C 50.234375 186.332031 50.527344 186.039062 51.695312 184.578125 C 53.445312 182.242188 56.074219 179.03125 56.074219 173.480469 C 56.074219 167.933594 53.445312 164.71875 51.695312 162.675781 C 50.527344 161.214844 50.234375 160.628906 50.234375 159.460938 C 50.234375 158.003906 50.527344 157.710938 51.695312 156.25 C 53.445312 154.207031 56.074219 150.992188 56.074219 145.445312 C 56.074219 139.894531 53.445312 136.683594 51.695312 134.636719 C 50.527344 133.175781 50.234375 132.59375 50.234375 131.425781 C 50.234375 129.964844 50.527344 129.671875 51.695312 128.210938 C 53.445312 126.167969 56.074219 122.957031 56.074219 117.40625 C 56.074219 111.859375 53.445312 108.644531 51.695312 106.601562 C 50.527344 105.140625 50.234375 104.554688 50.234375 103.386719 C 50.234375 100.175781 47.605469 97.546875 44.390625 97.546875 C 41.179688 97.546875 38.550781 100.175781 38.550781 103.386719 C 38.550781 108.9375 41.179688 112.148438 42.933594 114.195312 C 44.101562 115.652344 44.390625 116.238281 44.390625 117.40625 C 44.390625 118.867188 44.101562 119.160156 42.933594 120.621094 C 41.179688 122.664062 38.550781 125.875 38.550781 131.425781 C 38.550781 136.972656 41.179688 140.1875 42.933594 142.230469 C 44.101562 143.691406 44.390625 144.277344 44.390625 145.445312 C 44.390625 146.902344 44.101562 147.195312 42.933594 148.65625 C 41.179688 150.699219 38.550781 153.914062 38.550781 159.460938 C 38.550781 165.011719 41.179688 168.222656 42.933594 170.269531 C 44.101562 171.730469 44.390625 172.3125 44.390625 173.480469 C 44.390625 174.648438 44.101562 175.234375 42.933594 176.695312 C 41.179688 178.738281 38.550781 181.949219 38.550781 187.5 L 38.550781 192.171875 L 34.171875 186.914062 C 32.125 184.578125 28.328125 183.996094 25.992188 186.039062 C 23.65625 188.085938 23.074219 191.878906 25.117188 194.21875 Z M 40.011719 212.324219 " fill-opacity="1" fill-rule="nonzero"/><path fill="#000000" d="M 92.582031 229.847656 C 93.75 231.308594 95.210938 231.890625 96.960938 231.890625 C 98.714844 231.890625 100.46875 231.015625 101.34375 229.847656 L 115.945312 212.324219 C 117.992188 209.988281 117.699219 206.191406 115.070312 204.148438 C 112.441406 202.101562 108.9375 202.394531 106.890625 205.023438 L 102.804688 209.988281 L 102.804688 205.316406 C 102.804688 203.855469 103.097656 203.5625 104.265625 202.101562 C 106.015625 199.765625 108.644531 196.554688 108.644531 191.003906 C 108.644531 185.457031 106.015625 182.242188 104.265625 180.199219 C 103.097656 178.738281 102.804688 178.152344 102.804688 176.984375 C 102.804688 175.527344 103.097656 175.234375 104.265625 173.773438 C 106.015625 171.730469 108.644531 168.515625 108.644531 162.96875 C 108.644531 157.417969 106.015625 154.207031 104.265625 152.160156 C 103.097656 150.699219 102.804688 150.117188 102.804688 148.949219 C 102.804688 145.734375 100.175781 143.109375 96.960938 143.109375 C 93.75 143.109375 91.121094 145.734375 91.121094 148.949219 C 91.121094 154.496094 93.75 157.710938 95.503906 159.753906 C 96.671875 161.214844 96.960938 161.800781 96.960938 162.96875 C 96.960938 164.425781 96.671875 164.71875 95.503906 166.179688 C 93.75 168.222656 91.121094 171.4375 91.121094 176.984375 C 91.121094 182.535156 93.75 185.746094 95.503906 187.792969 C 96.671875 189.253906 96.960938 189.835938 96.960938 191.003906 C 96.960938 192.171875 96.671875 192.757812 95.503906 194.21875 C 93.75 196.261719 91.121094 199.472656 91.121094 205.023438 L 91.121094 209.695312 L 86.742188 204.4375 C 84.695312 202.101562 80.898438 201.519531 78.5625 203.5625 C 76.226562 205.609375 75.640625 209.402344 77.6875 211.742188 Z M 92.582031 229.847656 " fill-opacity="1" fill-rule="nonzero"/></svg>