<svg xmlns="http://www.w3.org/2000/svg" xmlns:xlink="http://www.w3.org/1999/xlink" width="500" zoomAndPan="magnify" viewBox="0 0 375 374.999991" height="500" preserveAspectRatio="xMidYMid meet" version="1.0"><defs><clipPath id="cf43832308"><path d="M 1.503906 10.3125 L 373.539062 10.3125 L 373.539062 365.0625 L 1.503906 365.0625 Z M 1.503906 10.3125 " clip-rule="nonzero"/></clipPath></defs><g clip-path="url(#cf43832308)"><path fill="#000000" d="M 350.265625 342 L 350.265625 353.628906 L 24.757812 353.628906 L 24.757812 342 L 42.203125 342 L 42.203125 110.191406 L 19.597656 121.109375 L 18.667969 121.65625 C 17.128906 122.792969 15.609375 122.246094 15.042969 121.960938 C 14.457031 121.679688 13.121094 120.785156 13.121094 118.863281 L 13.121094 108.265625 L 184.597656 23.15625 L 185.449219 22.628906 C 186.683594 21.71875 188.34375 21.71875 189.578125 22.628906 L 361.902344 108.265625 L 361.902344 118.863281 C 361.902344 120.785156 360.566406 121.679688 359.980469 121.960938 C 359.414062 122.246094 357.894531 122.792969 356.359375 121.65625 L 332.839844 110.191406 L 332.839844 342 Z M 349.960938 131.402344 C 354.515625 134.480469 360.304688 134.847656 365.242188 132.355469 C 370.34375 129.761719 373.519531 124.574219 373.519531 118.863281 L 373.519531 101.035156 L 195.992188 12.925781 C 190.851562 9.421875 184.171875 9.421875 179.03125 12.925781 L 1.503906 101.035156 L 1.503906 118.863281 C 1.503906 124.574219 4.683594 129.761719 9.78125 132.355469 C 14.71875 134.847656 20.507812 134.460938 25.0625 131.402344 L 30.566406 128.730469 L 30.566406 330.351562 L 13.121094 330.351562 L 13.121094 353.628906 L 1.503906 353.628906 L 1.503906 365.277344 L 373.519531 365.277344 L 373.519531 353.628906 L 361.902344 353.628906 L 361.902344 330.351562 L 344.457031 330.351562 L 344.457031 128.730469 L 349.960938 131.402344 " fill-opacity="1" fill-rule="nonzero"/></g><path fill="#000000" d="M 257.273438 103.425781 L 75.210938 103.425781 L 187.511719 47.691406 L 299.8125 103.425781 Z M 309.585938 307.09375 L 257.273438 307.09375 L 257.273438 115.054688 L 309.585938 115.054688 Z M 187.511719 138.332031 C 190.730469 138.332031 193.320312 140.945312 193.320312 144.144531 C 193.320312 147.367188 190.730469 149.960938 187.511719 149.960938 C 184.316406 149.960938 181.703125 147.367188 181.703125 144.144531 C 181.703125 140.945312 184.316406 138.332031 187.511719 138.332031 Z M 245.636719 272.164062 L 216.574219 272.164062 L 216.574219 237.257812 L 193.320312 237.257812 L 193.320312 202.351562 L 152.640625 202.351562 L 152.640625 167.425781 L 129.390625 167.425781 L 129.390625 115.054688 L 181.703125 115.054688 L 181.703125 127.714844 C 174.945312 130.125 170.066406 136.570312 170.066406 144.144531 C 170.066406 153.769531 177.898438 161.609375 187.511719 161.609375 C 197.125 161.609375 204.957031 153.769531 204.957031 144.144531 C 204.957031 136.570312 200.101562 130.125 193.320312 127.714844 L 193.320312 115.054688 L 245.636719 115.054688 Z M 245.636719 307.09375 L 193.320312 307.09375 L 193.320312 283.8125 L 245.636719 283.8125 Z M 181.703125 272.164062 L 152.640625 272.164062 L 152.640625 248.886719 L 204.957031 248.886719 L 204.957031 272.164062 Z M 141.003906 248.886719 L 141.003906 272.164062 L 129.390625 272.164062 L 129.390625 248.886719 Z M 129.390625 202.351562 L 129.390625 179.074219 L 141.003906 179.074219 L 141.003906 202.351562 Z M 152.640625 213.980469 L 181.703125 213.980469 L 181.703125 237.257812 L 129.390625 237.257812 L 129.390625 213.980469 Z M 181.703125 307.09375 L 129.390625 307.09375 L 129.390625 283.8125 L 181.703125 283.8125 Z M 117.75 167.425781 L 65.4375 167.425781 L 65.4375 115.054688 L 117.75 115.054688 Z M 117.75 202.351562 L 88.691406 202.351562 L 88.691406 179.074219 L 117.75 179.074219 Z M 117.75 237.257812 L 65.4375 237.257812 L 65.4375 213.980469 L 117.75 213.980469 Z M 117.75 272.164062 L 88.691406 272.164062 L 88.691406 248.886719 L 117.75 248.886719 Z M 117.75 307.09375 L 65.4375 307.09375 L 65.4375 283.8125 L 117.75 283.8125 Z M 65.4375 248.886719 L 77.074219 248.886719 L 77.074219 272.164062 L 65.4375 272.164062 Z M 65.4375 179.074219 L 77.074219 179.074219 L 77.074219 202.351562 L 65.4375 202.351562 Z M 53.820312 101.054688 L 53.820312 318.722656 L 321.203125 318.722656 L 321.203125 101.054688 L 187.511719 34.683594 L 53.820312 101.054688 " fill-opacity="1" fill-rule="nonzero"/></svg>