<svg xmlns="http://www.w3.org/2000/svg" xmlns:xlink="http://www.w3.org/1999/xlink" width="500" zoomAndPan="magnify" viewBox="0 0 375 374.999991" height="500" preserveAspectRatio="xMidYMid meet" version="1.0"><defs><clipPath id="7b88b91680"><path d="M 15.46875 36 L 359.71875 36 L 359.71875 375 L 15.46875 375 Z M 15.46875 36 " clip-rule="nonzero"/></clipPath></defs><path fill="#000000" d="M 193.742188 24.683594 L 193.742188 6.253906 C 193.742188 5.847656 193.703125 5.449219 193.621094 5.054688 C 193.542969 4.660156 193.425781 4.273438 193.273438 3.902344 C 193.117188 3.527344 192.929688 3.175781 192.703125 2.839844 C 192.480469 2.503906 192.226562 2.195312 191.941406 1.910156 C 191.65625 1.625 191.34375 1.367188 191.007812 1.144531 C 190.671875 0.921875 190.320312 0.730469 189.945312 0.578125 C 189.574219 0.421875 189.1875 0.304688 188.792969 0.226562 C 188.398438 0.148438 187.996094 0.109375 187.59375 0.109375 C 187.191406 0.109375 186.789062 0.148438 186.394531 0.226562 C 186 0.304688 185.613281 0.421875 185.242188 0.578125 C 184.867188 0.730469 184.515625 0.921875 184.179688 1.144531 C 183.84375 1.367188 183.53125 1.625 183.246094 1.910156 C 182.960938 2.195312 182.707031 2.503906 182.484375 2.839844 C 182.257812 3.175781 182.070312 3.527344 181.914062 3.902344 C 181.761719 4.273438 181.644531 4.660156 181.566406 5.054688 C 181.484375 5.449219 181.445312 5.847656 181.445312 6.253906 L 181.445312 24.683594 C 181.445312 25.089844 181.484375 25.488281 181.566406 25.882812 C 181.644531 26.277344 181.761719 26.664062 181.914062 27.035156 C 182.070312 27.410156 182.257812 27.761719 182.484375 28.097656 C 182.707031 28.433594 182.960938 28.742188 183.246094 29.027344 C 183.53125 29.3125 183.84375 29.570312 184.179688 29.792969 C 184.515625 30.015625 184.867188 30.207031 185.242188 30.359375 C 185.613281 30.515625 186 30.632812 186.394531 30.710938 C 186.789062 30.789062 187.191406 30.828125 187.59375 30.828125 C 187.996094 30.828125 188.398438 30.789062 188.792969 30.710938 C 189.1875 30.632812 189.574219 30.515625 189.945312 30.359375 C 190.320312 30.207031 190.671875 30.015625 191.007812 29.792969 C 191.34375 29.570312 191.65625 29.3125 191.941406 29.027344 C 192.226562 28.742188 192.480469 28.433594 192.703125 28.097656 C 192.929688 27.761719 193.117188 27.410156 193.273438 27.035156 C 193.425781 26.664062 193.542969 26.277344 193.621094 25.882812 C 193.703125 25.488281 193.742188 25.089844 193.742188 24.683594 Z M 193.742188 24.683594 " fill-opacity="1" fill-rule="nonzero"/><path fill="#000000" d="M 242.917969 86.125 C 242.917969 86.527344 242.960938 86.925781 243.039062 87.324219 C 243.117188 87.71875 243.234375 88.101562 243.386719 88.476562 C 243.542969 88.847656 243.730469 89.203125 243.957031 89.539062 C 244.179688 89.875 244.433594 90.183594 244.71875 90.46875 C 245.003906 90.753906 245.316406 91.007812 245.652344 91.234375 C 245.988281 91.457031 246.339844 91.644531 246.714844 91.800781 C 247.085938 91.957031 247.472656 92.070312 247.867188 92.148438 C 248.261719 92.230469 248.664062 92.269531 249.066406 92.269531 L 267.507812 92.269531 C 267.914062 92.269531 268.3125 92.230469 268.707031 92.148438 C 269.105469 92.070312 269.488281 91.957031 269.863281 91.800781 C 270.234375 91.644531 270.589844 91.457031 270.925781 91.234375 C 271.261719 91.007812 271.570312 90.753906 271.855469 90.46875 C 272.140625 90.183594 272.394531 89.875 272.621094 89.539062 C 272.84375 89.203125 273.035156 88.847656 273.1875 88.476562 C 273.34375 88.101562 273.460938 87.71875 273.539062 87.324219 C 273.617188 86.925781 273.65625 86.527344 273.65625 86.125 C 273.65625 85.722656 273.617188 85.320312 273.539062 84.925781 C 273.460938 84.53125 273.34375 84.144531 273.1875 83.773438 C 273.035156 83.402344 272.84375 83.046875 272.621094 82.710938 C 272.394531 82.375 272.140625 82.066406 271.855469 81.78125 C 271.570312 81.496094 271.261719 81.238281 270.925781 81.015625 C 270.589844 80.792969 270.234375 80.601562 269.863281 80.449219 C 269.488281 80.292969 269.105469 80.175781 268.707031 80.097656 C 268.3125 80.019531 267.914062 79.980469 267.507812 79.980469 L 249.066406 79.980469 C 248.664062 79.980469 248.261719 80.019531 247.867188 80.097656 C 247.472656 80.175781 247.085938 80.292969 246.714844 80.449219 C 246.339844 80.601562 245.988281 80.792969 245.652344 81.015625 C 245.316406 81.238281 245.003906 81.496094 244.71875 81.78125 C 244.433594 82.066406 244.179688 82.375 243.957031 82.710938 C 243.730469 83.046875 243.542969 83.402344 243.386719 83.773438 C 243.234375 84.144531 243.117188 84.53125 243.039062 84.925781 C 242.960938 85.320312 242.917969 85.722656 242.917969 86.125 Z M 242.917969 86.125 " fill-opacity="1" fill-rule="nonzero"/><path fill="#000000" d="M 101.53125 86.125 C 101.53125 86.527344 101.570312 86.925781 101.648438 87.324219 C 101.726562 87.71875 101.84375 88.101562 102 88.476562 C 102.152344 88.847656 102.34375 89.203125 102.566406 89.539062 C 102.792969 89.875 103.046875 90.183594 103.332031 90.46875 C 103.617188 90.753906 103.925781 91.007812 104.261719 91.234375 C 104.597656 91.457031 104.953125 91.644531 105.324219 91.800781 C 105.699219 91.957031 106.082031 92.070312 106.480469 92.148438 C 106.875 92.230469 107.273438 92.269531 107.679688 92.269531 L 126.121094 92.269531 C 126.523438 92.269531 126.925781 92.230469 127.320312 92.148438 C 127.714844 92.070312 128.101562 91.957031 128.472656 91.800781 C 128.847656 91.644531 129.199219 91.457031 129.535156 91.234375 C 129.871094 91.007812 130.183594 90.753906 130.46875 90.46875 C 130.753906 90.183594 131.007812 89.875 131.230469 89.539062 C 131.457031 89.203125 131.644531 88.847656 131.800781 88.476562 C 131.953125 88.101562 132.070312 87.71875 132.148438 87.324219 C 132.226562 86.925781 132.269531 86.527344 132.269531 86.125 C 132.269531 85.722656 132.226562 85.320312 132.148438 84.925781 C 132.070312 84.53125 131.953125 84.144531 131.800781 83.773438 C 131.644531 83.402344 131.457031 83.046875 131.230469 82.710938 C 131.007812 82.375 130.753906 82.066406 130.46875 81.78125 C 130.183594 81.496094 129.871094 81.238281 129.535156 81.015625 C 129.199219 80.792969 128.847656 80.601562 128.472656 80.449219 C 128.101562 80.292969 127.714844 80.175781 127.320312 80.097656 C 126.925781 80.019531 126.523438 79.980469 126.121094 79.980469 L 107.679688 79.980469 C 107.273438 79.980469 106.875 80.019531 106.480469 80.097656 C 106.082031 80.175781 105.699219 80.292969 105.324219 80.449219 C 104.953125 80.601562 104.597656 80.792969 104.261719 81.015625 C 103.925781 81.238281 103.617188 81.496094 103.332031 81.78125 C 103.046875 82.066406 102.792969 82.375 102.566406 82.710938 C 102.34375 83.046875 102.152344 83.402344 102 83.773438 C 101.84375 84.144531 101.726562 84.53125 101.648438 84.925781 C 101.570312 85.320312 101.53125 85.722656 101.53125 86.125 Z M 101.53125 86.125 " fill-opacity="1" fill-rule="nonzero"/><path fill="#000000" d="M 238.679688 26.34375 L 225.644531 39.367188 C 225.359375 39.65625 225.101562 39.964844 224.875 40.300781 C 224.648438 40.636719 224.457031 40.992188 224.300781 41.367188 C 224.144531 41.742188 224.027344 42.128906 223.945312 42.527344 C 223.867188 42.925781 223.828125 43.324219 223.828125 43.730469 C 223.828125 44.136719 223.867188 44.539062 223.945312 44.9375 C 224.027344 45.332031 224.144531 45.71875 224.300781 46.09375 C 224.457031 46.46875 224.648438 46.824219 224.875 47.160156 C 225.101562 47.496094 225.359375 47.808594 225.644531 48.09375 C 225.929688 48.382812 226.242188 48.636719 226.578125 48.863281 C 226.914062 49.089844 227.273438 49.28125 227.644531 49.4375 C 228.019531 49.59375 228.40625 49.710938 228.804688 49.792969 C 229.203125 49.871094 229.605469 49.910156 230.011719 49.910156 C 230.417969 49.910156 230.816406 49.871094 231.214844 49.792969 C 231.613281 49.710938 232 49.59375 232.375 49.4375 C 232.75 49.28125 233.105469 49.089844 233.441406 48.863281 C 233.777344 48.636719 234.089844 48.382812 234.375 48.09375 L 247.40625 35.066406 C 247.691406 34.78125 247.949219 34.46875 248.171875 34.132812 C 248.398438 33.796875 248.585938 33.441406 248.742188 33.066406 C 248.894531 32.691406 249.011719 32.308594 249.089844 31.910156 C 249.167969 31.511719 249.207031 31.113281 249.207031 30.707031 C 249.207031 30.304688 249.167969 29.902344 249.089844 29.503906 C 249.011719 29.109375 248.894531 28.722656 248.738281 28.347656 C 248.582031 27.976562 248.394531 27.621094 248.167969 27.285156 C 247.941406 26.949219 247.6875 26.636719 247.402344 26.351562 C 247.113281 26.0625 246.804688 25.808594 246.464844 25.582031 C 246.128906 25.359375 245.773438 25.167969 245.398438 25.015625 C 245.027344 24.859375 244.640625 24.742188 244.242188 24.664062 C 243.847656 24.582031 243.445312 24.542969 243.039062 24.542969 C 242.636719 24.542969 242.234375 24.582031 241.835938 24.660156 C 241.441406 24.738281 241.054688 24.855469 240.679688 25.011719 C 240.304688 25.164062 239.949219 25.355469 239.613281 25.578125 C 239.277344 25.804688 238.964844 26.058594 238.679688 26.34375 Z M 238.679688 26.34375 " fill-opacity="1" fill-rule="nonzero"/><path fill="#000000" d="M 140.8125 48.09375 C 141.097656 48.382812 141.410156 48.636719 141.746094 48.863281 C 142.082031 49.089844 142.4375 49.28125 142.8125 49.4375 C 143.1875 49.59375 143.574219 49.710938 143.972656 49.792969 C 144.371094 49.871094 144.773438 49.910156 145.175781 49.910156 C 145.582031 49.910156 145.984375 49.871094 146.382812 49.792969 C 146.78125 49.710938 147.167969 49.59375 147.542969 49.4375 C 147.914062 49.28125 148.273438 49.089844 148.609375 48.863281 C 148.945312 48.636719 149.257812 48.382812 149.542969 48.09375 C 149.828125 47.808594 150.085938 47.496094 150.3125 47.160156 C 150.539062 46.824219 150.730469 46.46875 150.886719 46.09375 C 151.042969 45.71875 151.160156 45.332031 151.242188 44.9375 C 151.320312 44.539062 151.359375 44.136719 151.359375 43.730469 C 151.359375 43.324219 151.320312 42.925781 151.242188 42.527344 C 151.160156 42.128906 151.042969 41.742188 150.886719 41.367188 C 150.730469 40.992188 150.539062 40.636719 150.3125 40.300781 C 150.085938 39.964844 149.828125 39.65625 149.542969 39.367188 L 136.507812 26.34375 C 136.222656 26.058594 135.910156 25.800781 135.574219 25.578125 C 135.238281 25.351562 134.882812 25.164062 134.507812 25.007812 C 134.132812 24.851562 133.746094 24.734375 133.347656 24.65625 C 132.953125 24.578125 132.550781 24.539062 132.144531 24.539062 C 131.742188 24.539062 131.339844 24.578125 130.941406 24.65625 C 130.542969 24.738281 130.160156 24.855469 129.785156 25.007812 C 129.410156 25.164062 129.054688 25.355469 128.71875 25.578125 C 128.378906 25.804688 128.070312 26.058594 127.78125 26.347656 C 127.496094 26.632812 127.238281 26.945312 127.015625 27.28125 C 126.789062 27.617188 126.601562 27.972656 126.445312 28.347656 C 126.289062 28.71875 126.171875 29.105469 126.09375 29.503906 C 126.015625 29.902344 125.976562 30.300781 125.972656 30.707031 C 125.972656 31.113281 126.015625 31.511719 126.09375 31.910156 C 126.171875 32.308594 126.289062 32.691406 126.445312 33.066406 C 126.597656 33.441406 126.789062 33.796875 127.011719 34.132812 C 127.238281 34.46875 127.492188 34.78125 127.78125 35.066406 Z M 140.8125 48.09375 " fill-opacity="1" fill-rule="nonzero"/><g clip-path="url(#7b88b91680)"><path fill="#000000" d="M 262.714844 288.875 L 38.707031 288.875 C 37.945312 288.878906 37.1875 288.917969 36.429688 288.992188 C 35.671875 289.070312 34.921875 289.183594 34.175781 289.332031 C 33.429688 289.480469 32.695312 289.667969 31.96875 289.890625 C 31.238281 290.109375 30.523438 290.367188 29.824219 290.660156 C 29.121094 290.953125 28.433594 291.277344 27.765625 291.636719 C 27.09375 291.996094 26.441406 292.386719 25.808594 292.808594 C 25.179688 293.230469 24.570312 293.683594 23.980469 294.164062 C 23.394531 294.648438 22.832031 295.160156 22.292969 295.695312 C 21.753906 296.234375 21.246094 296.796875 20.761719 297.382812 C 20.28125 297.96875 19.828125 298.578125 19.402344 299.210938 C 18.980469 299.84375 18.589844 300.492188 18.230469 301.164062 C 17.871094 301.835938 17.546875 302.519531 17.253906 303.222656 C 16.960938 303.921875 16.703125 304.636719 16.484375 305.363281 C 16.261719 306.09375 16.074219 306.828125 15.925781 307.574219 C 15.777344 308.316406 15.664062 309.070312 15.585938 309.824219 C 15.511719 310.582031 15.472656 311.339844 15.46875 312.101562 L 15.46875 327.089844 C 15.472656 327.851562 15.511719 328.609375 15.585938 329.367188 C 15.664062 330.121094 15.777344 330.871094 15.925781 331.617188 C 16.074219 332.363281 16.261719 333.097656 16.484375 333.824219 C 16.703125 334.554688 16.960938 335.265625 17.253906 335.96875 C 17.546875 336.671875 17.871094 337.355469 18.230469 338.027344 C 18.589844 338.695312 18.980469 339.347656 19.402344 339.980469 C 19.828125 340.609375 20.28125 341.21875 20.761719 341.808594 C 21.246094 342.394531 21.753906 342.957031 22.292969 343.496094 C 22.832031 344.03125 23.394531 344.542969 23.980469 345.023438 C 24.570312 345.507812 25.179688 345.960938 25.808594 346.382812 C 26.441406 346.804688 27.09375 347.195312 27.765625 347.554688 C 28.433594 347.914062 29.121094 348.238281 29.824219 348.53125 C 30.523438 348.824219 31.238281 349.078125 31.96875 349.300781 C 32.695312 349.523438 33.429688 349.710938 34.175781 349.859375 C 34.921875 350.007812 35.671875 350.121094 36.429688 350.199219 C 37.1875 350.273438 37.945312 350.3125 38.707031 350.316406 L 193.742188 350.316406 L 193.742188 368.746094 C 193.742188 369.152344 193.78125 369.550781 193.859375 369.945312 C 193.9375 370.339844 194.054688 370.726562 194.210938 371.097656 C 194.363281 371.472656 194.554688 371.824219 194.777344 372.160156 C 195 372.496094 195.257812 372.804688 195.542969 373.089844 C 195.828125 373.375 196.136719 373.632812 196.472656 373.855469 C 196.808594 374.078125 197.164062 374.269531 197.535156 374.421875 C 197.910156 374.578125 198.292969 374.695312 198.6875 374.773438 C 199.085938 374.851562 199.484375 374.890625 199.886719 374.890625 L 335.128906 374.890625 C 335.53125 374.890625 335.933594 374.851562 336.328125 374.773438 C 336.722656 374.695312 337.109375 374.578125 337.480469 374.421875 C 337.855469 374.269531 338.210938 374.078125 338.542969 373.855469 C 338.878906 373.632812 339.191406 373.375 339.476562 373.089844 C 339.761719 372.804688 340.015625 372.496094 340.242188 372.160156 C 340.464844 371.824219 340.65625 371.472656 340.808594 371.097656 C 340.964844 370.726562 341.078125 370.339844 341.160156 369.945312 C 341.238281 369.550781 341.277344 369.152344 341.277344 368.746094 L 341.277344 362.601562 L 353.570312 362.601562 C 353.976562 362.601562 354.375 362.5625 354.769531 362.484375 C 355.167969 362.40625 355.550781 362.289062 355.925781 362.136719 C 356.296875 361.980469 356.652344 361.792969 356.988281 361.566406 C 357.324219 361.34375 357.632812 361.089844 357.917969 360.804688 C 358.203125 360.519531 358.457031 360.207031 358.683594 359.871094 C 358.90625 359.539062 359.097656 359.183594 359.25 358.808594 C 359.40625 358.4375 359.523438 358.054688 359.601562 357.65625 C 359.679688 357.261719 359.71875 356.863281 359.71875 356.460938 L 359.71875 325.738281 C 359.71875 325.335938 359.679688 324.9375 359.601562 324.539062 C 359.523438 324.144531 359.40625 323.761719 359.25 323.386719 C 359.097656 323.015625 358.90625 322.660156 358.683594 322.324219 C 358.457031 321.992188 358.203125 321.679688 357.917969 321.394531 C 357.632812 321.109375 357.324219 320.855469 356.988281 320.628906 C 356.652344 320.40625 356.296875 320.21875 355.925781 320.0625 C 355.550781 319.910156 355.167969 319.792969 354.769531 319.714844 C 354.375 319.632812 353.976562 319.59375 353.570312 319.59375 L 341.277344 319.59375 L 341.277344 313.453125 C 341.277344 313.046875 341.238281 312.648438 341.160156 312.253906 C 341.078125 311.855469 340.964844 311.472656 340.808594 311.101562 C 340.65625 310.726562 340.464844 310.375 340.242188 310.039062 C 340.015625 309.703125 339.761719 309.390625 339.476562 309.105469 C 339.191406 308.820312 338.878906 308.566406 338.542969 308.34375 C 338.210938 308.117188 337.855469 307.929688 337.480469 307.773438 C 337.109375 307.621094 336.722656 307.503906 336.328125 307.425781 C 335.933594 307.347656 335.53125 307.308594 335.128906 307.308594 L 199.886719 307.308594 C 199.484375 307.308594 199.085938 307.347656 198.6875 307.425781 C 198.292969 307.503906 197.910156 307.621094 197.535156 307.773438 C 197.164062 307.929688 196.808594 308.117188 196.472656 308.34375 C 196.136719 308.566406 195.828125 308.820312 195.542969 309.105469 C 195.257812 309.390625 195 309.703125 194.777344 310.039062 C 194.554688 310.375 194.363281 310.726562 194.210938 311.101562 C 194.054688 311.472656 193.9375 311.855469 193.859375 312.253906 C 193.78125 312.648438 193.742188 313.046875 193.742188 313.453125 L 193.742188 338.027344 L 38.707031 338.027344 C 37.988281 338.027344 37.277344 337.957031 36.570312 337.816406 C 35.867188 337.675781 35.183594 337.46875 34.519531 337.195312 C 33.855469 336.921875 33.222656 336.582031 32.625 336.183594 C 32.027344 335.785156 31.476562 335.332031 30.96875 334.824219 C 30.460938 334.316406 30.007812 333.765625 29.609375 333.167969 C 29.207031 332.570312 28.871094 331.941406 28.597656 331.277344 C 28.320312 330.613281 28.113281 329.929688 27.972656 329.222656 C 27.832031 328.519531 27.761719 327.808594 27.761719 327.089844 L 27.761719 312.101562 C 27.761719 311.382812 27.832031 310.671875 27.972656 309.964844 C 28.113281 309.261719 28.320312 308.578125 28.597656 307.914062 C 28.871094 307.25 29.207031 306.621094 29.609375 306.023438 C 30.007812 305.425781 30.460938 304.875 30.96875 304.367188 C 31.476562 303.859375 32.027344 303.40625 32.625 303.007812 C 33.222656 302.609375 33.855469 302.269531 34.519531 301.996094 C 35.183594 301.722656 35.867188 301.515625 36.570312 301.375 C 37.277344 301.234375 37.988281 301.164062 38.707031 301.164062 L 262.714844 301.164062 C 263.472656 301.160156 264.234375 301.121094 264.988281 301.046875 C 265.746094 300.96875 266.496094 300.855469 267.242188 300.707031 C 267.988281 300.558594 268.726562 300.371094 269.453125 300.148438 C 270.179688 299.929688 270.894531 299.671875 271.597656 299.378906 C 272.300781 299.085938 272.984375 298.761719 273.65625 298.402344 C 274.324219 298.042969 274.976562 297.652344 275.609375 297.230469 C 276.242188 296.808594 276.851562 296.355469 277.4375 295.875 C 278.027344 295.390625 278.589844 294.878906 279.128906 294.34375 C 279.664062 293.804688 280.175781 293.242188 280.65625 292.65625 C 281.140625 292.070312 281.59375 291.460938 282.015625 290.828125 C 282.4375 290.195312 282.828125 289.546875 283.1875 288.875 C 283.546875 288.203125 283.875 287.519531 284.164062 286.816406 C 284.457031 286.117188 284.714844 285.402344 284.9375 284.675781 C 285.160156 283.945312 285.34375 283.210938 285.496094 282.464844 C 285.644531 281.71875 285.757812 280.96875 285.832031 280.214844 C 285.910156 279.457031 285.949219 278.699219 285.949219 277.9375 L 285.949219 264.300781 L 328.980469 264.300781 C 329.964844 264.300781 330.898438 264.082031 331.773438 263.636719 C 332.652344 263.195312 333.382812 262.574219 333.960938 261.78125 C 334.582031 261.015625 334.996094 260.152344 335.203125 259.1875 C 335.410156 258.222656 335.386719 257.265625 335.128906 256.3125 L 292.097656 121.144531 C 291.894531 120.496094 291.59375 119.902344 291.191406 119.351562 C 290.792969 118.804688 290.3125 118.335938 289.757812 117.949219 C 289.203125 117.558594 288.597656 117.269531 287.945312 117.082031 C 287.292969 116.890625 286.628906 116.8125 285.949219 116.84375 L 225.832031 116.84375 C 226.796875 115.648438 227.707031 114.410156 228.558594 113.128906 C 229.410156 111.847656 230.199219 110.53125 230.925781 109.175781 C 231.652344 107.820312 232.316406 106.433594 232.914062 105.019531 C 233.511719 103.601562 234.042969 102.160156 234.503906 100.691406 C 234.964844 99.226562 235.355469 97.738281 235.679688 96.234375 C 236.003906 94.734375 236.253906 93.21875 236.433594 91.691406 C 236.613281 90.164062 236.722656 88.628906 236.757812 87.09375 C 236.796875 85.554688 236.757812 84.019531 236.652344 82.488281 C 236.542969 80.953125 236.363281 79.425781 236.113281 77.910156 C 235.863281 76.394531 235.539062 74.890625 235.148438 73.402344 C 234.753906 71.917969 234.292969 70.453125 233.765625 69.007812 C 233.234375 67.5625 232.636719 66.148438 231.976562 64.761719 C 231.3125 63.371094 230.585938 62.019531 229.796875 60.699219 C 229.007812 59.378906 228.15625 58.101562 227.246094 56.859375 C 226.335938 55.621094 225.371094 54.425781 224.347656 53.277344 C 223.324219 52.128906 222.253906 51.027344 221.125 49.980469 C 220 48.929688 218.828125 47.9375 217.609375 47 C 216.390625 46.0625 215.132812 45.179688 213.832031 44.359375 C 212.527344 43.539062 211.191406 42.78125 209.820312 42.085938 C 208.445312 41.394531 207.046875 40.761719 205.613281 40.199219 C 204.183594 39.636719 202.726562 39.140625 201.25 38.714844 C 199.769531 38.289062 198.277344 37.929688 196.765625 37.644531 C 195.253906 37.355469 193.730469 37.140625 192.199219 36.996094 C 190.667969 36.855469 189.132812 36.78125 187.59375 36.78125 C 186.054688 36.78125 184.519531 36.855469 182.988281 36.996094 C 181.457031 37.140625 179.933594 37.355469 178.421875 37.644531 C 176.910156 37.929688 175.417969 38.289062 173.9375 38.714844 C 172.460938 39.140625 171.003906 39.636719 169.574219 40.199219 C 168.140625 40.761719 166.742188 41.394531 165.367188 42.085938 C 163.996094 42.78125 162.660156 43.539062 161.355469 44.359375 C 160.054688 45.179688 158.796875 46.0625 157.578125 47 C 156.359375 47.9375 155.1875 48.929688 154.0625 49.980469 C 152.933594 51.027344 151.863281 52.128906 150.839844 53.277344 C 149.816406 54.425781 148.851562 55.621094 147.941406 56.859375 C 147.03125 58.101562 146.179688 59.378906 145.390625 60.699219 C 144.601562 62.019531 143.875 63.371094 143.210938 64.761719 C 142.550781 66.148438 141.953125 67.5625 141.421875 69.007812 C 140.894531 70.453125 140.433594 71.917969 140.039062 73.402344 C 139.648438 74.890625 139.324219 76.394531 139.074219 77.910156 C 138.824219 79.425781 138.644531 80.953125 138.535156 82.488281 C 138.429688 84.019531 138.394531 85.554688 138.429688 87.09375 C 138.464844 88.628906 138.574219 90.164062 138.753906 91.691406 C 138.933594 93.21875 139.183594 94.734375 139.507812 96.234375 C 139.832031 97.738281 140.222656 99.226562 140.683594 100.691406 C 141.144531 102.160156 141.675781 103.601562 142.273438 105.019531 C 142.871094 106.433594 143.535156 107.820312 144.261719 109.175781 C 144.988281 110.53125 145.777344 111.847656 146.628906 113.128906 C 147.480469 114.410156 148.390625 115.648438 149.359375 116.84375 L 89.238281 116.84375 C 88.585938 116.847656 87.949219 116.949219 87.332031 117.15625 C 86.710938 117.359375 86.140625 117.65625 85.613281 118.042969 C 85.089844 118.429688 84.636719 118.886719 84.257812 119.417969 C 83.878906 119.949219 83.59375 120.523438 83.398438 121.144531 L 40.367188 256.3125 C 40.066406 257.242188 39.992188 258.1875 40.144531 259.148438 C 40.296875 260.113281 40.65625 260.988281 41.226562 261.78125 C 41.804688 262.574219 42.535156 263.195312 43.414062 263.636719 C 44.289062 264.082031 45.222656 264.300781 46.207031 264.300781 L 273.65625 264.300781 L 273.65625 277.9375 C 273.65625 278.65625 273.585938 279.367188 273.445312 280.074219 C 273.304688 280.777344 273.097656 281.460938 272.824219 282.125 C 272.546875 282.789062 272.210938 283.417969 271.8125 284.015625 C 271.414062 284.613281 270.960938 285.164062 270.453125 285.671875 C 269.941406 286.179688 269.390625 286.632812 268.792969 287.03125 C 268.195312 287.429688 267.566406 287.769531 266.902344 288.042969 C 266.238281 288.316406 265.554688 288.523438 264.847656 288.664062 C 264.144531 288.804688 263.433594 288.875 262.714844 288.875 Z M 347.425781 331.882812 L 347.425781 350.316406 L 341.277344 350.316406 L 341.277344 331.882812 Z M 328.980469 325.738281 L 328.980469 362.601562 L 313.367188 362.601562 L 297.445312 319.59375 L 328.980469 319.59375 Z M 206.035156 319.59375 L 284.351562 319.59375 L 300.273438 362.601562 L 206.035156 362.601562 Z M 260.5625 252.011719 L 253.0625 196.714844 L 302.980469 196.714844 L 320.558594 252.011719 Z M 181.445312 129.132812 L 181.445312 184.429688 L 136.261719 184.429688 L 143.761719 129.132812 Z M 231.425781 129.132812 L 238.925781 184.429688 L 193.742188 184.429688 L 193.742188 129.132812 Z M 181.445312 196.714844 L 181.445312 252.011719 L 127.042969 252.011719 L 134.542969 196.714844 Z M 193.742188 196.714844 L 240.644531 196.714844 L 248.144531 252.011719 L 193.742188 252.011719 Z M 299.042969 184.429688 L 251.339844 184.429688 L 243.839844 129.132812 L 281.464844 129.132812 Z M 150.710938 86.125 C 150.710938 84.917969 150.769531 83.710938 150.886719 82.511719 C 151.003906 81.308594 151.183594 80.117188 151.417969 78.933594 C 151.652344 77.75 151.949219 76.578125 152.296875 75.421875 C 152.648438 74.269531 153.054688 73.132812 153.515625 72.015625 C 153.980469 70.902344 154.496094 69.8125 155.066406 68.746094 C 155.632812 67.683594 156.253906 66.648438 156.925781 65.644531 C 157.597656 64.640625 158.316406 63.671875 159.082031 62.738281 C 159.847656 61.804688 160.660156 60.910156 161.511719 60.058594 C 162.367188 59.203125 163.261719 58.394531 164.195312 57.628906 C 165.128906 56.863281 166.097656 56.144531 167.101562 55.472656 C 168.105469 54.800781 169.140625 54.183594 170.207031 53.613281 C 171.273438 53.042969 172.363281 52.527344 173.480469 52.066406 C 174.59375 51.605469 175.730469 51.199219 176.886719 50.847656 C 178.042969 50.496094 179.214844 50.203125 180.398438 49.96875 C 181.582031 49.734375 182.777344 49.554688 183.976562 49.4375 C 185.179688 49.320312 186.386719 49.261719 187.59375 49.261719 C 188.800781 49.261719 190.007812 49.320312 191.210938 49.4375 C 192.410156 49.554688 193.605469 49.734375 194.789062 49.96875 C 195.972656 50.203125 197.144531 50.496094 198.300781 50.847656 C 199.457031 51.199219 200.59375 51.605469 201.707031 52.066406 C 202.824219 52.527344 203.914062 53.042969 204.980469 53.613281 C 206.046875 54.183594 207.082031 54.800781 208.085938 55.472656 C 209.089844 56.144531 210.058594 56.863281 210.992188 57.628906 C 211.925781 58.394531 212.820312 59.203125 213.675781 60.058594 C 214.527344 60.910156 215.339844 61.804688 216.105469 62.738281 C 216.871094 63.671875 217.589844 64.640625 218.261719 65.644531 C 218.933594 66.648438 219.554688 67.683594 220.121094 68.746094 C 220.691406 69.8125 221.207031 70.902344 221.671875 72.015625 C 222.132812 73.132812 222.539062 74.269531 222.890625 75.421875 C 223.238281 76.578125 223.535156 77.75 223.769531 78.933594 C 224.003906 80.117188 224.183594 81.308594 224.300781 82.511719 C 224.417969 83.710938 224.476562 84.917969 224.476562 86.125 C 224.484375 87.644531 224.394531 89.160156 224.207031 90.667969 C 224.023438 92.179688 223.746094 93.667969 223.375 95.144531 C 223.003906 96.617188 222.542969 98.0625 221.988281 99.480469 C 221.4375 100.898438 220.796875 102.273438 220.074219 103.609375 C 219.347656 104.949219 218.542969 106.234375 217.65625 107.46875 C 216.769531 108.707031 215.8125 109.882812 214.777344 110.996094 C 213.746094 112.113281 212.644531 113.160156 211.480469 114.136719 C 210.316406 115.117188 209.097656 116.019531 207.820312 116.84375 L 167.367188 116.84375 C 166.089844 116.019531 164.871094 115.117188 163.707031 114.136719 C 162.542969 113.160156 161.441406 112.113281 160.410156 110.996094 C 159.375 109.882812 158.417969 108.707031 157.53125 107.46875 C 156.644531 106.234375 155.839844 104.949219 155.113281 103.609375 C 154.390625 102.273438 153.75 100.898438 153.199219 99.480469 C 152.644531 98.0625 152.183594 96.617188 151.8125 95.144531 C 151.441406 93.667969 151.164062 92.179688 150.980469 90.667969 C 150.792969 89.160156 150.703125 87.644531 150.710938 86.125 Z M 93.722656 129.132812 L 131.347656 129.132812 L 123.847656 184.429688 L 76.144531 184.429688 Z M 72.207031 196.714844 L 122.125 196.714844 L 114.625 252.011719 L 54.628906 252.011719 Z M 72.207031 196.714844 " fill-opacity="1" fill-rule="nonzero"/></g><path fill="#000000" d="M 221.34375 337.167969 L 252.078125 355.597656 C 252.546875 355.875 253.039062 356.085938 253.5625 356.230469 C 254.085938 356.378906 254.617188 356.453125 255.160156 356.457031 C 255.703125 356.460938 256.238281 356.398438 256.761719 356.261719 C 257.285156 356.125 257.785156 355.921875 258.257812 355.652344 C 258.726562 355.382812 259.15625 355.058594 259.542969 354.679688 C 259.925781 354.296875 260.257812 353.871094 260.527344 353.402344 C 260.800781 352.933594 261.007812 352.4375 261.148438 351.914062 C 261.289062 351.390625 261.363281 350.859375 261.363281 350.316406 L 261.363281 344.171875 L 276.113281 355.230469 C 277.207031 356.050781 278.4375 356.460938 279.804688 356.460938 C 280.769531 356.460938 281.6875 356.242188 282.554688 355.8125 C 283.417969 355.378906 284.140625 354.773438 284.722656 354 C 284.964844 353.679688 285.171875 353.335938 285.347656 352.972656 C 285.519531 352.609375 285.660156 352.230469 285.757812 351.839844 C 285.859375 351.449219 285.917969 351.050781 285.941406 350.648438 C 285.964844 350.246094 285.945312 349.847656 285.890625 349.445312 C 285.832031 349.046875 285.738281 348.65625 285.601562 348.277344 C 285.46875 347.894531 285.300781 347.53125 285.09375 347.183594 C 284.886719 346.835938 284.648438 346.515625 284.378906 346.214844 C 284.109375 345.914062 283.816406 345.640625 283.492188 345.398438 L 258.902344 326.96875 C 258.445312 326.625 257.953125 326.351562 257.417969 326.148438 C 256.886719 325.941406 256.335938 325.816406 255.765625 325.765625 C 255.199219 325.714844 254.632812 325.742188 254.070312 325.847656 C 253.511719 325.953125 252.976562 326.132812 252.464844 326.386719 C 251.953125 326.644531 251.488281 326.964844 251.066406 327.347656 C 250.644531 327.734375 250.285156 328.167969 249.984375 328.652344 C 249.683594 329.136719 249.457031 329.65625 249.300781 330.203125 C 249.144531 330.753906 249.066406 331.3125 249.066406 331.882812 L 249.066406 339.441406 L 227.613281 326.597656 C 227.265625 326.347656 226.894531 326.132812 226.5 325.957031 C 226.109375 325.78125 225.703125 325.648438 225.28125 325.558594 C 224.863281 325.46875 224.4375 325.425781 224.007812 325.425781 C 223.574219 325.425781 223.152344 325.46875 222.730469 325.554688 C 222.308594 325.644531 221.902344 325.777344 221.507812 325.949219 C 221.117188 326.125 220.746094 326.335938 220.394531 326.589844 C 220.046875 326.839844 219.730469 327.125 219.441406 327.445312 C 219.152344 327.761719 218.898438 328.109375 218.683594 328.480469 C 218.464844 328.851562 218.292969 329.242188 218.15625 329.648438 C 218.023438 330.058594 217.933594 330.476562 217.886719 330.902344 C 217.839844 331.332031 217.835938 331.757812 217.882812 332.1875 C 217.925781 332.613281 218.011719 333.03125 218.144531 333.441406 C 218.273438 333.851562 218.445312 334.242188 218.660156 334.617188 C 218.871094 334.988281 219.121094 335.335938 219.410156 335.65625 C 219.695312 335.976562 220.011719 336.265625 220.359375 336.519531 C 220.703125 336.773438 221.074219 336.988281 221.464844 337.167969 Z M 221.34375 337.167969 " fill-opacity="1" fill-rule="nonzero"/></svg>