<svg xmlns="http://www.w3.org/2000/svg" xmlns:xlink="http://www.w3.org/1999/xlink" width="500" zoomAndPan="magnify" viewBox="0 0 375 374.999991" height="500" preserveAspectRatio="xMidYMid meet" version="1.0"><defs><clipPath id="52a95cf2da"><path d="M 0 25.078125 L 375 25.078125 L 375 349.828125 L 0 349.828125 Z M 0 25.078125 " clip-rule="nonzero"/></clipPath></defs><path fill="#000000" d="M 324.933594 191.617188 L 266.628906 191.617188 C 262.03125 191.617188 258.300781 187.886719 258.300781 183.289062 C 258.300781 178.691406 262.03125 174.960938 266.628906 174.960938 L 324.933594 174.960938 C 329.53125 174.960938 333.261719 178.691406 333.261719 183.289062 C 333.261719 187.886719 329.53125 191.617188 324.933594 191.617188 Z M 324.933594 191.617188 " fill-opacity="1" fill-rule="nonzero"/><path fill="#000000" d="M 324.933594 233.25 L 266.628906 233.25 C 262.03125 233.25 258.300781 229.519531 258.300781 224.925781 C 258.300781 220.328125 262.03125 216.597656 266.628906 216.597656 L 324.933594 216.597656 C 329.53125 216.597656 333.261719 220.328125 333.261719 224.925781 C 333.261719 229.519531 329.53125 233.25 324.933594 233.25 Z M 324.933594 233.25 " fill-opacity="1" fill-rule="nonzero"/><path fill="#000000" d="M 324.933594 274.886719 L 266.628906 274.886719 C 262.03125 274.886719 258.300781 271.15625 258.300781 266.558594 C 258.300781 261.960938 262.03125 258.230469 266.628906 258.230469 L 324.933594 258.230469 C 329.53125 258.230469 333.261719 261.960938 333.261719 266.558594 C 333.261719 271.15625 329.53125 274.886719 324.933594 274.886719 Z M 324.933594 274.886719 " fill-opacity="1" fill-rule="nonzero"/><path fill="#000000" d="M 324.933594 145.820312 L 266.628906 145.820312 C 262.03125 145.820312 258.300781 142.089844 258.300781 137.492188 L 258.300781 83.367188 C 258.300781 78.769531 262.03125 75.039062 266.628906 75.039062 L 324.933594 75.039062 C 329.53125 75.039062 333.261719 78.769531 333.261719 83.367188 L 333.261719 137.492188 C 333.261719 142.089844 329.53125 145.820312 324.933594 145.820312 Z M 274.957031 129.164062 L 316.605469 129.164062 L 316.605469 91.695312 L 274.957031 91.695312 Z M 274.957031 129.164062 " fill-opacity="1" fill-rule="nonzero"/><path fill="#000000" d="M 141.6875 91.695312 C 187.617188 91.695312 224.980469 129.046875 224.980469 174.960938 C 224.980469 220.875 187.617188 258.230469 141.6875 258.230469 C 95.761719 258.230469 58.394531 220.875 58.394531 174.960938 C 58.394531 129.046875 95.761719 91.695312 141.6875 91.695312 M 141.6875 75.039062 C 86.480469 75.039062 41.738281 119.769531 41.738281 174.960938 C 41.738281 230.160156 86.480469 274.886719 141.6875 274.886719 C 196.898438 274.886719 241.640625 230.160156 241.640625 174.960938 C 241.640625 119.769531 196.898438 75.039062 141.6875 75.039062 Z M 141.6875 75.039062 " fill-opacity="1" fill-rule="nonzero"/><path fill="#000000" d="M 199.351562 170.53125 C 191.832031 164.851562 182.71875 161.964844 172.261719 161.964844 C 169.203125 161.964844 166.226562 162.222656 163.378906 162.628906 C 161.441406 158.921875 158.613281 155.75 155.160156 153.425781 C 157.113281 151.265625 159.320312 149.6875 161.777344 149.207031 C 165.511719 148.480469 170.710938 148.59375 175.378906 148.855469 C 177.464844 148.96875 179.464844 149.078125 181.339844 149.078125 C 184.878906 149.078125 193.167969 149.078125 196.675781 141.203125 C 197.882812 138.496094 197.714844 135.332031 196.191406 131.792969 C 191.871094 121.785156 176.21875 108.847656 162.6875 104.105469 C 155.222656 101.488281 148.03125 100.167969 141.296875 100.167969 C 123.308594 100.167969 110.9375 109.808594 109.007812 125.335938 C 107.226562 139.660156 113.199219 151.671875 120.265625 160.574219 C 118.078125 163.945312 116.683594 167.871094 116.34375 172.105469 C 113.617188 171.527344 111.027344 170.460938 109.328125 168.523438 C 106.371094 165.125 104.265625 160.953125 102.222656 156.917969 C 98.371094 149.296875 94.328125 141.308594 84.949219 142.304688 C 82.003906 142.613281 79.34375 144.335938 77.042969 147.421875 C 70.535156 156.160156 67.148438 176.1875 69.800781 190.277344 C 74.183594 213.503906 87.53125 228.503906 103.816406 228.503906 C 107.539062 228.503906 111.3125 227.714844 115.03125 226.140625 C 128.207031 220.578125 135.613281 209.5625 139.816406 199.074219 C 140.277344 199.097656 140.734375 199.144531 141.203125 199.144531 C 145.078125 199.144531 148.734375 198.238281 152.007812 196.667969 C 152.839844 199.355469 153.0625 201.972656 152.269531 204.277344 C 150.808594 208.527344 148.257812 212.441406 145.78125 216.21875 C 141.300781 223.078125 136.21875 230.855469 141.761719 238.480469 C 143.898438 241.429688 147.640625 242.914062 152.878906 242.914062 C 164.003906 242.914062 181.058594 236.058594 190.890625 227.609375 C 203.726562 216.589844 210.867188 203.40625 210.484375 191.445312 C 210.222656 183.0625 206.363281 175.828125 199.351562 170.53125 Z M 108.542969 210.789062 C 106.890625 211.488281 105.292969 211.847656 103.8125 211.847656 C 96.164062 211.847656 88.910156 201.703125 86.171875 187.195312 C 84.808594 179.941406 85.828125 170.972656 87.464844 164.644531 C 89.714844 169.089844 92.507812 174.5625 96.765625 179.460938 C 102.289062 185.796875 110.585938 189.089844 121.394531 189.328125 C 122.304688 190.515625 123.324219 191.621094 124.429688 192.632812 C 121.539062 199.933594 116.6875 207.355469 108.542969 210.789062 Z M 141.203125 182.484375 C 136.621094 182.484375 132.894531 178.746094 132.894531 174.152344 C 132.894531 169.5625 136.621094 165.828125 141.203125 165.828125 C 145.804688 165.828125 149.550781 169.558594 149.550781 174.152344 C 149.550781 178.746094 145.804688 182.484375 141.203125 182.484375 Z M 137.511719 149.476562 C 136.125 149.683594 134.769531 149.984375 133.472656 150.410156 C 128.519531 144.230469 124.433594 136.25 125.539062 127.390625 C 126.410156 120.375 131.714844 116.820312 141.296875 116.820312 C 146.082031 116.820312 151.570312 117.859375 157.171875 119.820312 C 164.140625 122.261719 171.402344 127.632812 176.066406 132.214844 C 173.882812 132.097656 171.421875 131.960938 168.863281 131.960938 C 165.066406 131.960938 161.703125 132.257812 158.589844 132.867188 C 148.917969 134.753906 142.136719 141.828125 137.511719 149.476562 Z M 180.042969 214.96875 C 174.765625 219.5 166.515625 223.296875 159.863281 225.121094 C 162.582031 220.957031 165.921875 215.800781 168.023438 209.691406 C 171.175781 200.53125 168.5625 191.28125 164.375 183.523438 C 164.941406 182.128906 165.398438 180.671875 165.703125 179.164062 C 167.835938 178.851562 170.015625 178.621094 172.261719 178.621094 C 179.105469 178.621094 184.671875 180.320312 189.308594 183.828125 C 192.289062 186.078125 193.734375 188.671875 193.835938 191.980469 C 194.054688 198.769531 188.894531 207.367188 180.042969 214.96875 Z M 180.042969 214.96875 " fill-opacity="1" fill-rule="nonzero"/><g clip-path="url(#52a95cf2da)"><path fill="#000000" d="M 341.59375 25.078125 L 33.40625 25.078125 C 15.082031 25.078125 0.0898438 40.066406 0.0898438 58.386719 L 0.0898438 291.539062 C 0.0898438 309.859375 15.082031 324.847656 33.40625 324.847656 L 50.066406 324.847656 L 50.066406 341.5 C 50.066406 346.097656 53.796875 349.828125 58.394531 349.828125 L 104.203125 349.828125 C 108.800781 349.828125 112.53125 346.097656 112.53125 341.5 L 112.53125 324.847656 L 262.460938 324.847656 L 262.460938 341.5 C 262.460938 346.097656 266.191406 349.828125 270.789062 349.828125 L 316.605469 349.828125 C 321.203125 349.828125 324.933594 346.097656 324.933594 341.5 L 324.933594 324.847656 L 341.59375 324.847656 C 359.917969 324.847656 374.910156 309.859375 374.910156 291.539062 L 374.910156 58.386719 C 374.910156 40.066406 359.917969 25.078125 341.59375 25.078125 Z M 95.875 333.175781 L 66.726562 333.175781 L 66.726562 324.847656 L 95.875 324.847656 Z M 308.273438 333.175781 L 279.117188 333.175781 L 279.117188 324.847656 L 308.273438 324.847656 Z M 358.25 291.539062 C 358.25 300.722656 350.78125 308.195312 341.59375 308.195312 L 33.40625 308.195312 C 24.21875 308.195312 16.75 300.722656 16.75 291.539062 L 16.75 58.386719 C 16.75 49.203125 24.21875 41.730469 33.40625 41.730469 L 341.59375 41.730469 C 350.78125 41.730469 358.25 49.203125 358.25 58.386719 Z M 358.25 291.539062 " fill-opacity="1" fill-rule="nonzero"/></g></svg>