<svg xmlns="http://www.w3.org/2000/svg" xmlns:xlink="http://www.w3.org/1999/xlink" width="500" zoomAndPan="magnify" viewBox="0 0 375 374.999991" height="500" preserveAspectRatio="xMidYMid meet" version="1.0"><path fill="#000000" d="M 112.5 62.5 C 91.820312 62.5 75 79.320312 75 100 C 75 120.679688 91.820312 137.5 112.5 137.5 C 133.179688 137.5 150 120.679688 150 100 C 150 79.320312 133.179688 62.5 112.5 62.5 Z M 112.5 125 C 98.714844 125 87.5 113.785156 87.5 100 C 87.5 86.214844 98.714844 75 112.5 75 C 126.285156 75 137.5 86.214844 137.5 100 C 137.5 113.785156 126.285156 125 112.5 125 Z M 112.5 125 " fill-opacity="1" fill-rule="nonzero"/><path fill="#000000" d="M 120.582031 83.082031 L 108.082031 95.582031 C 105.640625 98.023438 105.640625 101.976562 108.082031 104.417969 C 109.300781 105.640625 110.898438 106.25 112.5 106.25 C 114.101562 106.25 115.699219 105.640625 116.917969 104.417969 L 129.417969 91.917969 C 131.859375 89.476562 131.859375 85.523438 129.417969 83.082031 C 126.976562 80.640625 123.023438 80.640625 120.582031 83.082031 Z M 120.582031 83.082031 " fill-opacity="1" fill-rule="nonzero"/><path fill="#000000" d="M 75 56.25 L 150 56.25 C 153.453125 56.25 156.25 53.453125 156.25 50 L 156.25 25 C 156.25 21.546875 153.453125 18.75 150 18.75 L 75 18.75 C 71.546875 18.75 68.75 21.546875 68.75 25 L 68.75 50 C 68.75 53.453125 71.546875 56.25 75 56.25 Z M 81.25 31.25 L 143.75 31.25 L 143.75 43.75 L 81.25 43.75 Z M 81.25 31.25 " fill-opacity="1" fill-rule="nonzero"/><path fill="#000000" d="M 62.5 231.25 L 162.5 231.25 C 165.953125 231.25 168.75 228.453125 168.75 225 L 168.75 175 C 168.75 171.546875 165.953125 168.75 162.5 168.75 L 62.5 168.75 C 59.046875 168.75 56.25 171.546875 56.25 175 L 56.25 225 C 56.25 228.453125 59.046875 231.25 62.5 231.25 Z M 68.75 181.25 L 156.25 181.25 L 156.25 218.75 L 68.75 218.75 Z M 68.75 181.25 " fill-opacity="1" fill-rule="nonzero"/><path fill="#000000" d="M 81.25 237.5 L 68.75 237.5 C 65.296875 237.5 62.5 240.296875 62.5 243.75 C 62.5 247.203125 65.296875 250 68.75 250 L 81.25 250 C 84.703125 250 87.5 247.203125 87.5 243.75 C 87.5 240.296875 84.703125 237.5 81.25 237.5 Z M 81.25 237.5 " fill-opacity="1" fill-rule="nonzero"/><path fill="#000000" d="M 81.25 256.25 L 68.75 256.25 C 65.296875 256.25 62.5 259.046875 62.5 262.5 C 62.5 265.953125 65.296875 268.75 68.75 268.75 L 81.25 268.75 C 84.703125 268.75 87.5 265.953125 87.5 262.5 C 87.5 259.046875 84.703125 256.25 81.25 256.25 Z M 81.25 256.25 " fill-opacity="1" fill-rule="nonzero"/><path fill="#000000" d="M 118.75 237.5 L 106.25 237.5 C 102.796875 237.5 100 240.296875 100 243.75 C 100 247.203125 102.796875 250 106.25 250 L 118.75 250 C 122.203125 250 125 247.203125 125 243.75 C 125 240.296875 122.203125 237.5 118.75 237.5 Z M 118.75 237.5 " fill-opacity="1" fill-rule="nonzero"/><path fill="#000000" d="M 118.75 256.25 L 106.25 256.25 C 102.796875 256.25 100 259.046875 100 262.5 C 100 265.953125 102.796875 268.75 106.25 268.75 L 118.75 268.75 C 122.203125 268.75 125 265.953125 125 262.5 C 125 259.046875 122.203125 256.25 118.75 256.25 Z M 118.75 256.25 " fill-opacity="1" fill-rule="nonzero"/><path fill="#000000" d="M 156.25 237.5 L 143.75 237.5 C 140.296875 237.5 137.5 240.296875 137.5 243.75 C 137.5 247.203125 140.296875 250 143.75 250 L 156.25 250 C 159.703125 250 162.5 247.203125 162.5 243.75 C 162.5 240.296875 159.703125 237.5 156.25 237.5 Z M 156.25 237.5 " fill-opacity="1" fill-rule="nonzero"/><path fill="#000000" d="M 156.25 256.25 L 143.75 256.25 C 140.296875 256.25 137.5 259.046875 137.5 262.5 C 137.5 265.953125 140.296875 268.75 143.75 268.75 L 156.25 268.75 C 159.703125 268.75 162.5 265.953125 162.5 262.5 C 162.5 259.046875 159.703125 256.25 156.25 256.25 Z M 156.25 256.25 " fill-opacity="1" fill-rule="nonzero"/><path fill="#000000" d="M 375 56.25 C 375 25.234375 349.765625 0 318.75 0 C 287.734375 0 262.5 25.234375 262.5 56.25 C 262.5 80.695312 278.175781 101.535156 300 109.273438 L 300 163.273438 C 292.769531 165.492188 287.5 172.230469 287.5 180.175781 L 287.5 207.324219 C 287.5 215.269531 292.769531 222.007812 300 224.226562 L 300 331.15625 C 300 334.65625 297.152344 337.5 293.65625 337.5 L 200.09375 337.5 C 196.59375 337.5 193.75 334.652344 193.75 331.15625 L 193.75 312.5 C 197.203125 312.5 200 309.703125 200 306.25 L 200 287.5 L 207.03125 287.5 C 216.941406 287.5 225 279.441406 225 269.53125 L 225 18.585938 C 225 15.6875 223.003906 13.167969 220.179688 12.503906 C 205.578125 9.066406 190.660156 6.300781 175.84375 4.292969 C 154.902344 1.445312 133.59375 0 112.5 0 C 91.40625 0 70.097656 1.445312 49.160156 4.289062 C 34.339844 6.300781 19.421875 9.066406 4.820312 12.503906 C 1.996094 13.167969 0 15.6875 0 18.585938 L 0 269.53125 C 0 279.441406 8.058594 287.5 17.96875 287.5 L 25 287.5 L 25 306.25 C 25 309.703125 27.796875 312.5 31.25 312.5 L 31.25 368.75 C 31.25 372.203125 34.046875 375 37.5 375 L 62.5 375 C 65.953125 375 68.75 372.203125 68.75 368.75 L 68.75 312.5 C 72.203125 312.5 75 309.703125 75 306.25 L 75 287.5 L 150 287.5 L 150 306.25 C 150 309.703125 152.796875 312.5 156.25 312.5 L 156.25 331.15625 C 156.25 355.332031 175.917969 375 200.09375 375 L 293.65625 375 C 317.832031 375 337.5 355.332031 337.5 331.15625 L 337.5 224.226562 C 344.730469 222.007812 350 215.269531 350 207.324219 L 350 180.175781 C 350 172.230469 344.730469 165.492188 337.5 163.273438 L 337.5 109.273438 C 359.324219 101.535156 375 80.695312 375 56.25 Z M 212.5 229.496094 L 205.160156 227.664062 C 202.121094 226.902344 200 224.183594 200 221.046875 L 200 78.953125 C 200 75.816406 202.121094 73.097656 205.164062 72.335938 L 212.5 70.503906 Z M 56.25 15.988281 C 74.886719 13.679688 93.78125 12.5 112.5 12.5 C 131.21875 12.5 150.113281 13.679688 168.75 15.988281 L 168.75 87.335938 C 168.75 118.351562 143.515625 143.585938 112.5 143.585938 C 81.484375 143.585938 56.25 118.351562 56.25 87.335938 Z M 12.5 70.503906 L 19.839844 72.335938 C 22.878906 73.097656 25 75.816406 25 78.953125 L 25 221.046875 C 25 224.183594 22.875 226.902344 19.835938 227.664062 L 12.5 229.496094 Z M 31.25 275 L 31.25 268.75 C 31.25 265.304688 34.054688 262.5 37.5 262.5 C 40.945312 262.5 43.75 265.304688 43.75 268.75 L 43.75 275 Z M 56.25 362.5 L 43.75 362.5 L 43.75 312.5 L 56.25 312.5 Z M 62.5 300 L 37.5 300 L 37.5 287.5 L 62.5 287.5 Z M 56.25 275 L 56.25 268.75 C 56.25 258.410156 47.839844 250 37.5 250 C 27.160156 250 18.75 258.410156 18.75 268.75 L 18.75 275 L 17.96875 275 C 14.953125 275 12.5 272.546875 12.5 269.53125 L 12.5 242.378906 L 22.867188 239.789062 C 31.480469 237.640625 37.5 229.929688 37.5 221.046875 L 37.5 78.953125 C 37.5 70.066406 31.480469 62.359375 22.867188 60.210938 L 12.5 57.621094 L 12.5 23.5625 C 22.832031 21.25 33.300781 19.292969 43.75 17.703125 L 43.75 87.335938 C 43.75 125.242188 74.589844 156.085938 112.5 156.085938 C 150.410156 156.085938 181.25 125.242188 181.25 87.335938 L 181.25 17.703125 C 191.699219 19.292969 202.167969 21.25 212.5 23.5625 L 212.5 57.621094 L 202.132812 60.210938 C 193.519531 62.359375 187.5 70.066406 187.5 78.953125 L 187.5 221.046875 C 187.5 229.933594 193.519531 237.640625 202.132812 239.789062 L 212.5 242.382812 L 212.5 269.53125 C 212.5 272.546875 210.046875 275 207.03125 275 Z M 162.5 287.5 L 187.5 287.5 L 187.5 300 L 162.5 300 Z M 325 331.15625 C 325 348.4375 310.9375 362.5 293.65625 362.5 L 200.09375 362.5 C 182.8125 362.5 168.75 348.4375 168.75 331.15625 L 168.75 312.5 L 181.25 312.5 L 181.25 331.15625 C 181.25 341.546875 189.703125 350 200.09375 350 L 293.65625 350 C 304.046875 350 312.5 341.546875 312.5 331.15625 L 312.5 225 L 325 225 Z M 337.5 207.324219 C 337.5 210.179688 335.179688 212.5 332.324219 212.5 L 305.175781 212.5 C 302.320312 212.5 300 210.179688 300 207.324219 L 300 180.175781 C 300 177.320312 302.320312 175 305.175781 175 L 332.324219 175 C 335.179688 175 337.5 177.320312 337.5 180.175781 Z M 312.5 162.5 L 312.5 112.144531 C 314.554688 112.371094 316.636719 112.5 318.75 112.5 C 320.863281 112.5 322.945312 112.371094 325 112.144531 L 325 162.5 Z M 318.75 100 C 294.625 100 275 80.375 275 56.25 C 275 32.125 294.625 12.5 318.75 12.5 C 342.875 12.5 362.5 32.125 362.5 56.25 C 362.5 80.375 342.875 100 318.75 100 Z M 318.75 100 " fill-opacity="1" fill-rule="nonzero"/><path fill="#000000" d="M 318.765625 37.5 C 322.21875 37.5 325.015625 34.703125 325.015625 31.25 C 325.015625 27.796875 322.21875 25 318.765625 25 L 318.757812 25 C 315.304688 25 312.511719 27.796875 312.511719 31.25 C 312.511719 34.703125 315.3125 37.5 318.765625 37.5 Z M 318.765625 37.5 " fill-opacity="1" fill-rule="nonzero"/><path fill="#000000" d="M 301.089844 44.824219 C 304.539062 44.824219 307.339844 42.023438 307.339844 38.574219 C 307.339844 35.121094 304.539062 32.324219 301.089844 32.324219 L 301.082031 32.324219 C 297.628906 32.324219 294.835938 35.121094 294.835938 38.574219 C 294.835938 42.023438 297.636719 44.824219 301.089844 44.824219 Z M 301.089844 44.824219 " fill-opacity="1" fill-rule="nonzero"/><path fill="#000000" d="M 300.015625 56.25 C 300.015625 52.796875 297.21875 50 293.765625 50 L 293.757812 50 C 290.304688 50 287.511719 52.796875 287.511719 56.25 C 287.511719 59.703125 290.3125 62.5 293.765625 62.5 C 297.21875 62.5 300.015625 59.703125 300.015625 56.25 Z M 300.015625 56.25 " fill-opacity="1" fill-rule="nonzero"/><path fill="#000000" d="M 301.089844 67.675781 L 301.082031 67.675781 C 297.628906 67.675781 294.835938 70.476562 294.835938 73.925781 C 294.835938 77.378906 297.636719 80.175781 301.089844 80.175781 C 304.539062 80.175781 307.339844 77.378906 307.339844 73.925781 C 307.339844 70.476562 304.539062 67.675781 301.089844 67.675781 Z M 301.089844 67.675781 " fill-opacity="1" fill-rule="nonzero"/><path fill="#000000" d="M 325.015625 81.25 C 325.015625 77.796875 322.21875 75 318.765625 75 L 318.757812 75 C 315.304688 75 312.511719 77.796875 312.511719 81.25 C 312.511719 84.703125 315.3125 87.5 318.765625 87.5 C 322.21875 87.5 325.015625 84.703125 325.015625 81.25 Z M 325.015625 81.25 " fill-opacity="1" fill-rule="nonzero"/><path fill="#000000" d="M 336.441406 67.675781 L 336.433594 67.675781 C 332.984375 67.675781 330.1875 70.476562 330.1875 73.925781 C 330.1875 77.378906 332.992188 80.175781 336.441406 80.175781 C 339.894531 80.175781 342.691406 77.378906 342.691406 73.925781 C 342.691406 70.476562 339.894531 67.675781 336.441406 67.675781 Z M 336.441406 67.675781 " fill-opacity="1" fill-rule="nonzero"/><path fill="#000000" d="M 337.511719 56.25 C 337.511719 59.703125 340.3125 62.5 343.765625 62.5 C 347.21875 62.5 350.015625 59.703125 350.015625 56.25 C 350.015625 52.796875 347.21875 50 343.765625 50 L 343.757812 50 C 340.304688 50 337.511719 52.796875 337.511719 56.25 Z M 337.511719 56.25 " fill-opacity="1" fill-rule="nonzero"/><path fill="#000000" d="M 336.441406 44.824219 C 339.894531 44.824219 342.691406 42.023438 342.691406 38.574219 C 342.691406 35.121094 339.894531 32.324219 336.441406 32.324219 L 336.433594 32.324219 C 332.984375 32.324219 330.1875 35.121094 330.1875 38.574219 C 330.1875 42.023438 332.992188 44.824219 336.441406 44.824219 Z M 336.441406 44.824219 " fill-opacity="1" fill-rule="nonzero"/><path fill="#000000" d="M 331.25 56.25 C 331.25 57.070312 331.167969 57.882812 331.007812 58.6875 C 330.851562 59.492188 330.613281 60.273438 330.296875 61.035156 C 329.984375 61.792969 329.597656 62.511719 329.144531 63.195312 C 328.6875 63.878906 328.167969 64.507812 327.589844 65.089844 C 327.007812 65.667969 326.378906 66.1875 325.695312 66.644531 C 325.011719 67.097656 324.292969 67.484375 323.535156 67.796875 C 322.773438 68.113281 321.992188 68.351562 321.1875 68.511719 C 320.382812 68.671875 319.570312 68.75 318.75 68.75 C 317.929688 68.75 317.117188 68.671875 316.3125 68.511719 C 315.507812 68.351562 314.726562 68.113281 313.964844 67.796875 C 313.207031 67.484375 312.488281 67.097656 311.804688 66.644531 C 311.121094 66.1875 310.492188 65.667969 309.910156 65.089844 C 309.332031 64.507812 308.8125 63.878906 308.355469 63.195312 C 307.902344 62.511719 307.515625 61.792969 307.203125 61.035156 C 306.886719 60.273438 306.648438 59.492188 306.488281 58.6875 C 306.328125 57.882812 306.25 57.070312 306.25 56.25 C 306.25 55.429688 306.328125 54.617188 306.488281 53.8125 C 306.648438 53.007812 306.886719 52.226562 307.203125 51.464844 C 307.515625 50.707031 307.902344 49.988281 308.355469 49.304688 C 308.8125 48.621094 309.332031 47.992188 309.910156 47.410156 C 310.492188 46.832031 311.121094 46.3125 311.804688 45.855469 C 312.488281 45.402344 313.207031 45.015625 313.964844 44.703125 C 314.726562 44.386719 315.507812 44.148438 316.3125 43.988281 C 317.117188 43.828125 317.929688 43.75 318.75 43.75 C 319.570312 43.75 320.382812 43.828125 321.1875 43.988281 C 321.992188 44.148438 322.773438 44.386719 323.535156 44.703125 C 324.292969 45.015625 325.011719 45.402344 325.695312 45.855469 C 326.378906 46.3125 327.007812 46.832031 327.589844 47.410156 C 328.167969 47.992188 328.6875 48.621094 329.144531 49.304688 C 329.597656 49.988281 329.984375 50.707031 330.296875 51.464844 C 330.613281 52.226562 330.851562 53.007812 331.007812 53.8125 C 331.167969 54.617188 331.25 55.429688 331.25 56.25 Z M 331.25 56.25 " fill-opacity="1" fill-rule="nonzero"/><path fill="#000000" d="M 143.75 200 L 131.25 200 C 127.796875 200 125 202.796875 125 206.25 C 125 209.703125 127.796875 212.5 131.25 212.5 L 143.75 212.5 C 147.203125 212.5 150 209.703125 150 206.25 C 150 202.796875 147.203125 200 143.75 200 Z M 143.75 200 " fill-opacity="1" fill-rule="nonzero"/><path fill="#000000" d="M 93.75 200 L 81.25 200 C 77.796875 200 75 202.796875 75 206.25 C 75 209.703125 77.796875 212.5 81.25 212.5 L 93.75 212.5 C 97.203125 212.5 100 209.703125 100 206.25 C 100 202.796875 97.203125 200 93.75 200 Z M 93.75 200 " fill-opacity="1" fill-rule="nonzero"/><path fill="#000000" d="M 118.75 187.5 L 106.25 187.5 C 102.796875 187.5 100 190.296875 100 193.75 C 100 197.203125 102.796875 200 106.25 200 L 118.75 200 C 122.203125 200 125 197.203125 125 193.75 C 125 190.296875 122.203125 187.5 118.75 187.5 Z M 118.75 187.5 " fill-opacity="1" fill-rule="nonzero"/></svg>