<svg version="1.1" id="Calque_1" xmlns="http://www.w3.org/2000/svg" x="0" y="0" viewBox="0 0 500 500" style="enable-background:new 0 0 500 500" xml:space="preserve"><style>.st0{fill:#fff}</style><path class="st0" d="M32.92 270.3c-6.4 0-12.55-.8-18.47-2.4-5.91-1.6-10.73-3.67-14.45-6.2l7.25-16.29c3.5 2.23 7.53 4.07 12.11 5.52s9.13 2.18 13.67 2.18c3.05 0 5.5-.28 7.36-.84 1.86-.56 3.22-1.3 4.07-2.23.85-.93 1.28-2.03 1.28-3.29 0-1.79-.82-3.2-2.45-4.24-1.64-1.04-3.76-1.9-6.36-2.57-2.6-.67-5.49-1.34-8.65-2.01-3.16-.67-6.32-1.52-9.48-2.57-3.16-1.04-6.04-2.4-8.65-4.07-2.6-1.67-4.73-3.87-6.36-6.58-1.64-2.71-2.45-6.15-2.45-10.32 0-4.69 1.28-8.93 3.85-12.72 2.57-3.79 6.42-6.84 11.55-9.15 5.13-2.3 11.53-3.46 19.19-3.46 5.13 0 10.17.58 15.12 1.73 4.95 1.15 9.35 2.85 13.22 5.08l-6.81 16.4c-3.72-2.01-7.4-3.52-11.05-4.52-3.65-1-7.18-1.51-10.6-1.51-3.05 0-5.51.32-7.36.95-1.86.63-3.2 1.47-4.02 2.51-.82 1.04-1.23 2.23-1.23 3.57 0 1.71.8 3.07 2.4 4.07 1.6 1 3.72 1.82 6.36 2.45 2.64.63 5.54 1.28 8.7 1.95 3.16.67 6.32 1.51 9.48 2.51 3.16 1 6.04 2.34 8.65 4.02 2.6 1.67 4.7 3.87 6.3 6.58 1.6 2.72 2.4 6.12 2.4 10.21 0 4.54-1.28 8.72-3.85 12.55-2.57 3.83-6.4 6.9-11.49 9.21-5.08 2.32-11.5 3.48-19.23 3.48zM122.63 270.3c-6.25 0-12.01-1-17.3-3.01-5.28-2.01-9.88-4.85-13.78-8.54a39.024 39.024 0 0 1-9.09-12.89c-2.16-4.91-3.24-10.3-3.24-16.18 0-5.88 1.08-11.27 3.24-16.18s5.19-9.21 9.09-12.89c3.91-3.68 8.5-6.53 13.78-8.54 5.28-2.01 11.05-3.01 17.3-3.01 6.32 0 12.11 1 17.35 3.01 5.24 2.01 9.8 4.85 13.67 8.54 3.87 3.68 6.9 7.98 9.09 12.89 2.19 4.91 3.29 10.3 3.29 16.18 0 5.88-1.1 11.29-3.29 16.24-2.2 4.95-5.23 9.24-9.09 12.89-3.87 3.65-8.42 6.47-13.67 8.48-5.24 2-11.03 3.01-17.35 3.01zm0-18.3c2.97 0 5.75-.52 8.31-1.56a19.22 19.22 0 0 0 6.7-4.52c1.9-1.97 3.38-4.33 4.46-7.09 1.08-2.75 1.62-5.8 1.62-9.15 0-3.42-.54-6.49-1.62-9.21-1.08-2.71-2.57-5.06-4.46-7.03a19.22 19.22 0 0 0-6.7-4.52c-2.57-1.04-5.34-1.56-8.31-1.56-2.98 0-5.75.52-8.31 1.56a19.22 19.22 0 0 0-6.7 4.52c-1.9 1.97-3.39 4.32-4.46 7.03-1.08 2.72-1.62 5.78-1.62 9.21 0 3.35.54 6.4 1.62 9.15s2.57 5.12 4.46 7.09a19.22 19.22 0 0 0 6.7 4.52c2.56 1.04 5.33 1.56 8.31 1.56zM183.22 268.73v-78.11h22.09v60.59h37.27v17.52h-59.36zM292.12 270.3c-11.53 0-20.53-3.16-27-9.48-6.47-6.32-9.71-15.29-9.71-26.89v-43.29h22.09v42.63c0 6.69 1.32 11.49 3.96 14.39 2.64 2.9 6.26 4.35 10.88 4.35 4.61 0 8.22-1.45 10.82-4.35 2.6-2.9 3.9-7.7 3.9-14.39v-42.63h21.76v43.29c0 11.6-3.23 20.57-9.71 26.89-6.46 6.32-15.46 9.48-26.99 9.48zM388.31 270.3c-6.18 0-11.88-.99-17.13-2.96-5.24-1.97-9.78-4.78-13.61-8.42-3.83-3.64-6.83-7.94-8.98-12.89-2.16-4.95-3.24-10.39-3.24-16.35 0-5.95 1.08-11.4 3.24-16.35 2.16-4.95 5.15-9.24 8.98-12.89 3.83-3.64 8.37-6.45 13.61-8.42 5.24-1.97 10.95-2.96 17.13-2.96 7.21 0 13.67 1.27 19.36 3.79 5.69 2.53 10.43 6.18 14.23 10.94l-14.06 12.72c-2.53-2.97-5.3-5.24-8.31-6.81-3.01-1.56-6.38-2.34-10.1-2.34-3.2 0-6.14.52-8.81 1.56-2.68 1.04-4.97 2.55-6.86 4.52-1.9 1.97-3.39 4.33-4.46 7.09-1.08 2.75-1.62 5.8-1.62 9.15s.54 6.4 1.62 9.15 2.57 5.12 4.46 7.09c1.9 1.97 4.18 3.48 6.86 4.52 2.68 1.04 5.62 1.56 8.81 1.56 3.72 0 7.09-.78 10.1-2.34 3.01-1.56 5.78-3.83 8.31-6.81l14.06 12.72c-3.79 4.69-8.54 8.31-14.23 10.88-5.69 2.56-12.15 3.85-19.36 3.85zM500 251.67v17.07h-62.71v-78.12h61.27v17.07h-39.4v13.17h34.7v16.52h-34.7v14.29zM79.2 157.03h5.46v9.02c-1.25.9-2.68 1.59-4.33 2.06-1.65.48-3.26.73-4.83.73-1.71 0-3.33-.28-4.8-.83-1.47-.55-2.75-1.33-3.83-2.36a10.765 10.765 0 0 1-2.49-3.6c-.61-1.39-.92-2.89-.92-4.56 0-1.66.31-3.19.92-4.57.59-1.39 1.44-2.58 2.51-3.6 1.09-1.02 2.37-1.8 3.86-2.36 1.47-.55 3.1-.83 4.87-.83 2.06 0 3.9.35 5.52 1.04 1.63.68 2.96 1.66 4.02 2.96l-3.93 3.55c-.74-.81-1.54-1.42-2.41-1.82-.87-.42-1.82-.61-2.89-.61-.94 0-1.78.14-2.55.43-.78.28-1.42.71-1.97 1.26-.54.54-.95 1.2-1.26 1.96-.29.76-.45 1.61-.45 2.58 0 .9.16 1.75.45 2.51.31.78.73 1.44 1.26 1.99.55.54 1.2.97 1.96 1.26.76.31 1.59.45 2.51.45.92 0 1.8-.14 2.68-.45.21-.07.42-.16.64-.26v-5.95zM150.73 161.52c1.32-.61 2.37-1.49 3.12-2.62.78-1.2 1.18-2.6 1.18-4.24 0-1.66-.4-3.1-1.18-4.33-.8-1.21-1.92-2.13-3.36-2.79-1.44-.64-3.17-.97-5.16-.97h-9.98v21.82h6.18v-5.78h3.36l3.97 5.78h6.6l-4.73-6.87zm-2.89-4.52c-.64.55-1.59.83-2.88.83h-3.43v-6.39h3.43c1.28 0 2.23.29 2.88.85.64.55.95 1.35.95 2.37 0 .99-.31 1.77-.95 2.34zM216.19 168.84c-1.75 0-3.36-.28-4.83-.84a11.56 11.56 0 0 1-3.85-2.38 10.961 10.961 0 0 1-2.54-3.6c-.6-1.37-.9-2.88-.9-4.52 0-1.64.3-3.15.9-4.52.6-1.37 1.45-2.57 2.54-3.6 1.09-1.03 2.37-1.82 3.85-2.39 1.47-.56 3.09-.84 4.83-.84 1.77 0 3.38.28 4.85.84 1.46.56 2.74 1.36 3.82 2.39 1.08 1.03 1.93 2.23 2.54 3.6.61 1.37.92 2.88.92 4.52 0 1.64-.31 3.15-.92 4.54-.61 1.38-1.46 2.58-2.54 3.6s-2.35 1.81-3.82 2.37c-1.46.55-3.08.83-4.85.83zm0-5.11c.83 0 1.61-.14 2.32-.44.72-.29 1.34-.71 1.87-1.26s.95-1.21 1.25-1.98c.3-.77.45-1.62.45-2.56 0-.96-.15-1.81-.45-2.57-.3-.76-.72-1.41-1.25-1.96s-1.15-.97-1.87-1.26c-.72-.29-1.49-.44-2.32-.44-.83 0-1.61.15-2.32.44-.72.29-1.34.71-1.87 1.26a6.03 6.03 0 0 0-1.25 1.96c-.3.76-.45 1.62-.45 2.57 0 .94.15 1.79.45 2.56.3.77.72 1.43 1.25 1.98s1.15.97 1.87 1.26c.72.29 1.49.44 2.32.44zM288.4 168.84c-3.22 0-5.74-.88-7.55-2.65s-2.71-4.27-2.71-7.51v-12.1h6.17v11.91c0 1.87.37 3.21 1.11 4.02.74.81 1.75 1.22 3.04 1.22s2.3-.41 3.02-1.22c.73-.81 1.09-2.15 1.09-4.02v-11.91h6.08v12.1c0 3.24-.9 5.75-2.71 7.51s-4.32 2.65-7.54 2.65zM368.08 150.33c-.8-1.21-1.91-2.13-3.34-2.79-1.45-.64-3.17-.97-5.16-.97h-9.98v21.82h6.17v-5.7h3.81c1.99 0 3.71-.33 5.16-.99 1.44-.64 2.55-1.58 3.34-2.79.8-1.2 1.2-2.62 1.2-4.26-.01-1.65-.41-3.09-1.2-4.32zm-6 6.67c-.64.55-1.61.83-2.89.83h-3.43v-6.39h3.43c1.28 0 2.25.29 2.89.85.62.55.94 1.35.94 2.37 0 .99-.31 1.77-.94 2.34zM436.54 163.63v4.77h-17.53v-21.83h17.11v4.78h-10.99v3.68h9.7v4.62h-9.7v3.98zM48.77 339.37v13.28H0v-60.76h47.65v13.28H17.01v10.25H44v12.84H17.01v11.11zM133.48 291.89v60.76h-14.15l-26.81-32.37v32.37H75.68v-60.76h14.14l26.82 32.38v-32.38zM211.77 339.37v13.28h-48.78v-60.76h47.66v13.28h-30.64v10.25h26.98v12.84h-26.98v11.11zM281.53 333.54c3.67-1.75 6.55-4.19 8.61-7.32 2.2-3.33 3.3-7.27 3.3-11.85 0-4.63-1.09-8.63-3.3-12.02-2.19-3.38-5.31-5.97-9.33-7.77-4.02-1.78-8.81-2.69-14.36-2.69h-27.78v60.76h17.18v-16.14h9.38l11.01 16.14h18.4l-13.11-19.11zm-25.67-28.1h9.55c3.58 0 6.26.78 8.02 2.34 1.77 1.56 2.66 3.76 2.66 6.59 0 2.78-.88 4.95-2.66 6.51-1.76 1.56-4.44 2.35-8.02 2.35h-9.55v-17.79zM360.97 320.97h15.19v25.17c-3.47 2.49-7.49 4.39-12.07 5.72-4.57 1.33-9.05 1.99-13.45 1.99-4.81 0-9.26-.77-13.36-2.3-4.11-1.53-7.65-3.72-10.63-6.55-2.98-2.83-5.31-6.17-6.99-10.02-1.68-3.84-2.52-8.08-2.52-12.71 0-4.63.84-8.87 2.52-12.71 1.68-3.85 4.02-7.19 7.03-10.02 3-2.83 6.58-5.03 10.72-6.56 4.14-1.53 8.66-2.3 13.58-2.3 5.73 0 10.84.96 15.36 2.87 4.51 1.91 8.25 4.66 11.2 8.25l-10.94 9.89c-2.08-2.26-4.32-3.95-6.73-5.08-2.39-1.12-5.07-1.69-8.02-1.69-2.6 0-4.98.41-7.12 1.22-2.14.81-3.97 1.98-5.47 3.52-1.51 1.53-2.68 3.36-3.52 5.47-.84 2.11-1.26 4.49-1.26 7.16 0 2.54.42 4.89 1.26 7.03.84 2.14 2 3.98 3.52 5.51 1.5 1.53 3.31 2.72 5.43 3.56 2.11.83 4.43 1.25 6.98 1.25 2.55 0 5.04-.42 7.46-1.25.61-.21 1.22-.46 1.83-.75v-16.67zM404.45 352.65V291.9h17.18v60.75h-17.18zM500 339.37v13.28h-48.78v-60.76h47.66v13.28h-30.64v10.25h26.98v12.84h-26.98v11.11z"/></svg>