<?xml version="1.0" encoding="utf-8"?>
<!-- Generator: Adobe Illustrator 27.1.1, SVG Export Plug-In . SVG Version: 6.00 Build 0)  -->
<svg version="1.1" id="Calque_1" xmlns="http://www.w3.org/2000/svg" xmlns:xlink="http://www.w3.org/1999/xlink" x="0px" y="0px"
	 viewBox="0 0 500 500" style="enable-background:new 0 0 500 500;" xml:space="preserve">
<style type="text/css">
	.st0{fill:#FFFFFF;}
</style>
<g>
	<g>
		<path class="st0" d="M32.92,270.3c-6.4,0-12.55-0.8-18.47-2.4C8.54,266.3,3.72,264.23,0,261.7l7.25-16.29
			c3.5,2.23,7.53,4.07,12.11,5.52s9.13,2.18,13.67,2.18c3.05,0,5.5-0.28,7.36-0.84c1.86-0.56,3.22-1.3,4.07-2.23
			c0.85-0.93,1.28-2.03,1.28-3.29c0-1.79-0.82-3.2-2.45-4.24c-1.64-1.04-3.76-1.9-6.36-2.57c-2.6-0.67-5.49-1.34-8.65-2.01
			c-3.16-0.67-6.32-1.52-9.48-2.57c-3.16-1.04-6.04-2.4-8.65-4.07c-2.6-1.67-4.73-3.87-6.36-6.58c-1.64-2.71-2.45-6.15-2.45-10.32
			c0-4.69,1.28-8.93,3.85-12.72c2.57-3.79,6.42-6.84,11.55-9.15c5.13-2.3,11.53-3.46,19.19-3.46c5.13,0,10.17,0.58,15.12,1.73
			c4.95,1.15,9.35,2.85,13.22,5.08l-6.81,16.4c-3.72-2.01-7.4-3.52-11.05-4.52c-3.65-1-7.18-1.51-10.6-1.51
			c-3.05,0-5.51,0.32-7.36,0.95c-1.86,0.63-3.2,1.47-4.02,2.51c-0.82,1.04-1.23,2.23-1.23,3.57c0,1.71,0.8,3.07,2.4,4.07
			c1.6,1,3.72,1.82,6.36,2.45c2.64,0.63,5.54,1.28,8.7,1.95c3.16,0.67,6.32,1.51,9.48,2.51c3.16,1,6.04,2.34,8.65,4.02
			c2.6,1.67,4.7,3.87,6.3,6.58c1.6,2.72,2.4,6.12,2.4,10.21c0,4.54-1.28,8.72-3.85,12.55c-2.57,3.83-6.4,6.9-11.49,9.21
			C47.07,269.14,40.65,270.3,32.92,270.3z"/>
		<path class="st0" d="M122.63,270.3c-6.25,0-12.01-1-17.3-3.01c-5.28-2.01-9.88-4.85-13.78-8.54c-3.91-3.68-6.94-7.98-9.09-12.89
			c-2.16-4.91-3.24-10.3-3.24-16.18c0-5.88,1.08-11.27,3.24-16.18c2.16-4.91,5.19-9.21,9.09-12.89c3.91-3.68,8.5-6.53,13.78-8.54
			c5.28-2.01,11.05-3.01,17.3-3.01c6.32,0,12.11,1,17.35,3.01c5.24,2.01,9.8,4.85,13.67,8.54c3.87,3.68,6.9,7.98,9.09,12.89
			c2.19,4.91,3.29,10.3,3.29,16.18c0,5.88-1.1,11.29-3.29,16.24c-2.2,4.95-5.23,9.24-9.09,12.89c-3.87,3.65-8.42,6.47-13.67,8.48
			C134.74,269.29,128.95,270.3,122.63,270.3z M122.63,252c2.97,0,5.75-0.52,8.31-1.56c2.57-1.04,4.8-2.55,6.7-4.52
			c1.9-1.97,3.38-4.33,4.46-7.09c1.08-2.75,1.62-5.8,1.62-9.15c0-3.42-0.54-6.49-1.62-9.21c-1.08-2.71-2.57-5.06-4.46-7.03
			c-1.9-1.97-4.13-3.48-6.7-4.52c-2.57-1.04-5.34-1.56-8.31-1.56c-2.98,0-5.75,0.52-8.31,1.56c-2.57,1.04-4.8,2.55-6.7,4.52
			c-1.9,1.97-3.39,4.32-4.46,7.03c-1.08,2.72-1.62,5.78-1.62,9.21c0,3.35,0.54,6.4,1.62,9.15c1.08,2.75,2.57,5.12,4.46,7.09
			c1.9,1.97,4.13,3.48,6.7,4.52C116.88,251.48,119.65,252,122.63,252z"/>
		<path class="st0" d="M183.22,268.73v-78.11h22.09v60.59h37.27v17.52H183.22z"/>
		<path class="st0" d="M292.12,270.3c-11.53,0-20.53-3.16-27-9.48c-6.47-6.32-9.71-15.29-9.71-26.89v-43.29h22.09v42.63
			c0,6.69,1.32,11.49,3.96,14.39c2.64,2.9,6.26,4.35,10.88,4.35c4.61,0,8.22-1.45,10.82-4.35c2.6-2.9,3.9-7.7,3.9-14.39v-42.63
			h21.76v43.29c0,11.6-3.23,20.57-9.71,26.89C312.65,267.14,303.65,270.3,292.12,270.3z"/>
		<path class="st0" d="M388.31,270.3c-6.18,0-11.88-0.99-17.13-2.96c-5.24-1.97-9.78-4.78-13.61-8.42
			c-3.83-3.64-6.83-7.94-8.98-12.89c-2.16-4.95-3.24-10.39-3.24-16.35c0-5.95,1.08-11.4,3.24-16.35c2.16-4.95,5.15-9.24,8.98-12.89
			c3.83-3.64,8.37-6.45,13.61-8.42c5.24-1.97,10.95-2.96,17.13-2.96c7.21,0,13.67,1.27,19.36,3.79c5.69,2.53,10.43,6.18,14.23,10.94
			l-14.06,12.72c-2.53-2.97-5.3-5.24-8.31-6.81c-3.01-1.56-6.38-2.34-10.1-2.34c-3.2,0-6.14,0.52-8.81,1.56
			c-2.68,1.04-4.97,2.55-6.86,4.52c-1.9,1.97-3.39,4.33-4.46,7.09c-1.08,2.75-1.62,5.8-1.62,9.15s0.54,6.4,1.62,9.15
			c1.08,2.75,2.57,5.12,4.46,7.09c1.9,1.97,4.18,3.48,6.86,4.52c2.68,1.04,5.62,1.56,8.81,1.56c3.72,0,7.09-0.78,10.1-2.34
			c3.01-1.56,5.78-3.83,8.31-6.81l14.06,12.72c-3.79,4.69-8.54,8.31-14.23,10.88C401.98,269.01,395.52,270.3,388.31,270.3z"/>
		<g>
			<polygon class="st0" points="500,251.67 500,268.74 437.29,268.74 437.29,190.62 498.56,190.62 498.56,207.69 459.16,207.69 
				459.16,220.86 493.86,220.86 493.86,237.38 459.16,237.38 459.16,251.67 			"/>
		</g>
	</g>
	<g>
		<g>
			<path class="st0" d="M79.2,157.03h5.46v9.02c-1.25,0.9-2.68,1.59-4.33,2.06c-1.65,0.48-3.26,0.73-4.83,0.73
				c-1.71,0-3.33-0.28-4.8-0.83c-1.47-0.55-2.75-1.33-3.83-2.36c-1.06-1.02-1.91-2.22-2.49-3.6c-0.61-1.39-0.92-2.89-0.92-4.56
				c0-1.66,0.31-3.19,0.92-4.57c0.59-1.39,1.44-2.58,2.51-3.6c1.09-1.02,2.37-1.8,3.86-2.36c1.47-0.55,3.1-0.83,4.87-0.83
				c2.06,0,3.9,0.35,5.52,1.04c1.63,0.68,2.96,1.66,4.02,2.96l-3.93,3.55c-0.74-0.81-1.54-1.42-2.41-1.82
				c-0.87-0.42-1.82-0.61-2.89-0.61c-0.94,0-1.78,0.14-2.55,0.43c-0.78,0.28-1.42,0.71-1.97,1.26c-0.54,0.54-0.95,1.2-1.26,1.96
				c-0.29,0.76-0.45,1.61-0.45,2.58c0,0.9,0.16,1.75,0.45,2.51c0.31,0.78,0.73,1.44,1.26,1.99c0.55,0.54,1.2,0.97,1.96,1.26
				c0.76,0.31,1.59,0.45,2.51,0.45c0.92,0,1.8-0.14,2.68-0.45c0.21-0.07,0.42-0.16,0.64-0.26V157.03z"/>
			<path class="st0" d="M150.73,161.52c1.32-0.61,2.37-1.49,3.12-2.62c0.78-1.2,1.18-2.6,1.18-4.24c0-1.66-0.4-3.1-1.18-4.33
				c-0.8-1.21-1.92-2.13-3.36-2.79c-1.44-0.64-3.17-0.97-5.16-0.97h-9.98v21.82h6.18v-5.78h3.36l3.97,5.78h6.6L150.73,161.52z
				 M147.84,157c-0.64,0.55-1.59,0.83-2.88,0.83h-3.43v-6.39h3.43c1.28,0,2.23,0.29,2.88,0.85c0.64,0.55,0.95,1.35,0.95,2.37
				C148.79,155.65,148.48,156.43,147.84,157z"/>
			<path class="st0" d="M216.19,168.84c-1.75,0-3.36-0.28-4.83-0.84c-1.48-0.56-2.76-1.36-3.85-2.38c-1.09-1.03-1.94-2.23-2.54-3.6
				c-0.6-1.37-0.9-2.88-0.9-4.52c0-1.64,0.3-3.15,0.9-4.52c0.6-1.37,1.45-2.57,2.54-3.6c1.09-1.03,2.37-1.82,3.85-2.39
				c1.47-0.56,3.09-0.84,4.83-0.84c1.77,0,3.38,0.28,4.85,0.84c1.46,0.56,2.74,1.36,3.82,2.39c1.08,1.03,1.93,2.23,2.54,3.6
				c0.61,1.37,0.92,2.88,0.92,4.52c0,1.64-0.31,3.15-0.92,4.54c-0.61,1.38-1.46,2.58-2.54,3.6c-1.08,1.02-2.35,1.81-3.82,2.37
				C219.58,168.56,217.96,168.84,216.19,168.84z M216.19,163.73c0.83,0,1.61-0.14,2.32-0.44c0.72-0.29,1.34-0.71,1.87-1.26
				c0.53-0.55,0.95-1.21,1.25-1.98c0.3-0.77,0.45-1.62,0.45-2.56c0-0.96-0.15-1.81-0.45-2.57c-0.3-0.76-0.72-1.41-1.25-1.96
				c-0.53-0.55-1.15-0.97-1.87-1.26c-0.72-0.29-1.49-0.44-2.32-0.44c-0.83,0-1.61,0.15-2.32,0.44c-0.72,0.29-1.34,0.71-1.87,1.26
				c-0.53,0.55-0.95,1.21-1.25,1.96c-0.3,0.76-0.45,1.62-0.45,2.57c0,0.94,0.15,1.79,0.45,2.56c0.3,0.77,0.72,1.43,1.25,1.98
				c0.53,0.55,1.15,0.97,1.87,1.26C214.59,163.58,215.36,163.73,216.19,163.73z"/>
			<path class="st0" d="M288.4,168.84c-3.22,0-5.74-0.88-7.55-2.65s-2.71-4.27-2.71-7.51v-12.1h6.17v11.91
				c0,1.87,0.37,3.21,1.11,4.02c0.74,0.81,1.75,1.22,3.04,1.22c1.29,0,2.3-0.41,3.02-1.22c0.73-0.81,1.09-2.15,1.09-4.02v-11.91
				h6.08v12.1c0,3.24-0.9,5.75-2.71,7.51S291.62,168.84,288.4,168.84z"/>
			<path class="st0" d="M368.08,150.33c-0.8-1.21-1.91-2.13-3.34-2.79c-1.45-0.64-3.17-0.97-5.16-0.97h-9.98v21.82h6.17v-5.7h3.81
				c1.99,0,3.71-0.33,5.16-0.99c1.44-0.64,2.55-1.58,3.34-2.79c0.8-1.2,1.2-2.62,1.2-4.26C369.27,153,368.87,151.56,368.08,150.33z
				 M362.08,157c-0.64,0.55-1.61,0.83-2.89,0.83h-3.43v-6.39h3.43c1.28,0,2.25,0.29,2.89,0.85c0.62,0.55,0.94,1.35,0.94,2.37
				C363.02,155.65,362.71,156.43,362.08,157z"/>
			<polygon class="st0" points="436.54,163.63 436.54,168.4 419.01,168.4 419.01,146.57 436.12,146.57 436.12,151.35 425.13,151.35 
				425.13,155.03 434.83,155.03 434.83,159.65 425.13,159.65 425.13,163.63 			"/>
		</g>
	</g>
	<g>
		<g>
			<polygon class="st0" points="48.77,339.37 48.77,352.65 0,352.65 0,291.89 47.65,291.89 47.65,305.17 17.01,305.17 17.01,315.42 
				44,315.42 44,328.26 17.01,328.26 17.01,339.37 			"/>
			<polygon class="st0" points="133.48,291.89 133.48,352.65 119.33,352.65 92.52,320.28 92.52,352.65 75.68,352.65 75.68,291.89 
				89.82,291.89 116.64,324.27 116.64,291.89 			"/>
			<polygon class="st0" points="211.77,339.37 211.77,352.65 162.99,352.65 162.99,291.89 210.65,291.89 210.65,305.17 
				180.01,305.17 180.01,315.42 206.99,315.42 206.99,328.26 180.01,328.26 180.01,339.37 			"/>
			<path class="st0" d="M281.53,333.54c3.67-1.75,6.55-4.19,8.61-7.32c2.2-3.33,3.3-7.27,3.3-11.85c0-4.63-1.09-8.63-3.3-12.02
				c-2.19-3.38-5.31-5.97-9.33-7.77c-4.02-1.78-8.81-2.69-14.36-2.69h-27.78v60.76h17.18v-16.14h9.38l11.01,16.14h18.4
				L281.53,333.54z M255.86,305.44h9.55c3.58,0,6.26,0.78,8.02,2.34c1.77,1.56,2.66,3.76,2.66,6.59c0,2.78-0.88,4.95-2.66,6.51
				c-1.76,1.56-4.44,2.35-8.02,2.35h-9.55V305.44z"/>
			<path class="st0" d="M360.97,320.97h15.19v25.17c-3.47,2.49-7.49,4.39-12.07,5.72c-4.57,1.33-9.05,1.99-13.45,1.99
				c-4.81,0-9.26-0.77-13.36-2.3c-4.11-1.53-7.65-3.72-10.63-6.55c-2.98-2.83-5.31-6.17-6.99-10.02c-1.68-3.84-2.52-8.08-2.52-12.71
				c0-4.63,0.84-8.87,2.52-12.71c1.68-3.85,4.02-7.19,7.03-10.02c3-2.83,6.58-5.03,10.72-6.56c4.14-1.53,8.66-2.3,13.58-2.3
				c5.73,0,10.84,0.96,15.36,2.87c4.51,1.91,8.25,4.66,11.2,8.25l-10.94,9.89c-2.08-2.26-4.32-3.95-6.73-5.08
				c-2.39-1.12-5.07-1.69-8.02-1.69c-2.6,0-4.98,0.41-7.12,1.22c-2.14,0.81-3.97,1.98-5.47,3.52c-1.51,1.53-2.68,3.36-3.52,5.47
				c-0.84,2.11-1.26,4.49-1.26,7.16c0,2.54,0.42,4.89,1.26,7.03c0.84,2.14,2,3.98,3.52,5.51c1.5,1.53,3.31,2.72,5.43,3.56
				c2.11,0.83,4.43,1.25,6.98,1.25c2.55,0,5.04-0.42,7.46-1.25c0.61-0.21,1.22-0.46,1.83-0.75V320.97z"/>
			<path class="st0" d="M404.45,352.65v-60.75h17.18v60.75H404.45z"/>
			<polygon class="st0" points="500,339.37 500,352.65 451.22,352.65 451.22,291.89 498.88,291.89 498.88,305.17 468.24,305.17 
				468.24,315.42 495.22,315.42 495.22,328.26 468.24,328.26 468.24,339.37 			"/>
		</g>
	</g>
</g>
</svg>
