<svg width="469" height="198" viewBox="0 0 469 198" fill="none" xmlns="http://www.w3.org/2000/svg">
<path d="M30.879 118.359C24.8758 118.359 19.1071 117.597 13.5541 116.072C8.01052 114.547 3.48936 112.573 0 110.162L6.8005 94.6341C10.0835 96.7597 13.8636 98.5136 18.1597 99.8957C22.4557 101.278 26.7236 101.974 30.9821 101.974C33.843 101.974 36.1411 101.707 37.8858 101.173C39.6305 100.639 40.9062 99.9339 41.7035 99.0474C42.5008 98.1609 42.9041 97.1124 42.9041 95.9114C42.9041 94.2051 42.135 92.8611 40.606 91.8698C39.0677 90.8784 37.0791 90.0587 34.6403 89.42C32.2015 88.7814 29.4907 88.1427 26.5266 87.5041C23.5626 86.8654 20.5985 86.0552 17.6344 85.0543C14.6703 84.063 11.9689 82.7666 9.5207 81.1748C7.0819 79.5829 5.08396 77.4859 3.55502 74.9027C2.0167 72.3195 1.25692 69.0405 1.25692 65.0656C1.25692 60.5951 2.45756 56.5535 4.86822 52.9408C7.27888 49.3282 10.8902 46.4209 15.7021 44.219C20.5141 42.0266 26.5173 40.9209 33.7023 40.9209C38.5143 40.9209 43.2418 41.4738 47.8849 42.5699C52.528 43.6661 56.6552 45.2866 60.2853 47.4122L53.8975 63.0448C50.4081 61.1289 46.9563 59.6895 43.5326 58.7363C40.1089 57.7831 36.7977 57.297 33.5898 57.297C30.7289 57.297 28.4214 57.602 26.6861 58.2025C24.9414 58.803 23.6845 59.6037 22.9153 60.5951C22.1462 61.5864 21.7616 62.7207 21.7616 63.998C21.7616 65.628 22.512 66.9244 24.0128 67.8776C25.5136 68.8308 27.5022 69.6124 29.9785 70.2129C32.4548 70.8134 35.175 71.433 38.1391 72.0717C41.1032 72.7103 44.0672 73.511 47.0313 74.4642C49.9954 75.4174 52.6968 76.6947 55.145 78.2961C57.5838 79.888 59.5536 81.985 61.0544 84.5682C62.5552 87.1609 63.3056 90.4018 63.3056 94.3004C63.3056 98.628 62.105 102.612 59.6943 106.263C57.2837 109.914 53.6911 112.84 48.9167 115.042C44.1517 117.254 38.1297 118.359 30.879 118.359Z" fill="white"/>
<path d="M115.027 118.359C109.164 118.359 103.762 117.406 98.7995 115.49C93.8469 113.574 89.5321 110.867 85.8739 107.35C82.2063 103.842 79.3642 99.7432 77.3475 95.063C75.3214 90.3828 74.3083 85.245 74.3083 79.6401C74.3083 74.0353 75.3214 68.8975 77.3475 64.2173C79.3735 59.537 82.2157 55.4382 85.8739 51.9304C89.5415 48.4226 93.8469 45.706 98.7995 43.7901C103.752 41.8741 109.164 40.9209 115.027 40.9209C120.955 40.9209 126.386 41.8741 131.301 43.7901C136.216 45.706 140.494 48.4131 144.124 51.9304C147.754 55.4382 150.596 59.537 152.65 64.2173C154.704 68.8975 155.736 74.0353 155.736 79.6401C155.736 85.245 154.704 90.4018 152.65 95.1202C150.587 99.8386 147.744 103.928 144.124 107.407C140.494 110.886 136.226 113.574 131.301 115.49C126.386 117.397 120.955 118.359 115.027 118.359ZM115.027 100.916C117.813 100.916 120.42 100.42 122.822 99.4287C125.232 98.4374 127.324 96.998 129.106 95.1202C130.889 93.2424 132.277 90.9928 133.29 88.362C134.303 85.7407 134.809 82.8334 134.809 79.6401C134.809 76.3802 134.303 73.4538 133.29 70.8611C132.277 68.2779 130.879 66.0379 129.106 64.1601C127.324 62.2822 125.232 60.8429 122.822 59.8516C120.411 58.8602 117.813 58.3646 115.027 58.3646C112.232 58.3646 109.633 58.8602 107.232 59.8516C104.821 60.8429 102.73 62.2822 100.948 64.1601C99.1654 66.0379 97.7677 68.2779 96.7641 70.8611C95.751 73.4538 95.2445 76.3706 95.2445 79.6401C95.2445 82.8334 95.751 85.7407 96.7641 88.362C97.7771 90.9833 99.1747 93.2424 100.948 95.1202C102.73 96.998 104.821 98.4374 107.232 99.4287C109.633 100.42 112.232 100.916 115.027 100.916Z" fill="white"/>
<path d="M171.86 116.863V42.4082H192.581V100.163H227.54V116.863H171.86Z" fill="white"/>
<path d="M274.009 118.36C263.194 118.36 254.752 115.348 248.683 109.323C242.614 103.299 239.575 94.7487 239.575 83.6915V42.4272H260.295V83.0624C260.295 89.4394 261.533 94.0148 264.01 96.7791C266.486 99.5434 269.881 100.925 274.215 100.925C278.539 100.925 281.925 99.5434 284.364 96.7791C286.803 94.0148 288.022 89.4394 288.022 83.0624V42.4272H308.433V83.6915C308.433 94.7487 305.404 103.299 299.325 109.323C293.266 115.348 284.824 118.36 274.009 118.36Z" fill="white"/>
<path d="M364.235 118.359C358.438 118.359 353.092 117.416 348.167 115.538C343.252 113.66 338.993 110.982 335.401 107.512C331.808 104.042 328.994 99.9434 326.978 95.225C324.952 90.5067 323.938 85.3212 323.938 79.6401C323.938 73.9685 324.952 68.7736 326.978 64.0552C329.004 59.3368 331.808 55.2476 335.401 51.7684C338.993 48.2987 343.252 45.6202 348.167 43.7424C353.082 41.8646 358.438 40.9209 364.235 40.9209C370.998 40.9209 377.057 42.1315 382.395 44.5336C387.732 46.9452 392.178 50.4244 395.742 54.9616L382.554 67.0864C380.181 64.2554 377.583 62.0916 374.759 60.5951C371.936 59.1081 368.775 58.3646 365.286 58.3646C362.284 58.3646 359.526 58.8602 357.022 59.8516C354.508 60.8429 352.36 62.2822 350.587 64.1601C348.805 66.0379 347.407 68.2874 346.404 70.9183C345.391 73.5396 344.884 76.4469 344.884 79.6401C344.884 82.8334 345.391 85.7407 346.404 88.362C347.417 90.9833 348.814 93.2424 350.587 95.1202C352.369 96.998 354.508 98.4374 357.022 99.4287C359.536 100.42 362.293 100.916 365.286 100.916C368.775 100.916 371.936 100.172 374.759 98.6852C377.583 97.1982 380.181 95.0344 382.554 92.1939L395.742 104.319C392.187 108.789 387.732 112.24 382.395 114.69C377.057 117.13 370.998 118.359 364.235 118.359Z" fill="white"/>
<path d="M469 100.601V116.873H410.178V42.4082H467.649V58.6794H430.692V71.2332H463.241V86.9801H430.692V100.601H469Z" fill="white"/>
<path d="M74.2895 10.3899H79.411V18.9879C78.2385 19.8457 76.8972 20.5035 75.3495 20.9515C73.8018 21.409 72.2916 21.6473 70.8189 21.6473C69.2149 21.6473 67.6954 21.3804 66.3165 20.8561C64.9376 20.3319 63.737 19.5884 62.724 18.6066C61.7297 17.6343 60.9324 16.4905 60.3883 15.175C59.8162 13.8501 59.5254 12.4203 59.5254 10.8284C59.5254 9.2461 59.8162 7.78769 60.3883 6.47226C60.9418 5.14731 61.7391 4.013 62.7427 3.04073C63.7652 2.06846 64.9658 1.32496 66.3634 0.791163C67.7423 0.266899 69.2712 0 70.9315 0C72.8638 0 74.5897 0.333616 76.1092 0.991328C77.6382 1.63951 78.8857 2.57366 79.88 3.81282L76.1937 7.19669C75.4995 6.4246 74.7491 5.84315 73.9331 5.46187C73.117 5.06152 72.2259 4.88041 71.2223 4.88041C70.3405 4.88041 69.5526 5.01385 68.8303 5.29028C68.0987 5.55718 67.4984 5.96707 66.9825 6.49133C66.476 7.00606 66.0914 7.63517 65.8006 8.35961C65.5286 9.08404 65.3785 9.89427 65.3785 10.8189C65.3785 11.6768 65.5286 12.487 65.8006 13.2114C66.0914 13.9549 66.4854 14.584 66.9825 15.1083C67.4984 15.623 68.1081 16.0329 68.821 16.3094C69.5339 16.6048 70.3124 16.7383 71.1753 16.7383C72.0383 16.7383 72.8637 16.6048 73.6892 16.3094C73.8862 16.2426 74.0831 16.1568 74.2895 16.0615V10.3899Z" fill="white"/>
<path d="M141.384 14.6696C142.623 14.0882 143.608 13.2493 144.311 12.1722C145.043 11.0284 145.418 9.69388 145.418 8.13062C145.418 6.5483 145.043 5.17568 144.311 4.00324C143.561 2.84986 142.51 1.9729 141.159 1.34379C139.809 0.733734 138.186 0.419189 136.319 0.419189H126.958V21.2181H132.755V15.7086H135.907L139.63 21.2181H145.821L141.384 14.6696ZM138.674 10.3611C138.073 10.8854 137.182 11.1523 135.972 11.1523H132.755V5.0613H135.972C137.173 5.0613 138.064 5.33772 138.674 5.87151C139.274 6.39578 139.565 7.15835 139.565 8.13062C139.565 9.0743 139.274 9.81779 138.674 10.3611Z" fill="white"/>
<path d="M202.786 21.6475C201.145 21.6475 199.635 21.3806 198.256 20.8468C196.867 20.313 195.667 19.5505 194.644 18.5782C193.622 17.5964 192.825 16.4526 192.262 15.1467C191.699 13.8408 191.418 12.4014 191.418 10.8382C191.418 9.27492 191.699 7.83558 192.262 6.52969C192.825 5.22379 193.622 4.07996 194.644 3.09815C195.667 2.11635 196.867 1.36332 198.256 0.819991C199.635 0.286196 201.154 0.0192871 202.786 0.0192871C204.447 0.0192871 205.957 0.286196 207.336 0.819991C208.705 1.35379 209.906 2.11635 210.919 3.09815C211.932 4.07996 212.729 5.22379 213.301 6.52969C213.873 7.83558 214.164 9.27492 214.164 10.8382C214.164 12.4014 213.873 13.8408 213.301 15.1657C212.729 16.4812 211.932 17.625 210.919 18.5973C209.906 19.5695 208.714 20.3226 207.336 20.8564C205.966 21.3806 204.447 21.6475 202.786 21.6475ZM202.786 16.7766C203.565 16.7766 204.296 16.6432 204.962 16.3572C205.638 16.0808 206.219 15.6805 206.717 15.1562C207.214 14.6319 207.608 14.0028 207.889 13.2689C208.17 12.5349 208.311 11.7247 208.311 10.8287C208.311 9.91358 208.17 9.10334 207.889 8.37891C207.608 7.65447 207.214 7.0349 206.717 6.51063C206.219 5.98637 205.638 5.58601 204.962 5.30958C204.287 5.03315 203.565 4.89017 202.786 4.89017C202.008 4.89017 201.276 5.03315 200.61 5.30958C199.935 5.58601 199.353 5.98637 198.856 6.51063C198.359 7.0349 197.965 7.664 197.684 8.37891C197.402 9.10334 197.261 9.92311 197.261 10.8287C197.261 11.7247 197.402 12.5349 197.684 13.2689C197.965 14.0028 198.359 14.6319 198.856 15.1562C199.353 15.6805 199.935 16.0808 200.61 16.3572C201.285 16.6337 202.008 16.7766 202.786 16.7766Z" fill="white"/>
<path d="M270.519 21.6473C267.499 21.6473 265.135 20.8085 263.437 19.1213C261.739 17.4341 260.895 15.0511 260.895 11.9627V0.428955H266.683V11.7816C266.683 13.5641 267.03 14.8414 267.724 15.6135C268.418 16.3856 269.365 16.7764 270.575 16.7764C271.785 16.7764 272.733 16.3856 273.408 15.6135C274.093 14.8414 274.431 13.5641 274.431 11.7816V0.428955H280.134V11.9627C280.134 15.0511 279.289 17.4437 277.592 19.1213C275.894 20.799 273.539 21.6473 270.519 21.6473Z" fill="white"/>
<path d="M345.259 4.00324C344.509 2.84986 343.467 1.9729 342.126 1.34379C340.766 0.733734 339.153 0.419189 337.286 0.419189H327.925V21.2181H333.712V15.7849H337.286C339.153 15.7849 340.766 15.4703 342.126 14.8412C343.477 14.2311 344.518 13.3351 345.259 12.1817C346.009 11.0379 346.385 9.68434 346.385 8.12108C346.375 6.54829 346 5.17568 345.259 4.00324ZM339.631 10.3611C339.031 10.8854 338.121 11.1523 336.92 11.1523H333.703V5.0613H336.92C338.121 5.0613 339.031 5.33772 339.631 5.87151C340.213 6.39578 340.513 7.15835 340.513 8.13062C340.513 9.0743 340.222 9.81779 339.631 10.3611Z" fill="white"/>
<path d="M409.474 16.6809V21.2277H393.031V0.419189H409.08V4.97551H398.772V8.4833H407.87V12.8871H398.772V16.6809H409.474Z" fill="white"/>
<path d="M45.7463 184.197V196.856H0V138.939H44.6957V151.598H15.9554V161.368H41.272V173.607H15.9554V184.197H45.7463Z" fill="white"/>
<path d="M125.204 138.939V196.856H111.931L86.7837 166.001V196.856H70.9878V138.939H84.2511L109.408 169.804V138.939H125.204Z" fill="white"/>
<path d="M198.64 184.197V196.856H152.885V138.939H197.59V151.598H168.85V161.368H194.157V173.607H168.85V184.197H198.64Z" fill="white"/>
<path d="M264.075 178.64C267.518 176.972 270.219 174.646 272.151 171.663C274.215 168.489 275.247 164.733 275.247 160.367C275.247 155.954 274.224 152.141 272.151 148.91C270.097 145.688 267.171 143.219 263.4 141.503C259.629 139.807 255.136 138.939 249.93 138.939H223.873V196.856H239.987V181.471H248.786L259.113 196.856H276.372L264.075 178.64ZM239.997 151.855H248.955C252.313 151.855 254.827 152.599 256.477 154.086C258.138 155.573 258.973 157.67 258.973 160.367C258.973 163.017 258.147 165.086 256.477 166.573C254.827 168.06 252.313 168.813 248.955 168.813H239.997V151.855Z" fill="white"/>
<path d="M338.59 166.659H352.838V190.651C349.583 193.024 345.813 194.835 341.517 196.103C337.23 197.371 333.028 198 328.901 198C324.389 198 320.215 197.266 316.369 195.808C312.514 194.349 309.193 192.262 306.398 189.564C303.603 186.866 301.417 183.683 299.841 180.013C298.265 176.353 297.478 172.311 297.478 167.898C297.478 163.484 298.265 159.443 299.841 155.782C301.417 152.113 303.612 148.929 306.435 146.231C309.249 143.534 312.607 141.437 316.491 139.978C320.374 138.52 324.614 137.786 329.229 137.786C334.604 137.786 339.397 138.701 343.637 140.522C347.867 142.342 351.375 144.964 354.142 148.386L343.88 157.813C341.929 155.659 339.828 154.048 337.568 152.97C335.326 151.903 332.812 151.36 330.045 151.36C327.606 151.36 325.374 151.75 323.366 152.522C321.359 153.295 319.642 154.41 318.235 155.878C316.819 157.336 315.722 159.081 314.934 161.092C314.146 163.103 313.752 165.372 313.752 167.917C313.752 170.338 314.146 172.578 314.934 174.618C315.722 176.658 316.81 178.412 318.235 179.87C319.642 181.328 321.34 182.463 323.329 183.263C325.308 184.055 327.484 184.455 329.876 184.455C332.268 184.455 334.604 184.055 336.874 183.263C337.446 183.063 338.018 182.825 338.59 182.548V166.659Z" fill="white"/>
<path d="M379.374 196.856V138.949H395.489V196.856H379.374Z" fill="white"/>
<path d="M469 184.197V196.856H423.244V138.939H467.949V151.598H439.209V161.368H464.516V173.607H439.209V184.197H469Z" fill="white"/>
</svg>
