<svg width="797" height="331" fill="none" xmlns="http://www.w3.org/2000/svg"><path d="M52.458 197.863c-10.199 0-19.999-1.274-29.432-3.824-9.418-2.55-17.098-5.848-23.026-9.88l11.553-25.958c5.577 3.554 11.999 6.486 19.297 8.797 7.298 2.31 14.549 3.473 21.783 3.473 4.86 0 8.764-.446 11.728-1.338 2.964-.893 5.131-2.072 6.486-3.554 1.354-1.482 2.04-3.234 2.04-5.242 0-2.853-1.307-5.099-3.905-6.757-2.613-1.657-5.991-3.027-10.134-4.095-4.143-1.068-8.749-2.135-13.784-3.203a139.948 139.948 0 0 1-15.106-4.095c-5.036-1.657-9.625-3.825-13.784-6.486-4.143-2.661-7.537-6.166-10.135-10.485-2.613-4.318-3.904-9.8-3.904-16.445 0-7.473 2.04-14.23 6.135-20.269 4.096-6.04 10.23-10.9 18.405-14.58 8.175-3.665 18.373-5.514 30.58-5.514 8.174 0 16.205.924 24.093 2.757 7.888 1.832 14.899 4.541 21.066 8.095l-10.852 26.133c-5.928-3.203-11.792-5.609-17.608-7.202-5.816-1.594-11.441-2.407-16.891-2.407-4.86 0-8.78.51-11.728 1.514-2.964 1.004-5.1 2.343-6.406 4-1.307 1.657-1.96 3.553-1.96 5.689 0 2.725 1.275 4.892 3.824 6.485 2.55 1.594 5.928 2.9 10.135 3.904a565.158 565.158 0 0 0 13.863 3.108 160.165 160.165 0 0 1 15.107 3.999c5.035 1.594 9.624 3.729 13.783 6.406 4.143 2.661 7.49 6.167 10.039 10.485 2.55 4.334 3.825 9.752 3.825 16.27 0 7.234-2.04 13.895-6.135 19.998-4.096 6.103-10.199 10.995-18.31 14.676-8.094 3.697-18.325 5.545-30.642 5.545Z" fill="url(#a)"/><path d="M195.41 197.863c-9.96 0-19.138-1.593-27.568-4.796-8.413-3.203-15.743-7.728-21.958-13.608a62.192 62.192 0 0 1-14.485-20.54c-3.442-7.825-5.163-16.413-5.163-25.783 0-9.37 1.721-17.959 5.163-25.783 3.442-7.824 8.27-14.676 14.485-20.54 6.231-5.864 13.545-10.406 21.958-13.608 8.414-3.203 17.608-4.797 27.568-4.797 10.071 0 19.297 1.594 27.647 4.797 8.35 3.203 15.616 7.728 21.783 13.608 6.167 5.864 10.995 12.716 14.485 20.54 3.489 7.824 5.242 16.413 5.242 25.783 0 9.37-1.753 17.99-5.242 25.878-3.506 7.888-8.334 14.724-14.485 20.54-6.167 5.816-13.417 10.31-21.783 13.513-8.35 3.187-17.576 4.796-27.647 4.796Zm0-29.16c4.732 0 9.162-.829 13.242-2.486a30.645 30.645 0 0 0 10.676-7.203c3.028-3.139 5.386-6.9 7.107-11.298 1.721-4.382 2.582-9.242 2.582-14.58 0-5.45-.861-10.342-2.582-14.676-1.721-4.319-4.095-8.063-7.107-11.202a30.617 30.617 0 0 0-10.676-7.203c-4.096-1.657-8.51-2.486-13.242-2.486-4.749 0-9.163.829-13.242 2.486a30.621 30.621 0 0 0-10.677 7.203c-3.027 3.139-5.401 6.883-7.106 11.202-1.721 4.334-2.582 9.21-2.582 14.676 0 5.338.861 10.198 2.582 14.58 1.72 4.382 4.095 8.159 7.106 11.298a30.649 30.649 0 0 0 10.677 7.203c4.079 1.657 8.493 2.486 13.242 2.486Z" fill="url(#b)"/><path d="M291.959 195.361V70.894h35.201v96.549h59.389v27.918h-94.59Z" fill="url(#c)"/><path d="M465.491 197.863c-18.373 0-32.715-5.035-43.025-15.106-10.309-10.071-15.472-24.364-15.472-42.849V70.926h35.2v67.93c0 10.661 2.103 18.31 6.31 22.931 4.207 4.621 9.975 6.931 17.337 6.931 7.346 0 13.099-2.31 17.242-6.931 4.143-4.621 6.214-12.27 6.214-22.931v-67.93h34.675v68.982c0 18.485-5.147 32.778-15.473 42.849-10.294 10.071-24.635 15.106-43.008 15.106Z" fill="url(#d)"/><path d="M618.769 197.863c-9.848 0-18.931-1.577-27.297-4.716-8.35-3.139-15.584-7.617-21.687-13.417-6.103-5.801-10.884-12.653-14.31-20.541-3.442-7.887-5.163-16.556-5.163-26.053 0-9.481 1.721-18.166 5.163-26.054 3.442-7.887 8.207-14.724 14.31-20.54 6.103-5.8 13.337-10.278 21.687-13.417 8.35-3.14 17.449-4.717 27.297-4.717 11.489 0 21.783 2.024 30.85 6.04 9.066 4.031 16.62 9.847 22.675 17.432l-22.405 20.27c-4.031-4.733-8.445-8.35-13.242-10.852-4.796-2.486-10.166-3.729-16.094-3.729-5.099 0-9.784.829-14.038 2.486-4.271 1.657-7.92 4.063-10.932 7.203-3.027 3.139-5.402 6.899-7.107 11.297-1.721 4.382-2.581 9.243-2.581 14.581 0 5.338.86 10.198 2.581 14.58s4.096 8.159 7.107 11.298c3.028 3.139 6.661 5.545 10.932 7.203 4.27 1.657 8.955 2.486 14.038 2.486 5.928 0 11.298-1.243 16.094-3.729 4.797-2.486 9.211-6.103 13.242-10.852l22.405 20.269c-6.039 7.474-13.609 13.242-22.675 17.338-9.067 4.079-19.361 6.134-30.85 6.134Z" fill="url(#e)"/><path d="M796.746 168.175v27.201h-99.928V70.893h97.633v27.2h-62.783v20.987h55.294v26.324h-55.294v22.771h65.078Z" fill="url(#f)"/><path d="M126.204 17.369h8.701v14.373c-1.992 1.434-4.271 2.534-6.9 3.283-2.629.765-5.195 1.163-7.696 1.163-2.725 0-5.307-.446-7.649-1.322-2.343-.877-4.382-2.12-6.103-3.761-1.689-1.625-3.044-3.538-3.968-5.737-.972-2.215-1.466-4.605-1.466-7.266 0-2.645.494-5.083 1.466-7.282.94-2.215 2.295-4.111 4-5.737 1.736-1.625 3.776-2.868 6.15-3.76C115.082.446 117.679 0 120.5 0c3.282 0 6.214.558 8.796 1.657 2.597 1.084 4.717 2.645 6.406 4.717l-6.263 5.657c-1.179-1.29-2.454-2.263-3.84-2.9-1.386-.67-2.9-.972-4.605-.972-1.498 0-2.837.223-4.064.685a8.372 8.372 0 0 0-3.139 2.008c-.86.86-1.514 1.912-2.008 3.123-.462 1.211-.717 2.565-.717 4.111 0 1.434.255 2.789.717 4 .494 1.243 1.164 2.294 2.008 3.17a9.004 9.004 0 0 0 3.123 2.009c1.211.494 2.534.717 4 .717 1.466 0 2.868-.223 4.271-.717a10.52 10.52 0 0 0 1.019-.415V17.37Z" fill="url(#g)"/><path d="M240.187 24.525c2.103-.972 3.776-2.374 4.972-4.175 1.242-1.912 1.88-4.143 1.88-6.757 0-2.645-.638-4.94-1.88-6.9-1.275-1.927-3.06-3.393-5.355-4.445-2.294-1.02-5.051-1.546-8.222-1.546h-15.903v34.77h9.848v-9.21h5.354l6.326 9.21h10.517l-7.537-10.947Zm-4.605-7.203c-1.02.877-2.534 1.323-4.59 1.323h-5.465V8.462h5.465c2.04 0 3.554.463 4.59 1.355 1.019.876 1.513 2.151 1.513 3.777 0 1.577-.494 2.82-1.513 3.728Z" fill="url(#h)"/><path d="M344.497 36.188c-2.789 0-5.354-.447-7.697-1.339-2.358-.892-4.398-2.167-6.135-3.792a17.462 17.462 0 0 1-4.047-5.737c-.956-2.183-1.434-4.59-1.434-7.203 0-2.613.478-5.02 1.434-7.202a17.463 17.463 0 0 1 4.047-5.737c1.737-1.641 3.777-2.9 6.135-3.808C339.143.477 341.724.03 344.497.03c2.82 0 5.386.446 7.728 1.339 2.327.892 4.366 2.167 6.087 3.808a17.95 17.95 0 0 1 4.048 5.737c.972 2.183 1.466 4.59 1.466 7.202 0 2.614-.494 5.02-1.466 7.235a17.607 17.607 0 0 1-4.048 5.736c-1.721 1.626-3.744 2.885-6.087 3.777-2.326.876-4.908 1.323-7.728 1.323Zm0-8.143c1.322 0 2.565-.223 3.697-.701a8.483 8.483 0 0 0 2.979-2.008c.845-.877 1.514-1.928 1.992-3.155.478-1.227.717-2.582.717-4.08 0-1.53-.239-2.884-.717-4.095a9.437 9.437 0 0 0-1.992-3.123 8.484 8.484 0 0 0-2.979-2.008 9.791 9.791 0 0 0-3.697-.701c-1.323 0-2.566.239-3.697.701a8.496 8.496 0 0 0-2.98 2.008 9.603 9.603 0 0 0-1.992 3.123c-.478 1.211-.717 2.582-.717 4.096 0 1.497.239 2.852.717 4.079.478 1.227 1.147 2.278 1.992 3.155a8.496 8.496 0 0 0 2.98 2.008 9.784 9.784 0 0 0 3.697.7Z" fill="url(#i)"/><path d="M459.563 36.189c-5.131 0-9.147-1.402-12.031-4.223-2.884-2.82-4.318-6.804-4.318-11.967V.718h9.831v18.978c0 2.98.59 5.115 1.769 6.406 1.179 1.29 2.789 1.944 4.844 1.944 2.056 0 3.666-.653 4.813-1.944 1.163-1.29 1.737-3.426 1.737-6.406V.718h9.688v19.281c0 5.163-1.434 9.163-4.318 11.967-2.884 2.805-6.884 4.223-12.015 4.223Z" fill="url(#j)"/><path d="M586.532 6.694c-1.275-1.928-3.043-3.394-5.322-4.446-2.311-1.02-5.051-1.546-8.223-1.546h-15.903v34.77h9.832V26.39h6.071c3.172 0 5.912-.526 8.223-1.577 2.295-1.02 4.063-2.518 5.322-4.446 1.275-1.912 1.912-4.175 1.912-6.788-.016-2.63-.653-4.924-1.912-6.884Zm-9.561 10.628c-1.02.877-2.565 1.323-4.605 1.323H566.9V8.462h5.466c2.04 0 3.585.463 4.605 1.355.988.876 1.498 2.151 1.498 3.777 0 1.577-.494 2.82-1.498 3.728Z" fill="url(#k)"/><path d="M695.623 27.887v7.601h-27.934V.702h27.264V8.32h-17.512v5.864h15.457v7.362h-15.457v6.342h18.182Z" fill="url(#l)"/><path d="M77.715 307.926v21.161H0v-96.82h75.93v21.161H27.105v16.333h43.009v20.461H27.105v17.704h50.61Z" fill="url(#m)"/><path d="M212.699 232.267v96.82h-22.548l-42.721-51.581v51.581h-26.834v-96.82h22.531l42.738 51.597v-51.597h26.834Z" fill="url(#n)"/><path d="M337.454 307.926v21.161h-77.731v-96.82h75.946v21.161h-48.825v16.333h42.993v20.461h-42.993v17.704h50.61Z" fill="url(#o)"/><path d="M448.616 298.636c5.848-2.789 10.437-6.677 13.72-11.665 3.505-5.306 5.258-11.585 5.258-18.883 0-7.378-1.737-13.752-5.258-19.153-3.49-5.386-8.462-9.514-14.868-12.382-6.405-2.836-14.038-4.286-22.882-4.286h-44.267v96.82h27.376v-25.719h14.947l17.544 25.719h29.32l-20.89-30.451Zm-40.905-44.778h15.218c5.704 0 9.975 1.243 12.779 3.729 2.821 2.486 4.239 5.992 4.239 10.501 0 4.43-1.402 7.888-4.239 10.374-2.804 2.486-7.075 3.745-12.779 3.745h-15.218v-28.349Z" fill="url(#p)"/><path d="M575.203 278.606h24.205v40.108c-5.53 3.968-11.936 6.995-19.234 9.115-7.282 2.119-14.421 3.171-21.432 3.171-7.665 0-14.756-1.227-21.289-3.665-6.55-2.438-12.19-5.928-16.939-10.438-4.749-4.509-8.462-9.831-11.139-15.966-2.677-6.119-4.015-12.876-4.015-20.254 0-7.378 1.338-14.134 4.015-20.253 2.677-6.135 6.406-11.457 11.203-15.967 4.78-4.509 10.485-8.015 17.082-10.453 6.597-2.438 13.799-3.665 21.639-3.665 9.131 0 17.274 1.53 24.477 4.573 7.186 3.044 13.146 7.426 17.847 13.146l-17.433 15.76c-3.315-3.601-6.884-6.294-10.724-8.095-3.809-1.785-8.079-2.693-12.78-2.693-4.143 0-7.936.654-11.346 1.944-3.41 1.291-6.326 3.155-8.716 5.609-2.406 2.438-4.271 5.354-5.609 8.717-1.339 3.362-2.008 7.155-2.008 11.409 0 4.048.669 7.792 2.008 11.202 1.338 3.41 3.187 6.342 5.609 8.78 2.39 2.439 5.274 4.335 8.652 5.673 3.363 1.323 7.06 1.992 11.123 1.992s8.031-.669 11.887-1.992a27.983 27.983 0 0 0 2.917-1.195v-26.563Z" fill="url(#q)"/><path d="M644.487 329.087v-96.805h27.377v96.805h-27.377Z" fill="url(#r)"/><path d="M796.746 307.926v21.161h-77.731v-96.82h75.946v21.161h-48.825v16.333h42.993v20.461h-42.993v17.704h50.61Z" fill="url(#s)"/><defs><linearGradient id="j" x1="101.123" y1="18.108" x2="695.623" y2="18.108" gradientUnits="userSpaceOnUse"><stop offset=".006" stop-color="#23589B"/><stop offset="1" stop-color="#51C4B8"/></linearGradient><linearGradient id="a" x1="-24.101" y1="133.14" x2="874.35" y2="133.104" gradientUnits="userSpaceOnUse"><stop offset=".031" stop-color="#23589B"/><stop offset=".33" stop-color="#3376A9"/><stop offset=".66" stop-color="#2EA0BA"/><stop offset="1" stop-color="#51C4B8"/></linearGradient><linearGradient id="c" x1="-24.101" y1="133.151" x2="874.35" y2="133.115" gradientUnits="userSpaceOnUse"><stop offset=".031" stop-color="#23589B"/><stop offset=".33" stop-color="#3376A9"/><stop offset=".66" stop-color="#2EA0BA"/><stop offset="1" stop-color="#51C4B8"/></linearGradient><linearGradient id="d" x1="-24.101" y1="134.4" x2="874.35" y2="134.364" gradientUnits="userSpaceOnUse"><stop offset=".031" stop-color="#23589B"/><stop offset=".33" stop-color="#3376A9"/><stop offset=".66" stop-color="#2EA0BA"/><stop offset="1" stop-color="#51C4B8"/></linearGradient><linearGradient id="e" x1="-24.101" y1="133.162" x2="874.35" y2="133.127" gradientUnits="userSpaceOnUse"><stop offset=".031" stop-color="#23589B"/><stop offset=".33" stop-color="#3376A9"/><stop offset=".66" stop-color="#2EA0BA"/><stop offset="1" stop-color="#51C4B8"/></linearGradient><linearGradient id="f" x1="2.953" y1="133.165" x2="794.883" y2="133.133" gradientUnits="userSpaceOnUse"><stop offset=".031" stop-color="#23589B"/><stop offset=".33" stop-color="#3376A9"/><stop offset=".66" stop-color="#2EA0BA"/><stop offset="1" stop-color="#51C4B8"/></linearGradient><linearGradient id="g" x1="101.122" y1="18.108" x2="695.623" y2="18.108" gradientUnits="userSpaceOnUse"><stop offset=".006" stop-color="#23589B"/><stop offset="1" stop-color="#51C4B8"/></linearGradient><linearGradient id="h" x1="101.122" y1="18.108" x2="695.623" y2="18.108" gradientUnits="userSpaceOnUse"><stop offset=".006" stop-color="#23589B"/><stop offset="1" stop-color="#51C4B8"/></linearGradient><linearGradient id="i" x1="101.122" y1="18.107" x2="695.623" y2="18.107" gradientUnits="userSpaceOnUse"><stop offset=".006" stop-color="#23589B"/><stop offset="1" stop-color="#51C4B8"/></linearGradient><linearGradient id="b" x1="-24.101" y1="133.146" x2="874.35" y2="133.11" gradientUnits="userSpaceOnUse"><stop offset=".031" stop-color="#23589B"/><stop offset=".33" stop-color="#3376A9"/><stop offset=".66" stop-color="#2EA0BA"/><stop offset="1" stop-color="#51C4B8"/></linearGradient><linearGradient id="k" x1="101.122" y1="18.108" x2="695.623" y2="18.108" gradientUnits="userSpaceOnUse"><stop offset=".006" stop-color="#23589B"/><stop offset="1" stop-color="#51C4B8"/></linearGradient><linearGradient id="l" x1="101.122" y1="18.108" x2="695.623" y2="18.108" gradientUnits="userSpaceOnUse"><stop offset=".006" stop-color="#23589B"/><stop offset="1" stop-color="#51C4B8"/></linearGradient><linearGradient id="m" x1="0" y1="280.674" x2="796.746" y2="280.674" gradientUnits="userSpaceOnUse"><stop offset=".006" stop-color="#23589B"/><stop offset="1" stop-color="#51C4B8"/></linearGradient><linearGradient id="n" x1="0" y1="280.674" x2="796.746" y2="280.674" gradientUnits="userSpaceOnUse"><stop offset=".006" stop-color="#23589B"/><stop offset="1" stop-color="#51C4B8"/></linearGradient><linearGradient id="o" x1="0" y1="280.674" x2="796.746" y2="280.674" gradientUnits="userSpaceOnUse"><stop offset=".006" stop-color="#23589B"/><stop offset="1" stop-color="#51C4B8"/></linearGradient><linearGradient id="p" x1="0" y1="280.674" x2="796.746" y2="280.674" gradientUnits="userSpaceOnUse"><stop offset=".006" stop-color="#23589B"/><stop offset="1" stop-color="#51C4B8"/></linearGradient><linearGradient id="q" x1="0" y1="280.675" x2="796.745" y2="280.675" gradientUnits="userSpaceOnUse"><stop offset=".006" stop-color="#23589B"/><stop offset="1" stop-color="#51C4B8"/></linearGradient><linearGradient id="r" x1="0" y1="280.674" x2="796.745" y2="280.674" gradientUnits="userSpaceOnUse"><stop offset=".006" stop-color="#23589B"/><stop offset="1" stop-color="#51C4B8"/></linearGradient><linearGradient id="s" x1="0" y1="280.674" x2="796.746" y2="280.674" gradientUnits="userSpaceOnUse"><stop offset=".006" stop-color="#23589B"/><stop offset="1" stop-color="#51C4B8"/></linearGradient></defs></svg>