<svg width="797" height="331" viewBox="0 0 797 331" fill="none" xmlns="http://www.w3.org/2000/svg">
<path d="M52.4577 197.863C42.2594 197.863 32.4594 196.589 23.0259 194.039C13.6084 191.489 5.92779 188.191 0 184.159L11.5528 158.201C17.13 161.755 23.5518 164.687 30.85 166.998C38.1482 169.308 45.3986 170.471 52.633 170.471C57.4932 170.471 61.3972 170.025 64.3611 169.133C67.325 168.24 69.4921 167.061 70.8466 165.579C72.2011 164.097 72.8863 162.345 72.8863 160.337C72.8863 157.484 71.5796 155.238 68.9822 153.58C66.3689 151.923 62.9907 150.553 58.8476 149.485C54.7046 148.417 50.0994 147.35 45.0639 146.282C40.0285 145.214 34.9931 143.86 29.9576 142.187C24.9222 140.53 20.3329 138.362 16.1739 135.701C12.0309 133.04 8.63672 129.535 6.03933 125.216C3.42601 120.898 2.13528 115.416 2.13528 108.771C2.13528 101.298 4.17495 94.5415 8.27022 88.5021C12.3655 82.4628 18.5004 77.6027 26.675 73.9217C34.8497 70.2567 45.048 68.4082 57.2541 68.4082C65.4287 68.4082 73.4599 69.3324 81.3477 71.1649C89.2355 72.9975 96.2469 75.7064 102.414 79.2599L91.562 105.393C85.6342 102.19 79.7702 99.7841 73.9539 98.1906C68.1377 96.5971 62.5127 95.7844 57.0629 95.7844C52.2028 95.7844 48.2828 96.2943 45.3348 97.2982C42.3709 98.3021 40.2357 99.6406 38.929 101.298C37.6223 102.955 36.969 104.851 36.969 106.987C36.969 109.712 38.2438 111.879 40.7934 113.472C43.343 115.066 46.7212 116.372 50.928 117.376C55.1348 118.38 59.7559 119.416 64.7914 120.484C69.8268 121.551 74.8622 122.89 79.8976 124.483C84.9331 126.077 89.5223 128.212 93.6813 130.889C97.8244 133.55 101.171 137.056 103.72 141.374C106.27 145.708 107.545 151.126 107.545 157.644C107.545 164.878 105.505 171.539 101.41 177.642C97.3145 183.745 91.2114 188.637 83.1006 192.318C75.0056 196.015 64.7754 197.863 52.4577 197.863Z" fill="url(#paint0_linear_88_231)"/>
<path d="M195.41 197.863C185.45 197.863 176.272 196.27 167.842 193.067C159.429 189.864 152.099 185.339 145.884 179.459C139.654 173.595 134.825 166.743 131.399 158.919C127.957 151.094 126.236 142.506 126.236 133.136C126.236 123.766 127.957 115.177 131.399 107.353C134.841 99.5291 139.669 92.6771 145.884 86.813C152.115 80.949 159.429 76.4075 167.842 73.2046C176.256 70.0017 185.45 68.4082 195.41 68.4082C205.481 68.4082 214.707 70.0017 223.057 73.2046C231.407 76.4075 238.673 80.933 244.84 86.813C251.007 92.6771 255.835 99.5291 259.325 107.353C262.814 115.177 264.567 123.766 264.567 133.136C264.567 142.506 262.814 151.126 259.325 159.014C255.819 166.902 250.991 173.738 244.84 179.554C238.673 185.37 231.423 189.864 223.057 193.067C214.707 196.254 205.481 197.863 195.41 197.863ZM195.41 168.703C200.142 168.703 204.572 167.874 208.652 166.217C212.747 164.559 216.3 162.153 219.328 159.014C222.356 155.875 224.714 152.114 226.435 147.716C228.156 143.334 229.017 138.474 229.017 133.136C229.017 127.686 228.156 122.794 226.435 118.46C224.714 114.141 222.34 110.397 219.328 107.258C216.3 104.118 212.747 101.712 208.652 100.055C204.556 98.3977 200.142 97.5691 195.41 97.5691C190.661 97.5691 186.247 98.3977 182.168 100.055C178.073 101.712 174.519 104.118 171.491 107.258C168.464 110.397 166.09 114.141 164.385 118.46C162.664 122.794 161.803 127.67 161.803 133.136C161.803 138.474 162.664 143.334 164.385 147.716C166.105 152.098 168.48 155.875 171.491 159.014C174.519 162.153 178.073 164.559 182.168 166.217C186.247 167.874 190.661 168.703 195.41 168.703Z" fill="url(#paint1_linear_88_231)"/>
<path d="M291.959 195.361V70.8936H327.16V167.443H386.549V195.361H291.959Z" fill="url(#paint2_linear_88_231)"/>
<path d="M465.491 197.863C447.118 197.863 432.776 192.828 422.466 182.757C412.157 172.686 406.994 158.393 406.994 139.908V70.9258H442.194V138.856C442.194 149.517 444.297 157.166 448.504 161.787C452.711 166.408 458.479 168.718 465.841 168.718C473.187 168.718 478.94 166.408 483.083 161.787C487.226 157.166 489.297 149.517 489.297 138.856V70.9258H523.972V139.908C523.972 158.393 518.825 172.686 508.499 182.757C498.205 192.828 483.864 197.863 465.491 197.863Z" fill="url(#paint3_linear_88_231)"/>
<path d="M618.769 197.863C608.921 197.863 599.838 196.286 591.472 193.147C583.122 190.008 575.888 185.53 569.785 179.73C563.682 173.929 558.901 167.077 555.475 159.189C552.033 151.302 550.312 142.633 550.312 133.136C550.312 123.655 552.033 114.97 555.475 107.082C558.917 99.1945 563.682 92.3584 569.785 86.5421C575.888 80.7418 583.122 76.2641 591.472 73.1249C599.822 69.9858 608.921 68.4082 618.769 68.4082C630.258 68.4082 640.552 70.432 649.619 74.4475C658.685 78.4791 666.239 84.2953 672.294 91.8803L649.889 112.15C645.858 107.417 641.444 103.8 636.647 101.298C631.851 98.812 626.481 97.5691 620.553 97.5691C615.454 97.5691 610.769 98.3977 606.515 100.055C602.244 101.712 598.595 104.118 595.583 107.258C592.556 110.397 590.181 114.157 588.476 118.555C586.755 122.937 585.895 127.798 585.895 133.136C585.895 138.474 586.755 143.334 588.476 147.716C590.197 152.098 592.572 155.875 595.583 159.014C598.611 162.153 602.244 164.559 606.515 166.217C610.785 167.874 615.47 168.703 620.553 168.703C626.481 168.703 631.851 167.46 636.647 164.974C641.444 162.488 645.858 158.871 649.889 154.122L672.294 174.391C666.255 181.865 658.685 187.633 649.619 191.729C640.552 195.808 630.258 197.863 618.769 197.863Z" fill="url(#paint4_linear_88_231)"/>
<path d="M796.746 168.175V195.376H696.818V70.8926H794.451V98.0935H731.668V119.08H786.962V145.404H731.668V168.175H796.746Z" fill="url(#paint5_linear_88_231)"/>
<path d="M126.204 17.369H134.905V31.7423C132.913 33.1765 130.634 34.276 128.005 35.0249C125.376 35.7898 122.81 36.1882 120.309 36.1882C117.584 36.1882 115.002 35.742 112.66 34.8656C110.317 33.9892 108.278 32.7462 106.557 31.1049C104.868 29.4796 103.513 27.5674 102.589 25.3684C101.617 23.1534 101.123 20.7632 101.123 18.1021C101.123 15.4569 101.617 13.0188 102.589 10.8198C103.529 8.60484 104.884 6.7086 106.589 5.08324C108.325 3.45788 110.365 2.21496 112.739 1.3226C115.082 0.44618 117.679 0 120.5 0C123.782 0 126.714 0.557711 129.296 1.65722C131.893 2.74079 134.013 4.30243 135.702 6.37396L129.439 12.0308C128.26 10.7401 126.985 9.76809 125.599 9.1307C124.213 8.46143 122.699 8.15867 120.994 8.15867C119.496 8.15867 118.157 8.38174 116.93 8.84386C115.687 9.29003 114.668 9.97525 113.791 10.8517C112.931 11.7122 112.277 12.7638 111.783 13.9749C111.321 15.186 111.066 16.5404 111.066 18.0861C111.066 19.5203 111.321 20.8747 111.783 22.0858C112.277 23.3287 112.947 24.3804 113.791 25.2568C114.668 26.1173 115.703 26.8025 116.914 27.2646C118.125 27.7586 119.448 27.9817 120.914 27.9817C122.38 27.9817 123.782 27.7586 125.185 27.2646C125.519 27.1531 125.854 27.0097 126.204 26.8503V17.369Z" fill="url(#paint6_linear_88_231)"/>
<path d="M240.187 24.5248C242.29 23.5528 243.963 22.1505 245.159 20.3499C246.401 18.4377 247.039 16.2068 247.039 13.5935C247.039 10.9483 246.401 8.65366 245.159 6.69367C243.884 4.76554 242.099 3.29952 239.804 2.24781C237.51 1.22798 234.753 0.702148 231.582 0.702148H215.679V35.4721H225.527V26.2617H230.881L237.207 35.4721H247.724L240.187 24.5248ZM235.582 17.3222C234.562 18.1987 233.048 18.6449 230.992 18.6449H225.527V8.46244H230.992C233.032 8.46244 234.546 8.92454 235.582 9.8169C236.601 10.6933 237.095 11.9681 237.095 13.5935C237.095 15.171 236.601 16.414 235.582 17.3222Z" fill="url(#paint7_linear_88_231)"/>
<path d="M344.497 36.1876C341.708 36.1876 339.143 35.7414 336.8 34.849C334.442 33.9567 332.402 32.6819 330.665 31.0565C328.928 29.4152 327.574 27.5031 326.618 25.32C325.662 23.1369 325.184 20.7307 325.184 18.1174C325.184 15.5041 325.662 13.0979 326.618 10.9148C327.574 8.73171 328.928 6.81954 330.665 5.17824C332.402 3.53695 334.442 2.27809 336.8 1.3698C339.143 0.477446 341.724 0.03125 344.497 0.03125C347.317 0.03125 349.883 0.477446 352.225 1.3698C354.552 2.26216 356.591 3.53695 358.312 5.17824C360.033 6.81954 361.388 8.73171 362.36 10.9148C363.332 13.0979 363.826 15.5041 363.826 18.1174C363.826 20.7307 363.332 23.1369 362.36 25.3518C361.388 27.5508 360.033 29.463 358.312 31.0884C356.591 32.7138 354.568 33.9726 352.225 34.865C349.899 35.7414 347.317 36.1876 344.497 36.1876ZM344.497 28.0448C345.819 28.0448 347.062 27.8217 348.194 27.3437C349.341 26.8816 350.329 26.2123 351.173 25.3359C352.018 24.4595 352.687 23.4078 353.165 22.1808C353.643 20.9538 353.882 19.5993 353.882 18.1015C353.882 16.5717 353.643 15.2172 353.165 14.0062C352.687 12.7951 352.018 11.7594 351.173 10.8829C350.329 10.0065 349.341 9.33724 348.194 8.87513C347.046 8.41302 345.819 8.17399 344.497 8.17399C343.174 8.17399 341.931 8.41302 340.8 8.87513C339.653 9.33724 338.665 10.0065 337.82 10.8829C336.975 11.7594 336.306 12.8111 335.828 14.0062C335.35 15.2172 335.111 16.5876 335.111 18.1015C335.111 19.5993 335.35 20.9538 335.828 22.1808C336.306 23.4078 336.975 24.4595 337.82 25.3359C338.665 26.2123 339.653 26.8816 340.8 27.3437C341.947 27.8058 343.174 28.0448 344.497 28.0448Z" fill="url(#paint8_linear_88_231)"/>
<path d="M459.563 36.1889C454.432 36.1889 450.416 34.7866 447.532 31.9661C444.648 29.1457 443.214 25.1619 443.214 19.999V0.717773H453.045V19.6963C453.045 22.6761 453.635 24.8114 454.814 26.1021C455.993 27.3928 457.603 28.0461 459.658 28.0461C461.714 28.0461 463.324 27.3928 464.471 26.1021C465.634 24.8114 466.208 22.6761 466.208 19.6963V0.717773H475.896V19.999C475.896 25.1619 474.462 29.1616 471.578 31.9661C468.694 34.7707 464.694 36.1889 459.563 36.1889Z" fill="url(#paint9_linear_88_231)"/>
<path d="M586.532 6.69367C585.257 4.76554 583.489 3.29952 581.21 2.24781C578.899 1.22798 576.159 0.702148 572.987 0.702148H557.084V35.4721H566.916V26.3892H572.987C576.159 26.3892 578.899 25.8634 581.21 24.8117C583.505 23.7918 585.273 22.2939 586.532 20.3658C587.807 18.4536 588.444 16.1909 588.444 13.5775C588.428 10.9483 587.791 8.65366 586.532 6.69367ZM576.971 17.3222C575.951 18.1987 574.406 18.6449 572.366 18.6449H566.9V8.46244H572.366C574.406 8.46244 575.951 8.92454 576.971 9.8169C577.959 10.6933 578.469 11.9681 578.469 13.5935C578.469 15.171 577.975 16.414 576.971 17.3222Z" fill="url(#paint10_linear_88_231)"/>
<path d="M695.623 27.8871V35.488H667.689V0.702148H694.953V8.31903H677.441V14.1831H692.898V21.545H677.441V27.8871H695.623Z" fill="url(#paint11_linear_88_231)"/>
<path d="M77.7146 307.926V329.087H0V232.267H75.9299V253.428H27.1053V269.761H70.1136V290.222H27.1053V307.926H77.7146Z" fill="url(#paint12_linear_88_231)"/>
<path d="M212.699 232.267V329.087H190.151L147.43 277.506V329.087H120.596V232.267H143.127L185.865 283.864V232.267H212.699Z" fill="url(#paint13_linear_88_231)"/>
<path d="M337.454 307.926V329.087H259.723V232.267H335.669V253.428H286.844V269.761H329.837V290.222H286.844V307.926H337.454Z" fill="url(#paint14_linear_88_231)"/>
<path d="M448.616 298.636C454.464 295.847 459.053 291.959 462.336 286.971C465.841 281.665 467.594 275.386 467.594 268.088C467.594 260.71 465.857 254.336 462.336 248.935C458.846 243.549 453.874 239.421 447.468 236.553C441.063 233.717 433.43 232.267 424.586 232.267H380.319V329.087H407.695V303.368H422.642L440.186 329.087H469.506L448.616 298.636ZM407.711 253.858H422.929C428.633 253.858 432.904 255.101 435.708 257.587C438.529 260.073 439.947 263.579 439.947 268.088C439.947 272.518 438.545 275.976 435.708 278.462C432.904 280.948 428.633 282.207 422.929 282.207H407.711V253.858Z" fill="url(#paint15_linear_88_231)"/>
<path d="M575.203 278.606H599.408V318.714C593.878 322.682 587.472 325.709 580.174 327.829C572.892 329.948 565.753 331 558.742 331C551.077 331 543.986 329.773 537.453 327.335C530.903 324.897 525.263 321.407 520.514 316.897C515.765 312.388 512.052 307.066 509.375 300.931C506.698 294.812 505.36 288.055 505.36 280.677C505.36 273.299 506.698 266.543 509.375 260.424C512.052 254.289 515.781 248.967 520.578 244.457C525.358 239.948 531.063 236.442 537.66 234.004C544.257 231.566 551.459 230.339 559.299 230.339C568.43 230.339 576.573 231.869 583.776 234.912C590.962 237.956 596.922 242.338 601.623 248.058L584.19 263.818C580.875 260.217 577.306 257.524 573.466 255.723C569.657 253.938 565.387 253.03 560.686 253.03C556.543 253.03 552.75 253.684 549.34 254.974C545.93 256.265 543.014 258.129 540.624 260.583C538.218 263.021 536.353 265.937 535.015 269.3C533.676 272.662 533.007 276.455 533.007 280.709C533.007 284.757 533.676 288.501 535.015 291.911C536.353 295.321 538.202 298.253 540.624 300.691C543.014 303.13 545.898 305.026 549.276 306.364C552.639 307.687 556.336 308.356 560.399 308.356C564.462 308.356 568.43 307.687 572.286 306.364C573.258 306.03 574.231 305.631 575.203 305.169V278.606Z" fill="url(#paint16_linear_88_231)"/>
<path d="M644.487 329.087V232.282H671.864V329.087H644.487Z" fill="url(#paint17_linear_88_231)"/>
<path d="M796.746 307.926V329.087H719.015V232.267H794.961V253.428H746.136V269.761H789.129V290.222H746.136V307.926H796.746Z" fill="url(#paint18_linear_88_231)"/>
<defs>
<linearGradient id="paint0_linear_88_231" x1="-24.1014" y1="133.14" x2="874.35" y2="133.104" gradientUnits="userSpaceOnUse">
<stop offset="0.0309" stop-color="#23589B"/>
<stop offset="0.33" stop-color="#3376A9"/>
<stop offset="0.66" stop-color="#2EA0BA"/>
<stop offset="1" stop-color="#51C4B8"/>
</linearGradient>
<linearGradient id="paint1_linear_88_231" x1="-24.1014" y1="133.146" x2="874.35" y2="133.11" gradientUnits="userSpaceOnUse">
<stop offset="0.0309" stop-color="#23589B"/>
<stop offset="0.33" stop-color="#3376A9"/>
<stop offset="0.66" stop-color="#2EA0BA"/>
<stop offset="1" stop-color="#51C4B8"/>
</linearGradient>
<linearGradient id="paint2_linear_88_231" x1="-24.1014" y1="133.151" x2="874.35" y2="133.115" gradientUnits="userSpaceOnUse">
<stop offset="0.0309" stop-color="#23589B"/>
<stop offset="0.33" stop-color="#3376A9"/>
<stop offset="0.66" stop-color="#2EA0BA"/>
<stop offset="1" stop-color="#51C4B8"/>
</linearGradient>
<linearGradient id="paint3_linear_88_231" x1="-24.1012" y1="134.4" x2="874.35" y2="134.364" gradientUnits="userSpaceOnUse">
<stop offset="0.0309" stop-color="#23589B"/>
<stop offset="0.33" stop-color="#3376A9"/>
<stop offset="0.66" stop-color="#2EA0BA"/>
<stop offset="1" stop-color="#51C4B8"/>
</linearGradient>
<linearGradient id="paint4_linear_88_231" x1="-24.1013" y1="133.162" x2="874.35" y2="133.127" gradientUnits="userSpaceOnUse">
<stop offset="0.0309" stop-color="#23589B"/>
<stop offset="0.33" stop-color="#3376A9"/>
<stop offset="0.66" stop-color="#2EA0BA"/>
<stop offset="1" stop-color="#51C4B8"/>
</linearGradient>
<linearGradient id="paint5_linear_88_231" x1="2.95323" y1="133.165" x2="794.883" y2="133.133" gradientUnits="userSpaceOnUse">
<stop offset="0.0309" stop-color="#23589B"/>
<stop offset="0.33" stop-color="#3376A9"/>
<stop offset="0.66" stop-color="#2EA0BA"/>
<stop offset="1" stop-color="#51C4B8"/>
</linearGradient>
<linearGradient id="paint6_linear_88_231" x1="101.122" y1="18.1075" x2="695.623" y2="18.1075" gradientUnits="userSpaceOnUse">
<stop offset="0.00558659" stop-color="#23589B"/>
<stop offset="1" stop-color="#51C4B8"/>
</linearGradient>
<linearGradient id="paint7_linear_88_231" x1="101.122" y1="18.1085" x2="695.623" y2="18.1085" gradientUnits="userSpaceOnUse">
<stop offset="0.00558659" stop-color="#23589B"/>
<stop offset="1" stop-color="#51C4B8"/>
</linearGradient>
<linearGradient id="paint8_linear_88_231" x1="101.122" y1="18.1069" x2="695.623" y2="18.1069" gradientUnits="userSpaceOnUse">
<stop offset="0.00558659" stop-color="#23589B"/>
<stop offset="1" stop-color="#51C4B8"/>
</linearGradient>
<linearGradient id="paint9_linear_88_231" x1="101.123" y1="18.1082" x2="695.623" y2="18.1082" gradientUnits="userSpaceOnUse">
<stop offset="0.00558659" stop-color="#23589B"/>
<stop offset="1" stop-color="#51C4B8"/>
</linearGradient>
<linearGradient id="paint10_linear_88_231" x1="101.122" y1="18.1085" x2="695.623" y2="18.1085" gradientUnits="userSpaceOnUse">
<stop offset="0.00558659" stop-color="#23589B"/>
<stop offset="1" stop-color="#51C4B8"/>
</linearGradient>
<linearGradient id="paint11_linear_88_231" x1="101.122" y1="18.1085" x2="695.623" y2="18.1085" gradientUnits="userSpaceOnUse">
<stop offset="0.00558659" stop-color="#23589B"/>
<stop offset="1" stop-color="#51C4B8"/>
</linearGradient>
<linearGradient id="paint12_linear_88_231" x1="0" y1="280.674" x2="796.746" y2="280.674" gradientUnits="userSpaceOnUse">
<stop offset="0.00558659" stop-color="#23589B"/>
<stop offset="1" stop-color="#51C4B8"/>
</linearGradient>
<linearGradient id="paint13_linear_88_231" x1="9.52754e-05" y1="280.674" x2="796.746" y2="280.674" gradientUnits="userSpaceOnUse">
<stop offset="0.00558659" stop-color="#23589B"/>
<stop offset="1" stop-color="#51C4B8"/>
</linearGradient>
<linearGradient id="paint14_linear_88_231" x1="-8.81069e-06" y1="280.674" x2="796.746" y2="280.674" gradientUnits="userSpaceOnUse">
<stop offset="0.00558659" stop-color="#23589B"/>
<stop offset="1" stop-color="#51C4B8"/>
</linearGradient>
<linearGradient id="paint15_linear_88_231" x1="-4.54685e-05" y1="280.674" x2="796.746" y2="280.674" gradientUnits="userSpaceOnUse">
<stop offset="0.00558659" stop-color="#23589B"/>
<stop offset="1" stop-color="#51C4B8"/>
</linearGradient>
<linearGradient id="paint16_linear_88_231" x1="0.000223044" y1="280.675" x2="796.745" y2="280.675" gradientUnits="userSpaceOnUse">
<stop offset="0.00558659" stop-color="#23589B"/>
<stop offset="1" stop-color="#51C4B8"/>
</linearGradient>
<linearGradient id="paint17_linear_88_231" x1="0.000164415" y1="280.674" x2="796.745" y2="280.674" gradientUnits="userSpaceOnUse">
<stop offset="0.00558659" stop-color="#23589B"/>
<stop offset="1" stop-color="#51C4B8"/>
</linearGradient>
<linearGradient id="paint18_linear_88_231" x1="5.89584e-06" y1="280.674" x2="796.746" y2="280.674" gradientUnits="userSpaceOnUse">
<stop offset="0.00558659" stop-color="#23589B"/>
<stop offset="1" stop-color="#51C4B8"/>
</linearGradient>
</defs>
</svg>
